<svg xmlns="http://www.w3.org/2000/svg" xmlns:xlink="http://www.w3.org/1999/xlink" width="219.8341827392578" height="175.99000549316406" viewBox="0 0 219.8341827392578 175.99000549316406" fill="none"><g opacity="1"  transform="translate(0 0)  rotate(0)"><mask id="bg-mask-0" fill="white"><use transform="translate(0 0)  rotate(0)" xlink:href="#path_0"></use></mask><g mask="url(#bg-mask-0)" ><g opacity="1"  transform="translate(0 0)  rotate(0)"><path id="矩形 1" fill-rule="evenodd" style="fill:#DCC4FB" opacity="1" d="M15,175.99c-8.28,0 -15,-6.72 -15,-15v-145.99c0,-8.28 6.72,-15 15,-15h189.83c8.28,0 15,6.72 15,15v145.99c0,8.28 -6.72,15 -15,15z"></path><g opacity="1"  transform="translate(14.449188232421875 10.29180908203125)  rotate(0)"><g opacity="1"  transform="translate(0 0)  rotate(0)"><g opacity="1"  transform="translate(0 0)  rotate(0)"></g><path id="路径 1" fill-rule="evenodd" style="fill:#508DEF" opacity="1" d="M78.4388,153.854c-42.43,0 -76.87003,-34.12 -76.87003,-76.1499c0,-42.0301 34.44003,-76.15005 76.87003,-76.15005c42.4302,0 76.8702,34.11995 76.8702,76.15005c0,42.0299 -34.44,76.1499 -76.8702,76.1499z"></path><path id="路径 2" fill-rule="evenodd" style="fill:#1C1D21" opacity="1" d="M78.44,155.41c-20.96,0 -40.66,-8.09 -55.47,-22.76c-14.81,-14.67 -22.97,-34.18 -22.97,-54.95c0,-20.76 8.16,-40.28 22.97,-54.95c14.81,-14.66999 34.51,-22.74999 55.47,-22.74999c20.96,0 40.66,8.08 55.47,22.74999c14.81,14.67 22.97,34.19 22.97,54.95c0,20.77 -8.16,40.28 -22.97,54.95c-14.81,14.67 -34.51,22.76 -55.47,22.76zM78.44,152.3c41.51,0 75.3,-33.48 75.3,-74.6c0,-41.12 -33.79,-74.58999 -75.3,-74.58999c-41.51,0 -75.3,33.46999 -75.3,74.58999c0,41.12 33.79,74.6 75.3,74.6z"></path><path id="路径 3" fill-rule="evenodd" style="fill:#FFC5B3" opacity="1" d="M91.6147,117.707l9.6303,5.87c7.66,4.66 12.37,12.87 12.55,21.76c-10.57,5.44 -22.6203,8.52 -35.3603,8.52c-12.86,0 -24.97,-3.14 -35.67,-8.65c0.25,-8.82 4.93,-16.97 12.55,-21.63l9.63,-5.87c3.8,-2.33 6.12,-6.44 6.12,-10.88v-3.85c0,-2.15 -1.29,-4.0804 -3.23,-4.9804c-8.35,-3.88 -14.12,-12.31 -14.12,-22.03v-11.19c0,-13.43 11.01,-24.34 24.57,-24.34c13.55,0 24.5603,10.91 24.5603,24.34v11.19c0,9.76 -5.7703,18.15 -14.1203,22.03c-1.94,0.93 -3.23,2.8304 -3.23,4.9804v3.85c0,4.44 2.33,8.55 6.12,10.88z"></path><path id="路径 4" fill-rule="evenodd" style="fill:#FFECE9" opacity="1" d="M91.6174,117.707l9.6296,5.87c7.66,4.66 12.36,12.87 12.55,21.76c-10.57,5.44 -22.6196,8.51 -35.3596,8.51c-12.86,0 -24.97,-3.13 -35.61,-8.64c0.25,-8.82 4.93,-16.97 12.55,-21.63l9.63,-5.87c1.13,-0.69 2.14,-1.56 2.98,-2.52l7.31,6.43c1.73,1.53 4.3,1.53 6.03,0l7.31,-6.43c0.85,0.96 1.85,1.83 2.98,2.52z"></path><path id="路径 5" fill-rule="evenodd" style="fill:#FF3E63" opacity="1" d="M78.4422,153.848c-1.6,0 -3.14,-0.06 -4.71,-0.15l4.58,-24.4l4.58,24.43c-1.47,0.06 -2.95,0.12 -4.45,0.12z"></path><path id="路径 6" fill-rule="evenodd" style="fill:#1C1D21" opacity="1" d="M78.4385,155.404c-1.54,0 -3.1,-0.06 -4.8,-0.15c-0.44,-0.03 -0.88,-0.25 -1.13,-0.59c-0.28,-0.35 -0.37,-0.81 -0.31,-1.25l4.58,-24.4c0.12,-0.74 0.78,-1.27 1.54,-1.27c0.75,0 1.41,0.53 1.53,1.27l4.58,24.43c0.1,0.44 -0.03,0.91 -0.31,1.25c-0.28,0.34 -0.69,0.56 -1.13,0.59c-1.57,0.09 -3.1,0.12 -4.55,0.12zM78.3185,137.814l-2.7,14.42c1.82,0.06 3.54,0.06 5.4,0z"></path><path id="路径 7" fill-rule="evenodd" style="fill:#FFC5B3" opacity="1" d="M50.1344,74.535c-3.07,0 -5.55,-2.46 -5.55,-5.5v-1.87c0,-3.04 2.48,-5.5 5.55,-5.5h3.45v12.87zM106.524,74.535h-3.46v-12.87h3.46c3.07,0 5.55,2.46 5.55,5.5v1.87c0,3.04 -2.51,5.5 -5.55,5.5z"></path><path id="路径 8" fill-rule="evenodd" style="fill:#1C1D21" opacity="1" d="M53.5857,76.091h-3.45c-3.92,0 -7.12,-3.17 -7.12,-7.06v-1.86c0,-3.89 3.2,-7.06 7.12,-7.06h3.45c0.88,0 1.57,0.68 1.57,1.55v12.87c0,0.84 -0.69,1.56 -1.57,1.56zM46.1557,69.031c0,2.18 1.79,3.95 3.98,3.95h1.88v-9.76h-1.88c-2.19,0 -3.98,1.77 -3.98,3.95zM106.516,76.091h-3.45c-0.88,0 -1.57,-0.69 -1.57,-1.56v-12.87c0,-0.87 0.69,-1.55 1.57,-1.55h3.45c3.93,0 7.13,3.17 7.13,7.06v1.86c0,3.89 -3.2,7.06 -7.13,7.06zM110.476,69.031v-1.86c0,-2.18 -1.79,-3.95 -3.99,-3.95h-1.88v9.76h1.88c2.2,0 3.99,-1.77 3.99,-3.95z"></path><path id="路径 9" fill-rule="evenodd" style="fill:#FF8939" opacity="1" d="M76.1843,40.4955c0.72,-0.06 1.41,-0.09 2.13,-0.09c12.52,0 22.8397,9.26 24.3797,21.23c-21.1797,-0.13 -24.2897,-10.85 -24.2897,-10.85c0,0 -3.13,10.82 -24.47,10.88c1.44,-11.31 10.7,-20.2 22.25,-21.17z"></path><path id="路径 10" fill-rule="evenodd" style="fill:#1C1D21" opacity="1" d="M53.9327,63.2225c-0.44,0 -0.88,-0.19 -1.16,-0.53c-0.31,-0.34 -0.44,-0.78 -0.37,-1.21c1.53,-12.03 11.48,-21.48 23.65,-22.51c0.76,-0.06 1.51,-0.09 2.26,-0.09c13.12,0 24.2903,9.73 25.9203,22.6c0.06,0.43 -0.1,0.9 -0.38,1.21c-0.31,0.34 -0.72,0.53 -1.19,0.53c-15.3403,-0.1 -21.7403,-5.63 -24.2503,-9.14c-2.55,3.54 -8.98,9.07 -24.48,9.14zM55.8227,60.0825c9.22,-0.31 14.4,-2.83 17.19,-4.91c3.14,-2.37 3.89,-4.79 3.92,-4.79c0.19,-0.65 0.82,-1.12 1.51,-1.12c0.69,0 1.32,0.47 1.5,1.12c0,0 0.79,2.39 3.89,4.76c2.76,2.11 7.91,4.6 17.0403,4.94c-2.2603,-10.48 -11.6103,-18.12 -22.5603,-18.12c-0.66,0 -1.32,0.03 -1.97,0.09c-10.11,0.87 -18.48,8.33 -20.52,18.03z"></path><path id="路径 11" fill-rule="evenodd" style="fill:#1C1D21" opacity="1" d="M113.929,146.83c-0.82,0 -1.51,-0.62 -1.57,-1.43c-0.38,-5.01 -1.67,-9.23 -3.89,-12.96c-0.51,-0.53 -0.85,-1.06 -1.2,-1.62c-0.12,-0.19 -0.25,-0.37 -0.4,-0.62c-2.8,-3.48 -6.47,-5.47 -10.3303,-7.58c-2.29,-1.25 -4.64,-2.55 -6.9,-4.2c-0.03,0 -0.03,-0.03 -0.06,-0.03c-1.57,-1.25 -2.98,-2.89 -4.14,-4.76c-0.07,-0.09 -0.1,-0.18 -0.16,-0.31c-0.13,-0.37 -0.25,-0.74 -0.38,-1.09c-0.5,-1.46 -0.97,-2.82 -1.25,-4.41v-0.09c-0.28,-2.68 -0.32,-6.62 2.57,-9.8901c0.03,-0.03 0.03,-0.06 0.06,-0.06c1.29,-1.27 2.89,-2.14 4.43,-2.95c0.94,-0.5 1.85,-1 2.66,-1.56c3.55,-2.64 5.31,-6.62 6.6903,-10.16c1.82,-5.19 1.53,-10.57 1.25,-16.25c-0.09,-1.68 -0.19,-3.42 -0.22,-5.16c0,-0.87 0.69,-1.56 1.54,-1.59c0.88,0 1.57,0.68 1.6,1.52c0.03,1.68 0.13,3.39 0.22,5.04c0.31,5.72 0.6,11.65 -1.41,17.44c0,0.03 0,0.03 -0.03,0.06c-1.54,3.95 -3.5203,8.42 -7.7503,11.56c0,0 -0.03,0 -0.03,0.03c-0.98,0.68 -2.01,1.24 -3.02,1.77c-1.38,0.75 -2.69,1.43 -3.67,2.4c-1.53,1.7701 -2.1,4.1301 -1.79,7.4201c0.22,1.34 0.63,2.52 1.13,3.89c0.1,0.31 0.22,0.62 0.35,0.96c0.94,1.49 2.07,2.8 3.29,3.79c2.07,1.53 4.36,2.77 6.53,3.95c3.9803,2.18 8.1303,4.45 11.2903,8.46c0.04,0.03 0.07,0.06 0.07,0.09c0.19,0.25 0.31,0.5 0.47,0.71c0.34,0.53 0.56,0.91 0.91,1.22c0.09,0.09 0.15,0.18 0.22,0.28c2.57,4.19 4.01,8.92 4.45,14.48c0.07,0.87 -0.59,1.62 -1.44,1.68c0,-0.03 -0.06,-0.03 -0.09,-0.03zM42.8287,146.77c-0.88,0 -1.57,-0.72 -1.57,-1.59c0.03,-2.61 0.25,-4.63 0.72,-6.62c0,-0.03 0.03,-0.06 0.03,-0.12c2.17,-6.84 5.78,-11.78 11.02,-15.14c1.34,-0.87 2.66,-1.65 3.95,-2.43c3.8,-2.3 7.37,-4.47 10.54,-7.61c1.73,-1.71 2.07,-4.63 2.35,-7.18l0.04,-0.19v-0.77c0.03,-2.33 -0.04,-3.83 -1.17,-4.67c-3.7,-2.0201 -6.58,-3.9701 -9.28,-6.3701l-0.07,-0.06c-3.98,-3.95 -6.36,-8.86 -7.02,-14.61c-0.44,-4.22 -0.29,-8.45 -0.1,-12.52c0.07,-1.74 0.16,-3.55 0.16,-5.29c0,-0.84 0.72,-1.52 1.57,-1.52h0.03c0.88,0 1.57,0.71 1.54,1.59c-0.03,1.77 -0.1,3.6 -0.16,5.37c-0.16,3.95 -0.34,8.05 0.09,12.06c0.6,4.97 2.64,9.26 6.12,12.71c2.58,2.27 5.21,4.04 8.79,6c0.06,0.03 0.09,0.06 0.15,0.1c2.64,1.86 2.58,4.8801 2.55,7.3001v0.99l-0.04,0.28c-0.31,2.93 -0.72,6.56 -3.23,9.05c-3.42,3.39 -7.15,5.66 -11.14,8.05c-1.25,0.78 -2.57,1.55 -3.89,2.39c-4.58,2.92 -7.75,7.31 -9.69,13.4c-0.41,1.74 -0.6,3.54 -0.63,5.87c-0.09,0.84 -0.78,1.53 -1.66,1.53z"></path><path id="路径 12" fill-rule="evenodd" style="fill:#1C1D21" opacity="1" d="M78.4387,155.411c-12.64,0 -25.19,-3.05 -36.33,-8.83c-0.54,-0.28 -0.85,-0.84 -0.85,-1.43c0.25,-9.42 5.21,-17.97 13.27,-22.91l9.63,-5.87c0.98,-0.59 1.86,-1.34 2.64,-2.24c0.25,-0.28 0.6,-0.47 0.97,-0.53c0.47,-0.06 0.91,0.06 1.26,0.37l7.31,6.44c1.13,0.99 2.82,0.99 3.95,0l7.31,-6.44c0.28,-0.24 0.66,-0.4 1.04,-0.4c0.47,0 0.91,0.19 1.19,0.53c0.75,0.87 1.63,1.61 2.63,2.24l9.6403,5.87c8.12,4.97 13.08,13.58 13.27,23.06c0,0.59 -0.32,1.15 -0.85,1.4c-11.07,5.72 -23.5303,8.74 -36.0803,8.74zM112.199,144.401c-0.47,-8.02 -4.83,-15.26 -11.77,-19.52l-9.6303,-5.87c-0.81,-0.5 -1.57,-1.06 -2.26,-1.71l-6.21,5.44c-2.32,2.02 -5.8,2.02 -8.09,0l-6.22,-5.44c-0.69,0.65 -1.44,1.21 -2.26,1.71l-9.63,5.87c-6.84,4.23 -11.17,11.41 -11.7,19.4c10.48,5.25 22.21,8.02 34.01,8.02c11.89,0 23.2203,-2.64 33.7603,-7.9z"></path><path id="路径 13" fill-rule="evenodd" style="fill:#FF3E63" opacity="1" d="M87.7876,117.704l-6.84,12.87c-1.29,2.45 -3.98,2.45 -5.27,0l-6.84,-12.87h2.01l4.45,3.89c1.73,1.52 4.3,1.52 6.03,0l4.45,-3.89z"></path><path id="路径 14" fill-rule="evenodd" style="fill:#1C1D21" opacity="1" d="M78.3098,133.959c-1.63,0 -3.14,-0.99 -4.05,-2.67l-6.81,-12.9c-0.25,-0.47 -0.25,-1.06 0.04,-1.52c0.28,-0.47 0.78,-0.75 1.35,-0.75h2c0.38,0 0.76,0.12 1.04,0.4l4.45,3.89c1.13,0.99 2.83,0.99 3.96,0l4.45,-3.89c0.28,-0.24 0.66,-0.4 1.04,-0.4h2.01c0.56,0 1.06,0.28 1.34,0.75c0.29,0.46 0.32,1.05 0.04,1.52l-6.84,12.87c-0.88,1.71 -2.39,2.7 -4.02,2.7zM78.3098,130.849c0.44,0 0.91,-0.37 1.26,-1.02l4.61,-8.67l-1.82,1.58c-2.32,2.02 -5.81,2.02 -8.1,0l-1.82,-1.58l4.62,8.67c0.34,0.62 0.81,1.02 1.25,1.02z"></path><path id="路径 17" fill-rule="evenodd" style="fill:#AAADAD" opacity="1" d="M42.8274,145.212c0.25,-8.83 4.93,-16.97 12.55,-21.63l9.63,-5.91l0.03,-0.03v35.09l-0.94,-0.19c-0.25,-0.06 -0.5,-0.09 -0.75,-0.15l-0.94,-0.19c-0.25,-0.06 -0.47,-0.09 -0.72,-0.15c-0.32,-0.07 -0.63,-0.16 -0.94,-0.22c-0.22,-0.06 -0.41,-0.09 -0.63,-0.16c-0.63,-0.15 -1.29,-0.31 -1.95,-0.49c-0.12,-0.03 -0.28,-0.1 -0.44,-0.13c-0.34,-0.09 -0.69,-0.22 -1.03,-0.31c-0.19,-0.06 -0.35,-0.09 -0.54,-0.15c-0.34,-0.1 -0.72,-0.19 -1.06,-0.31c-0.16,-0.04 -0.28,-0.1 -0.44,-0.13c-1.26,-0.4 -2.51,-0.84 -3.74,-1.3c-0.03,-0.04 -0.09,-0.04 -0.15,-0.07l-1.23,-0.46c-0.06,-0.03 -0.15,-0.07 -0.22,-0.1c-1.75,-0.71 -3.45,-1.49 -5.14,-2.33c-0.03,0 -0.03,-0.03 -0.06,-0.03c-0.44,-0.22 -0.88,-0.43 -1.29,-0.65z"></path><path id="路径 18" fill-rule="evenodd" style="fill:#1C1D21" opacity="1" d="M65.0387,154.264c-0.09,0 -0.19,0 -0.28,-0.03c-7.91,-1.37 -15.53,-3.95 -22.65,-7.65c-0.54,-0.28 -0.85,-0.84 -0.85,-1.43c0.25,-9.42 5.21,-17.97 13.27,-22.91l9.6,-5.87c0.03,0 0.03,-0.03 0.07,-0.03c0.47,-0.31 1.09,-0.31 1.6,-0.03c0.5,0.28 0.81,0.8 0.81,1.36v35.06c0,0.47 -0.22,0.9 -0.56,1.18c-0.29,0.22 -0.66,0.35 -1.01,0.35zM63.4387,120.444l-7.28,4.44c-6.87,4.23 -11.2,11.41 -11.73,19.4c6.02,3.01 12.42,5.22 19.01,6.56z"></path><path id="路径 19" fill-rule="evenodd" style="fill:#AAADAD" opacity="1" d="M91.5848,152.732v-35.09c0.03,0 0.03,0.03 0.03,0.06l9.6302,5.88c7.66,4.66 12.37,12.86 12.55,21.75c-6.87,3.52 -14.3302,6.06 -22.2102,7.4z"></path><path id="路径 20" fill-rule="evenodd" style="fill:#1C1D21" opacity="1" d="M91.586,154.293c-0.38,0 -0.72,-0.13 -1.01,-0.38c-0.34,-0.31 -0.56,-0.71 -0.56,-1.18v-35.09c0,-0.56 0.31,-1.09 0.82,-1.37c0.5,-0.27 1.09,-0.24 1.6,0.04c0.03,0 0.06,0.03 0.06,0.03l9.6,5.87c8.13,4.97 13.08,13.58 13.27,23.06c0,0.59 -0.31,1.15 -0.85,1.4c-7.12,3.67 -14.74,6.22 -22.65,7.55c-0.09,0.07 -0.19,0.07 -0.28,0.07zM112.166,144.403c-0.47,-8.02 -4.83,-15.26 -11.76,-19.52l-7.25,-4.44v30.43c6.62,-1.31 12.99,-3.48 19.01,-6.47z"></path><path id="路径 21" fill-rule="evenodd" style="fill:#AAADAD" opacity="1" d="M57.4468,149.433l2.3,-4.87c0.31,-0.66 -0.19,-1.4 -0.91,-1.4c-2.04,0 -3.42,-2.05 -2.67,-3.92l8.78,-21.57l0.03,35.03c-2.76,-0.5 -5.45,-1.12 -8.12,-1.9c0.19,-0.46 0.38,-0.9 0.59,-1.37zM97.7668,143.193c-0.72,0 -1.19,0.74 -0.91,1.4l2.29,4.84c0.22,0.47 0.44,0.94 0.63,1.43c-2.67,0.78 -5.4,1.4 -8.16,1.87v-35.06l8.8202,21.6c0.78,1.87 -0.6302,3.92 -2.6702,3.92z"></path><path id="路径 22" fill-rule="evenodd" style="fill:#1C1D21" opacity="1" d="M91.6174,154.286c-0.38,0 -0.72,-0.12 -1.01,-0.37c-0.34,-0.31 -0.56,-0.75 -0.56,-1.18l0.03,-35.06c0,-0.75 0.53,-1.37 1.26,-1.53c0.72,-0.15 1.47,0.25 1.75,0.94l8.8196,21.57c0.56,1.36 0.41,2.89 -0.44,4.1c-0.66,0.96 -1.6896,1.65 -2.8196,1.86l1.9396,4.14c0.22,0.46 0.44,0.96 0.66,1.52c0.16,0.4 0.13,0.87 -0.06,1.24c-0.19,0.41 -0.54,0.69 -0.97,0.81c-2.7296,0.78 -5.5296,1.43 -8.3496,1.9c-0.09,0.06 -0.16,0.06 -0.25,0.06zM97.6374,149.846l-2.16,-4.6c-0.38,-0.78 -0.32,-1.71 0.15,-2.43c0.48,-0.75 1.29,-1.18 2.17,-1.18c0.44,0 0.85,-0.22 1.1,-0.56c0.25,-0.34 0.28,-0.81 0.12,-1.21l-5.83,-14.21v25.21c1.5,-0.28 2.98,-0.62 4.45,-1.02z"></path><path id="路径 23" fill-rule="evenodd" style="fill:#FFECE9" opacity="1" d="M72.0024,93.0248c-0.31,0.53 -0.87,0.87 -1.47,0.87c-0.22,0 -0.44,-0.06 -0.66,-0.15c-6.93,-3.23 -11.42,-10.23 -11.42,-17.81v-11.19c0,-1.27 0.13,-2.52 0.38,-3.76c0.15,-0.84 0.97,-1.4 1.85,-1.24c0.84,0.15 1.41,0.99 1.25,1.83c-0.19,1.03 -0.31,2.11 -0.31,3.17v11.19c0,6.4 3.76,12.28 9.63,15.01c0.79,0.37 1.13,1.31 0.75,2.08z"></path><path id="路径 24" fill-rule="evenodd" style="fill:#1C1D21" opacity="1" d="M65.012,154.26c-0.1,0 -0.19,0 -0.29,-0.04c-2.76,-0.49 -5.58,-1.11 -8.31,-1.92c-0.41,-0.13 -0.78,-0.41 -0.97,-0.81c-0.19,-0.41 -0.22,-0.84 -0.07,-1.24c0.22,-0.53 0.41,-1.03 0.63,-1.47l1.95,-4.13c-1.13,-0.22 -2.17,-0.87 -2.83,-1.86c-0.81,-1.22 -1,-2.77 -0.44,-4.11l8.82,-21.57c0.28,-0.68 1.01,-1.08 1.76,-0.93c0.72,0.16 1.25,0.78 1.25,1.52l0.03,35.03c0,0.47 -0.22,0.9 -0.56,1.18c-0.25,0.22 -0.6,0.35 -0.97,0.35zM63.442,125.63l-5.81,14.2c-0.15,0.41 -0.12,0.84 0.13,1.22c0.25,0.37 0.66,0.56 1.1,0.56c0.88,0 1.69,0.43 2.16,1.18c0.47,0.74 0.54,1.64 0.16,2.42l-2.17,4.57c1.48,0.37 2.95,0.71 4.43,1.03zM78.442,90.8503c-2.73,0 -5.24,-1.46 -6.62,-3.79c-0.44,-0.75 -0.19,-1.68 0.56,-2.12c0.75,-0.43 1.69,-0.18 2.13,0.56c0.82,1.37 2.29,2.24 3.89,2.24c1.6,0 3.11,-0.84 3.89,-2.24c0.44,-0.74 1.39,-0.99 2.14,-0.56c0.75,0.44 1,1.37 0.56,2.12c-1.31,2.36 -3.82,3.79 -6.55,3.79z"></path><path id="路径 25" fill-rule="evenodd" style="fill:#0ABFB2" opacity="1" d="M120.103,72.4214c0,3.45 -2.82,6.21 -6.27,6.21h-70.7497c-3.46,0 -6.28,-2.79 -6.28,-6.21v-27.35c0,-3.42 2.82,-6.22 6.28,-6.22h70.7497c3.45,0 6.27,2.8 6.27,6.22z"></path><path id="路径 26" fill-rule="evenodd" style="fill:#1C1D21" opacity="1" d="M77.5884,51.2517h-0.19c-1.82,0 -3.32,1.49 -3.32,3.3v2.45c0,1.8 1.5,3.3 3.32,3.3h2.11c0.09,0 0.19,0.06 0.19,0.18v2.46c0,0.09 -0.07,0.18 -0.19,0.18h-3.89c-0.88,0 -1.57,0.72 -1.57,1.56c0,0.87 0.72,1.55 1.57,1.55h1.91v2.64c0,0.66 0.53,1.19 1.19,1.19c0.66,0 1.19,-0.53 1.19,-1.19v-2.67c1.64,-0.22 2.89,-1.58 2.89,-3.26v-2.46c0,-1.8 -1.5,-3.29 -3.32,-3.29h-2.11c-0.09,0 -0.18,-0.06 -0.18,-0.19v-2.45c0,-0.1 0.06,-0.19 0.18,-0.19h3.89c0.88,0 1.57,-0.72 1.57,-1.55c0,-0.88 -0.72,-1.56 -1.57,-1.56h-1.31v-2.64c0,-0.65 -0.54,-1.18 -1.2,-1.18c-0.66,0 -1.19,0.53 -1.16,1.18zM78.7484,44.3217c2.36,0 4.27,1.86 4.3,4.2c1.7,0.68 2.89,2.36 2.89,4.29c0,1.36 -0.63,2.64 -1.6,3.48c1,1.12 1.6,2.58 1.6,4.19v2.46c0,2.17 -1.13,4.16 -2.89,5.31v0.62c0,2.37 -1.94,4.29 -4.33,4.29c-2.26,0 -4.14,-1.77 -4.3,-3.98c-2,-0.52 -3.51,-2.33 -3.51,-4.5c0,-1.37 0.63,-2.64 1.6,-3.48c-1,-1.12 -1.6,-2.58 -1.6,-4.2v-2.45c0,-2.46 1.44,-4.64 3.51,-5.69v-0.25c0,-2.36 1.95,-4.29 4.33,-4.29z"></path><path id="路径 27" fill-rule="evenodd" style="fill:#8CEEF9" opacity="1" d="M79.5033,57.1914c1.82,0 3.33,1.49 3.33,3.29v2.46c0,1.68 -1.26,3.04 -2.89,3.26v2.67c0,0.66 -0.53,1.19 -1.19,1.19c-0.66,0 -1.19,-0.53 -1.19,-1.19v-2.64h-1.95c-0.88,0 -1.57,-0.71 -1.57,-1.55c0,-0.87 0.72,-1.56 1.57,-1.56h3.86c0.09,0 0.19,-0.06 0.19,-0.18v-2.46c0,-0.09 -0.06,-0.18 -0.19,-0.18h-2.1c-1.82,0 -3.33,-1.5 -3.33,-3.3v-2.45c0,-1.81 1.51,-3.3 3.33,-3.3h0.19v-2.64c0,-0.65 0.53,-1.18 1.19,-1.18c0.66,0 1.19,0.53 1.19,1.18v2.64h1.32c0.88,0 1.57,0.72 1.57,1.56c0,0.87 -0.72,1.55 -1.57,1.55h-3.86c-0.09,0 -0.19,0.06 -0.19,0.19v2.45c0,0.09 0.06,0.19 0.19,0.19zM36.8033,45.0714c0,-3.42 2.79,-6.22 6.24,-6.22h9.29c0.09,0.56 0.13,1.12 0.13,1.68c0,7.27 -5.97,13.18 -13.31,13.18c-0.78,0 -1.6,-0.1 -2.35,-0.22zM113.833,38.8514c3.45,0 6.27,2.8 6.24,6.22v8.42c-0.75,0.15 -1.54,0.22 -2.35,0.22c-7.34,0 -13.31,-5.91 -13.31,-13.18c0,-0.59 0.07,-1.12 0.13,-1.68zM39.1533,63.7814c7.34,0 13.31,5.9 13.34,13.18c0,0.59 -0.07,1.11 -0.13,1.67h-9.28c-3.46,0 -6.28,-2.79 -6.28,-6.21v-8.43c0.75,-0.15 1.54,-0.21 2.35,-0.21zM117.723,63.7814c0.81,0 1.6,0.09 2.38,0.21v8.43c0,3.42 -2.82,6.21 -6.27,6.21h-9.29c-0.09,-0.56 -0.13,-1.12 -0.13,-1.67c0,-7.28 5.97,-13.18 13.31,-13.18z"></path><path id="路径 28" fill-rule="evenodd" style="fill:#1C1D21" opacity="1" d="M39.1546,55.2574c-0.88,0 -1.76,-0.09 -2.63,-0.24c-0.76,-0.13 -1.29,-0.78 -1.29,-1.53v-8.42c0,-4.29 3.51,-7.77 7.84,-7.77h9.29c0.79,0 1.44,0.59 1.57,1.37c0.09,0.62 0.13,1.27 0.13,1.86c-0.04,8.11 -6.72,14.73 -14.91,14.73zM50.8946,40.5274v-0.12h-7.82c-2.6,0 -4.7,2.08 -4.7,4.66v7.06c0.25,0.03 0.53,0.03 0.78,0.03c6.47,0 11.74,-5.22 11.74,-11.63zM117.725,55.2574c-8.19,0 -14.88,-6.62 -14.88,-14.73c0,-0.59 0.04,-1.24 0.13,-1.86c0.09,-0.78 0.75,-1.37 1.57,-1.37h9.29c4.33,0 7.84,3.48 7.84,7.77v8.42c0,0.75 -0.53,1.4 -1.29,1.53c-0.91,0.15 -1.79,0.24 -2.66,0.24zM117.725,52.1574c0.25,0 0.53,0 0.78,-0.03v-7.06c0,-2.58 -2.1,-4.66 -4.71,-4.66h-7.81v0.12c0,6.41 5.27,11.63 11.74,11.63zM52.3646,80.1874h-9.29c-4.33,0 -7.84,-3.48 -7.84,-7.77v-8.42c0,-0.75 0.53,-1.4 1.29,-1.52c0.87,-0.16 1.75,-0.25 2.63,-0.25c8.19,0 14.87,6.62 14.87,14.73c0,0.59 -0.03,1.24 -0.12,1.86c-0.1,0.78 -0.75,1.37 -1.54,1.37zM43.0746,77.0774h7.82v-0.12c0,-6.4 -5.27,-11.62 -11.74,-11.62c-0.28,0 -0.53,0.03 -0.78,0.03v7.05c0,2.58 2.1,4.66 4.7,4.66zM113.835,80.1874h-9.29c-0.79,0 -1.44,-0.59 -1.57,-1.37c-0.09,-0.62 -0.13,-1.27 -0.13,-1.86c0,-8.11 6.69,-14.73 14.88,-14.73c0.87,0 1.75,0.09 2.63,0.25c0.75,0.12 1.29,0.77 1.29,1.52v8.42c0.03,4.29 -3.52,7.77 -7.81,7.77zM118.505,72.4174v-7.05c-0.25,-0.03 -0.53,-0.03 -0.78,-0.03c-6.47,0 -11.74,5.22 -11.74,11.62v0.12h7.81c2.61,0 4.71,-2.08 4.71,-4.66zM63.8446,60.2974h-4.23c-0.88,0 -1.57,-0.68 -1.57,-1.55c0,-0.87 0.69,-1.56 1.57,-1.56h4.23c0.88,0 1.57,0.69 1.57,1.56c0,0.87 -0.72,1.55 -1.57,1.55zM53.9646,60.2974h-0.88c-0.88,0 -1.57,-0.68 -1.57,-1.55c0,-0.87 0.69,-1.56 1.57,-1.56h0.88c0.88,0 1.57,0.69 1.57,1.56c0,0.87 -0.72,1.55 -1.57,1.55zM97.2646,60.2974h-4.24c-0.88,0 -1.57,-0.68 -1.57,-1.55c0,-0.87 0.69,-1.56 1.57,-1.56h4.24c0.88,0 1.57,0.69 1.57,1.56c0,0.87 -0.69,1.55 -1.57,1.55zM103.795,60.2974h-0.88c-0.88,0 -1.57,-0.68 -1.57,-1.55c0,-0.87 0.69,-1.56 1.57,-1.56h0.88c0.87,0 1.56,0.69 1.56,1.56c0,0.87 -0.69,1.55 -1.56,1.55zM85.1546,40.4074h-2.32c-0.88,0 -1.57,-0.69 -1.57,-1.56c0,-0.87 0.69,-1.55 1.57,-1.55h2.32c0.88,0 1.57,0.68 1.57,1.55c0,0.87 -0.72,1.56 -1.57,1.56zM77.0246,40.4074h-11.73c-0.88,0 -1.57,-0.69 -1.57,-1.56c0,-0.87 0.69,-1.55 1.57,-1.55h11.73c0.88,0 1.57,0.68 1.57,1.55c0,0.87 -0.69,1.56 -1.57,1.56z"></path><path id="路径 29" fill-rule="evenodd" style="fill:#1C1D21" opacity="1" d="M121.645,72.4174c0.03,4.29 -3.52,7.77 -7.81,7.77h-70.7604c-4.33,0 -7.84,-3.48 -7.84,-7.77v-27.35c0,-4.29 3.51,-7.77 7.84,-7.77h15.6c0.88,0 1.57,0.68 1.57,1.55c0,0.87 -0.69,1.56 -1.57,1.56h-15.63c-2.6,0 -4.7,2.08 -4.7,4.66v27.35c0,2.58 2.1,4.66 4.7,4.66h70.7504c2.61,0 4.71,-2.08 4.71,-4.66v-27.35c0,-2.58 -2.1,-4.66 -4.71,-4.66h-22.2104c-0.88,0 -1.57,-0.69 -1.57,-1.56c0,-0.87 0.69,-1.55 1.57,-1.55h22.2104c4.33,0 7.85,3.48 7.85,7.77z"></path><path id="路径 30" fill-rule="evenodd" style="fill:#FFC5B3" opacity="1" d="M8.00504,47.1812h25.65996c5.46,0 9.88,4.38 9.92,9.79v4.1c0,3.73 -2.77,6.9 -6.47,7.49l-10.45,1.65c-4.64,0.72 -8.84,-2.83 -8.84,-7.49v-3.14h-14.05995c1.07,-4.29 2.48,-8.42 4.23999,-12.4z"></path><path id="路径 31" fill-rule="evenodd" style="fill:#1C1D21" opacity="1" d="M25.4498,71.8582c-2.17,0 -4.3,-0.78 -6,-2.17c-2.04,-1.74 -3.23,-4.26 -3.23,-6.94v-1.58h-12.46003c-0.47,0 -0.94,-0.22 -1.22,-0.59c-0.28,-0.37 -0.41,-0.87 -0.28,-1.34c1.07,-4.32 2.51,-8.58 4.33,-12.65c0.25,-0.56 0.81,-0.93 1.44,-0.93h25.67003c6.3,0 11.45,5.1 11.45,11.34v4.11c0,4.5 -3.26,8.3 -7.78,9.01l-10.45,1.65c-0.5,0.06 -0.97,0.09 -1.47,0.09zM19.3898,59.5782v3.14c0,1.78 0.78,3.42 2.13,4.57c1.35,1.15 3.14,1.65 4.9,1.37l10.45,-1.65c2.98,-0.46 5.11,-2.95 5.11,-5.93v-4.11c0,-4.53 -3.73,-8.23 -8.31,-8.23h-24.63003c-1.29,3.01 -2.39,6.12 -3.24,9.29h12.02003c0.88,0 1.57,0.68 1.57,1.55z"></path><path id="路径 32" fill-rule="evenodd" style="fill:#FFECE9" opacity="1" d="M38.8475,56.9734c0,0.87 -0.7,1.55 -1.57,1.55c-0.88,0 -1.57,-0.68 -1.57,-1.55c0,-1.12 -0.91,-2.02 -2.04,-2.02h-9.57c-0.88,0 -1.57,-0.69 -1.57,-1.56c0,-0.87 0.69,-1.55 1.57,-1.55h9.57c2.85,0 5.18,2.3 5.18,5.13z"></path><path id="路径 33" fill-rule="evenodd" style="fill:#1C1D21" opacity="1" d="M36.1476,70.2788c-0.88,0 -1.57,-0.69 -1.57,-1.56v-5.97c0,-0.87 0.69,-1.55 1.57,-1.55c0.88,0 1.57,0.68 1.57,1.55v5.97c0,0.87 -0.69,1.56 -1.57,1.56zM29.1176,71.3588c-0.88,0 -1.57,-0.68 -1.57,-1.55v-5.81c0,-0.87 0.69,-1.56 1.57,-1.56c0.88,0 1.57,0.69 1.57,1.56v5.81c0,0.87 -0.69,1.55 -1.57,1.55z"></path><path id="路径 34" fill-rule="evenodd" style="fill:#FFECE9" opacity="1" d="M20.6452,53.3934c0,0.87 -0.69,1.56 -1.57,1.56h-1.19c-0.88,0 -1.57,-0.69 -1.57,-1.56c0,-0.87 0.69,-1.55 1.57,-1.55h1.19c0.88,0 1.57,0.68 1.57,1.55z"></path><path id="路径 35" fill-rule="evenodd" style="fill:#FFFFFF" opacity="1" d="M94.7562,110.867h26.6398c1.72,0 3.13,1.37 3.13,3.11v24.68c-9.35,6.96 -20.36,11.84 -32.3098,13.98c-0.38,-0.49 -0.6,-1.12 -0.6,-1.8v-36.86c0,-1.71 1.41,-3.11 3.14,-3.11z"></path><path id="路径 36" fill-rule="evenodd" style="fill:#1C1D21" opacity="1" d="M92.2074,154.192c-0.5,0 -0.97,-0.25 -1.28,-0.65c-0.6,-0.81 -0.88,-1.74 -0.88,-2.74v-36.83c0,-2.58 2.1,-4.66 4.71,-4.66h26.6296c2.61,0 4.71,2.08 4.71,4.66v24.68c0,0.5 -0.22,0.96 -0.63,1.24c-9.69,7.21 -21.08,12.13 -32.9696,14.27c-0.1,0 -0.19,0.03 -0.29,0.03zM93.1874,150.902c10.6996,-2.12 20.9596,-6.59 29.7696,-13v-23.9c0,-0.87 -0.69,-1.55 -1.57,-1.55h-26.6296v-0.03c-0.88,0 -1.57,0.68 -1.57,1.55z"></path><path id="路径 37" fill-rule="evenodd" style="fill:#FFC5B3" opacity="1" d="M130.71,117.985c0,2.67 -2.17,4.82 -4.86,4.82h-4.87c-1.28,0 -2.35,-1.03 -2.35,-2.33v-7.31c0,-1.27 1.04,-2.33 2.35,-2.33h4.87c2.69,0 4.86,2.14 4.86,4.82z"></path><path id="路径 38" fill-rule="evenodd" style="fill:#1C1D21" opacity="1" d="M125.852,124.351h-4.87c-2.16,0 -3.92,-1.74 -3.92,-3.88v-7.3c0,-2.15 1.76,-3.89 3.92,-3.89h4.87c3.54,0 6.43,2.86 6.43,6.37v2.33c0,3.51 -2.89,6.37 -6.43,6.37zM120.202,120.501c0,0.44 0.34,0.78 0.78,0.78h4.87c1.81,0 3.29,-1.46 3.29,-3.27v-2.33c0,-1.8 -1.48,-3.26 -3.29,-3.26h-4.87c-0.44,0 -0.78,0.34 -0.78,0.78z"></path><path id="路径 39" fill-rule="evenodd" style="fill:#AAADAD" opacity="1" d="M125.849,122.804c2.7,0 4.86,-2.15 4.86,-4.82v15.54c-1.98,1.8 -4.02,3.51 -6.18,5.13v-15.85z"></path><path id="路径 40" fill-rule="evenodd" style="fill:#1C1D21" opacity="1" d="M124.524,140.21c-0.25,0 -0.47,-0.07 -0.69,-0.16c-0.53,-0.25 -0.87,-0.81 -0.87,-1.4v-15.85c0,-0.87 0.69,-1.55 1.56,-1.55h1.32c1.82,0 3.3,-1.46 3.3,-3.27c0,-0.87 0.69,-1.55 1.57,-1.55c0.87,0 1.56,0.68 1.56,1.55v15.54c0,0.44 -0.18,0.84 -0.5,1.15c-2.04,1.87 -4.14,3.61 -6.3,5.23c-0.29,0.21 -0.63,0.31 -0.95,0.31zM129.144,132.84v-9.39c-0.91,0.53 -1.95,0.87 -3.05,0.91v11.09c1.04,-0.84 2.04,-1.71 3.05,-2.61zM112.134,119.54h-12.61c-0.88,0 -1.57,-0.69 -1.57,-1.56c0,-0.87 0.69,-1.55 1.57,-1.55h12.61c0.88,0 1.57,0.68 1.57,1.55c0,0.87 -0.69,1.56 -1.57,1.56zM112.264,126.59h-12.71c-0.88,0 -1.57,-0.68 -1.57,-1.55c0,-0.87 0.69,-1.55 1.57,-1.55h12.71c0.88,0 1.57,0.68 1.57,1.55c0,0.87 -0.73,1.55 -1.57,1.55zM112.264,133.65h-12.71c-0.88,0 -1.57,-0.68 -1.57,-1.56c0,-0.87 0.69,-1.55 1.57,-1.55h12.71c0.88,0 1.57,0.68 1.57,1.55c0,0.88 -0.73,1.56 -1.57,1.56zM112.264,140.7h-12.71c-0.88,0 -1.57,-0.68 -1.57,-1.55c0,-0.87 0.69,-1.55 1.57,-1.55h12.71c0.88,0 1.57,0.68 1.57,1.55c0,0.87 -0.73,1.55 -1.57,1.55z"></path></g></g><g opacity="1" transform="translate(180 8)  rotate(0)"><path id="文本 1"  style="fill:#FFFFFF" opacity="1" d="M10.23 23.2L13.77 23.2L18.29 8.38L15.29 8.38L13.37 15.6C12.91 17.24 12.59 18.72 12.11 20.38L12.01 20.38C11.55 18.72 11.23 17.24 10.77 15.6L8.83 8.38L5.71 8.38L10.23 23.2ZM5.51 52.16L8.51 52.16L9.55 48.36L14.33 48.36L15.37 52.16L18.49 52.16L13.75 37.34L10.25 37.34L5.51 52.16ZM10.19 46.06L10.63 44.44C11.07 42.9 11.49 41.22 11.89 39.6L11.97 39.6C12.41 41.18 12.81 42.9 13.27 44.44L13.71 46.06L10.19 46.06ZM10.51 81.12L13.47 81.12L13.47 68.78L17.65 68.78L17.65 66.3L6.35 66.3L6.35 68.78L10.51 68.78L10.51 81.12ZM12.18 93C10.06 96.12 6.26 98.58 2.56 100.02C3.24 100.64 3.94 101.54 4.32 102.22C5.22 101.8 6.14 101.32 7.02 100.78L7.02 101.76L17.04 101.76L17.04 100.42C18 101 18.98 101.48 19.96 101.94C20.28 101.18 20.98 100.28 21.6 99.72C18.88 98.74 16.22 97.38 13.64 95L14.32 94.08L12.18 93ZM8.88 99.54C10.06 98.68 11.18 97.74 12.18 96.7C13.36 97.84 14.52 98.76 15.66 99.54L8.88 99.54ZM5.7 103.48L5.7 111.84L8.16 111.84L8.16 110.96L16.1 110.96L16.1 111.76L18.68 111.76L18.68 103.48L5.7 103.48ZM8.16 108.74L8.16 105.58L16.1 105.58L16.1 108.74L8.16 108.74ZM11.28 122.94L11.28 133.6L13.56 133.6L13.56 125.02L18.18 125.02L18.18 133.6L20.56 133.6L20.56 122.94L11.28 122.94ZM5.68 122.24L5.68 125.12L3.1 125.12L3.1 127.34L5.68 127.34L5.68 128.62L5.66 129.76L2.7 129.76L2.7 132.04L5.52 132.04C5.26 134.52 4.52 137.18 2.5 138.98C3.06 139.36 3.86 140.16 4.2 140.64C5.86 139.04 6.8 136.98 7.32 134.88C8.08 135.88 8.9 137.04 9.36 137.82L11 136.1C10.5 135.52 8.54 133.16 7.76 132.4L7.8 132.04L10.62 132.04L10.62 129.76L7.94 129.76L7.96 128.62L7.96 127.34L10.38 127.34L10.38 125.12L7.96 125.12L7.96 122.24L5.68 122.24ZM14.78 126.26L14.78 129.4C14.78 132.48 14.2 136.44 9.08 139.1C9.54 139.44 10.32 140.34 10.6 140.8C12.86 139.6 14.36 138.04 15.32 136.36L15.32 138.16C15.32 139.9 15.96 140.38 17.54 140.38L18.92 140.38C20.9 140.38 21.26 139.48 21.46 136.42C20.92 136.3 20.12 135.96 19.6 135.56C19.52 138.02 19.4 138.56 18.9 138.56L17.98 138.56C17.6 138.56 17.42 138.4 17.42 137.9L17.42 132.98L16.62 132.98C16.9 131.74 17 130.52 17 129.44L17 126.26L14.78 126.26Z"></path><path  id="文本 1" style="fill:#000000; opacity:1;" d="M9.59677,7.38l2.13603,7.9499c0.09367,0.33393 0.20597,0.75483 0.3369,1.2627c0.1322,-0.511 0.2435,-0.92753 0.3339,-1.2496l2.1176,-7.963h5.1193l-5.13,16.82h-5.02098l-5.12999,-16.82zM12.5835,18.6285c-0.1439,0.5615 -0.2943,1.1301 -0.4648,1.7214c-0.0029,0.01 -0.0058,0.0201 -0.0087,0.0301h-0.1c-0.0029,-0.0105 -0.0058,-0.021 -0.0087,-0.0314c-0.1637,-0.5922 -0.3097,-1.1617 -0.4509,-1.7239c-0.2516,-1.0019 -0.4876,-1.9809 -0.7804,-3.0247l-1.94,-7.22h-3.12l0.30499,1l4.21501,13.82h3.54l4.215,-13.82l0.305,-1h-3l-1.92,7.22c-0.2932,1.0452 -0.5294,2.0253 -0.7865,3.0285zM14.4801,36.34l5.3796,16.82h-5.2528l-1.04,-3.8h-3.2538l-1.04001,3.8h-5.13283l5.37967,-16.82zM14.33,48.36l1.04,3.8h3.12l-0.3198,-1l-4.4202,-13.82h-3.5l-4.74,14.82h3l1.04,-3.8zM10.63,44.44c0.2738,-0.9583 0.5399,-1.9709 0.7982,-2.9895c0.1547,-0.6101 0.3067,-1.2224 0.4559,-1.8266c0.002,-0.0079 0.0039,-0.0159 0.0059,-0.0239h0.08c0.002,0.0071 0.0039,0.0141 0.0059,0.0212c0.1651,0.5939 0.3247,1.2074 0.4839,1.8234c0.2629,1.0168 0.525,2.0407 0.8102,2.9954l0.1684,0.62l0.2716,1h-3.52l0.2716,-1zM11.4978,45.06h0.9044l-0.094,-0.3459c-0.09873,-0.3312 -0.21933,-0.76083 -0.3618,-1.2889c-0.12833,0.48067 -0.24547,0.9063 -0.3514,1.2769zM5.35,69.78v-4.48h13.3v4.48h-4.18v12.34h-4.96v-12.34zM10.51,69.78v11.34h2.96v-12.34h4.18v-2.48h-11.3v2.48h4.16zM14.9885,94.858c0.96513,0.81807 1.9904,1.5378 3.0758,2.1592c1.14993,0.65833 2.4415,1.24567 3.8747,1.762l1.5687,0.5652l-1.2374,1.1176c-0.27513,0.24867 -0.54273,0.54633 -0.8028,0.893c-0.26773,0.35733 -0.46303,0.68167 -0.5859,0.973l-0.404,0.96l-0.7976,-0.375v9.847h-4.58v-0.8h-5.94v0.88h-4.46v-9.694l-0.79948,0.373l-0.45346,-0.811c-0.16937,-0.30333 -0.39533,-0.633 -0.67789,-0.989c-0.29684,-0.374 -0.59115,-0.694 -0.88292,-0.96l-1.19129,-1.0862l1.50235,-0.5847c1.89174,-0.73627 3.62115,-1.6579 5.18822,-2.7649c1.70174,-1.20213 3.0242,-2.4972 3.96737,-3.8852l0.4936,-0.7265l3.9822,2.0098zM12.18,93c-1.9277,2.837 -5.24437,5.1282 -8.61189,6.6032c-0.33598,0.1471 -0.67245,0.2862 -1.00811,0.4168c0.25199,0.23 0.50673,0.498 0.74691,0.779c0.40795,0.478 0.77391,0.993 1.01309,1.421c0.56373,-0.263 1.13532,-0.55 1.7,-0.86c0.33683,-0.185 0.67121,-0.378 1,-0.58v0.98h10.02v-1.34c0.067,0.04 0.1341,0.08 0.2013,0.12c0.265,0.156 0.5313,0.305 0.7987,0.448c0.3378,0.181 0.6771,0.353 1.0172,0.52c0.3005,0.147 0.6017,0.291 0.9028,0.432c0.0386,-0.092 0.0826,-0.185 0.1314,-0.28c0.1964,-0.382 0.4691,-0.782 0.7656,-1.148c0.2413,-0.297 0.4984,-0.5711 0.743,-0.792c-0.3448,-0.1242 -0.6886,-0.2546 -1.0314,-0.3923c-2.3617,-0.9489 -4.6756,-2.2494 -6.9286,-4.3277l0.077,-0.1042l0.603,-0.8158l-0.9057,-0.4571zM18.04,102.48h0.7321c-0.25593,-0.12533 -0.49997,-0.24733 -0.7321,-0.366zM16.1,111.76h2.58v-8.28h-12.98v1v7.36h2.46v-0.88h7.94zM8.88,99.54c0.44152,-0.3218 0.87464,-0.6548 1.2962,-1c0.6804,-0.5572 1.3307,-1.1463 1.9378,-1.7716l0.066,-0.0684l0.095,0.0914c0.6793,0.6501 1.352,1.2279 2.018,1.7486c0.4588,0.3587 0.9145,0.6904 1.367,1h-5.1306zM11.712,98.54h1.0043c-0.17327,-0.14853 -0.34483,-0.2993 -0.5147,-0.4523c-0.15933,0.1514 -0.32253,0.30217 -0.4896,0.4523zM8.16,105.58h7.94v3.16h-7.94v-1zM9.16,107.74h5.94v-1.16h-5.94zM8.96,124.12h1.32v-2.18h11.28v12.66h-1.5679l0.2176,0.167c0.18753,0.14467 0.42887,0.28333 0.724,0.416c0.27727,0.12533 0.525,0.21233 0.7432,0.261l0.8369,0.186l-0.0559,0.855c-0.05613,0.85867 -0.12833,1.53267 -0.2166,2.022c-0.11593,0.64267 -0.29097,1.16033 -0.5251,1.553c-0.29093,0.48733 -0.69277,0.83867 -1.2055,1.054c-0.42333,0.17733 -0.95357,0.266 -1.5907,0.266h-1.38c-1.07687,0 -1.8732,-0.24333 -2.389,-0.73c-0.3662,-0.346 -0.61137,-0.826 -0.7355,-1.44c-0.933,0.95933 -2.0485,1.78367 -3.3465,2.473l-0.8329,0.442l-0.4903,-0.805c-0.11509,-0.18933 -0.31086,-0.44 -0.5873,-0.752c-0.28288,-0.32 -0.50718,-0.54133 -0.67289,-0.664l-1.28888,-0.952l1.27796,-0.664c-0.21144,-0.356 -0.47637,-0.763 -0.79479,-1.221c-0.66344,1.71133 -1.59208,3.14233 -2.78592,4.293l-0.8376,0.807l-0.67241,-0.949c-0.14076,-0.19867 -0.35838,-0.443 -0.65285,-0.733c-0.30547,-0.30067 -0.56968,-0.52667 -0.79263,-0.678l-1.06171,-0.72l0.95794,-0.854c1.29442,-1.15333 2.14075,-2.88433 2.53899,-5.193h-2.67371v-4.28h2.97752l0.00248,-0.14v-0.28h-2.58v-4.22h2.58v-2.88h4.28zM8.96,125.12h-1v-2.88h-2.28v2.88h-2.58v1v1.22h2.58v1.28l-0.02,1.14h-2.96v2.28h2.82c-0.0347,0.331 -0.07794,0.665 -0.13164,1c-0.29765,1.856 -0.91641,3.735 -2.18017,5.216c-0.21658,0.254 -0.4521,0.496 -0.70819,0.724c0.2345,0.159 0.51107,0.392 0.77834,0.644c0.09015,0.085 0.17923,0.172 0.26529,0.26c0.26809,0.272 0.50676,0.545 0.65637,0.756c0.2468,-0.238 0.47768,-0.486 0.69364,-0.743c0.95769,-1.139 1.62178,-2.451 2.07826,-3.815c0.13293,-0.397 0.24826,-0.799 0.3481,-1.202c0.25093,0.33 0.5084,0.678 0.75729,1.023c0.25814,0.359 0.50707,0.715 0.7299,1.048c0.20846,0.311 0.39409,0.601 0.54307,0.853c0.00326,0.005 0.00651,0.011 0.00974,0.016l0.0506,-0.053l0.6648,-0.697l0.9246,-0.97c-0.3975,-0.461 -1.71776,-2.047 -2.63427,-3.06c-0.21711,-0.24 -0.41156,-0.448 -0.56573,-0.601c-0.01365,-0.013 -0.02699,-0.026 -0.04,-0.039l0.04,-0.36h2.82v-2.28h-2.68l0.01754,-1l0.00246,-0.14v-1.28h1h0.42h1v-2.22zM10.28,128.34h-1.32012l-0.00003,0.298l-0.00215,0.122h1.3223zM11.28,128.76v4.84h2.28v-8.58h4.62v8.58h2.38v-10.66h-9.28zM18.6307,134.6h-0.2107v2.96h0.049c0.05607,-0.38333 0.0999,-1.061 0.1315,-2.033zM17.42,134.6v-1.62h-0.8c0.0758,-0.336 0.1384,-0.67 0.1894,-1c0.1374,-0.89 0.1906,-1.752 0.1906,-2.54v-3.18h-1h-0.22h-1v1v2.14c0,0.857 -0.0449,1.782 -0.22,2.728c-0.1514,0.818 -0.4001,1.653 -0.8014,2.472c-0.6913,1.412 -1.8354,2.781 -3.7145,3.952c-0.0118,0.007 -0.0237,0.014 -0.0356,0.022c-0.29162,0.18 -0.60076,0.356 -0.9285,0.526c0.07459,0.055 0.15759,0.125 0.24552,0.205c0.16182,0.148 0.3403,0.331 0.51364,0.523c0.31334,0.348 0.60984,0.724 0.76084,0.972c1.5911,-0.845 2.8055,-1.868 3.72,-2.986c0.3844,-0.47 0.7159,-0.957 1,-1.454v1.8v0.004c0.0009,1.737 0.6412,2.216 2.22,2.216h1.38c1.98,0 2.34,-0.9 2.54,-3.96c-0.2545,-0.057 -0.5669,-0.162 -0.8804,-0.3c-0.3516,-0.154 -0.7047,-0.349 -0.9796,-0.56c-0.0146,0.448 -0.0305,0.833 -0.0498,1.162c-0.0866,1.477 -0.2413,1.838 -0.6502,1.838h-0.92c-0.38,0 -0.56,-0.16 -0.56,-0.66zM11.9161,135.631c0.2672,-0.32867 0.504,-0.67233 0.7104,-1.031h-1.5878c0.0808,0.09533 0.1632,0.19267 0.2472,0.292c0.24747,0.29267 0.40463,0.47767 0.4715,0.555zM10.28,133.711v-0.671h-0.58148c0.17822,0.204 0.37205,0.42767 0.58148,0.671z"></path></g></g></g></g><defs><rect id="path_0" x="0" y="0" width="219.8341827392578" height="175.99000549316406" /></defs></svg>