<?xml version="1.0" standalone="no"?><!DOCTYPE svg PUBLIC "-//W3C//DTD SVG 1.1//EN" "http://www.w3.org/Graphics/SVG/1.1/DTD/svg11.dtd"><svg class="icon" width="64px" height="64.00px" viewBox="0 0 1024 1024" version="1.1" xmlns="http://www.w3.org/2000/svg"><path d="M716.8 0H307.2C137.5488 0 0 137.5488 0 307.2v409.6c0 169.6512 137.5488 307.2 307.2 307.2h409.6c169.6512 0 307.2-137.5488 307.2-307.2V307.2c0-169.6512-137.5488-307.2-307.2-307.2z" fill="#FFEBEB" /><path d="M256 256a25.6 25.6 0 0 0-25.6 25.6v102.4a25.6 25.6 0 0 0 25.6 25.6h512a25.6 25.6 0 0 0 25.6-25.6v-102.4a25.6 25.6 0 0 0-25.6-25.6H256z m51.2 51.2h409.6a25.6 25.6 0 0 1 0 51.2H307.2a25.6 25.6 0 0 1 0-51.2z" fill="#FF8E91" /><path d="M331.2896 332.8c-13.312 0-24.0896 11.8528-24.0896 26.4704V739.84c0 19.6864 18.8416 32.4608 34.8672 23.68l52.5824-28.8768a22.144 22.144 0 0 1 18.3808-1.4336l91.3408 33.4336c4.9664 1.792 10.2912 1.792 15.2576 0l91.3408-33.4336a22.144 22.144 0 0 1 18.3808 1.4336l52.5824 28.8768c16.0256 8.7808 34.8672-3.9936 34.8672-23.68V359.2704c0-14.6176-10.7776-26.4704-24.0896-26.4704H331.264z m91.1104 153.6a12.8 12.8 0 0 1 0-25.6h179.2a12.8 12.8 0 0 1 0 25.6h-179.2z m-12.8 64a12.8 12.8 0 0 1 12.8-12.8h76.8a12.8 12.8 0 0 1 0 25.6h-76.8a12.8 12.8 0 0 1-12.8-12.8z m12.8 89.6a12.8 12.8 0 0 1 0-25.6h128a12.8 12.8 0 0 1 0 25.6h-128z" fill="#FE5570" /><path d="M358.4 358.4m12.8 0l230.4 0q12.8 0 12.8 12.8l0 0q0 12.8-12.8 12.8l-230.4 0q-12.8 0-12.8-12.8l0 0q0-12.8 12.8-12.8Z" fill="#FFFFFF" /><path d="M640 358.4m12.8 0l0 0q12.8 0 12.8 12.8l0 0q0 12.8-12.8 12.8l0 0q-12.8 0-12.8-12.8l0 0q0-12.8 12.8-12.8Z" fill="#FFFFFF" /></svg>