<svg xmlns="http://www.w3.org/2000/svg" xmlns:xlink="http://www.w3.org/1999/xlink" width="144.49192810058594" height="179.07752990722656" viewBox="0 0 144.49192810058594 179.07752990722656" fill="none"><g opacity="1"  transform="translate(0 0)  rotate(0)"><mask id="bg-mask-0" fill="white"><use transform="translate(0 0)  rotate(0)" xlink:href="#path_0"></use></mask><g mask="url(#bg-mask-0)" ><g opacity="1"  transform="translate(0 3.0875205993652344)  rotate(0)"><path id="矩形 2" fill-rule="evenodd" style="fill:#FF9693" opacity="1" d="M15,175.99c-8.28,0 -15,-6.72 -15,-15v-145.99c0,-8.28 6.72,-15 15,-15h100.04c8.28,0 15,6.72 15,15v145.99c0,8.28 -6.72,15 -15,15z"></path></g><g opacity="1"  transform="translate(5 28)  rotate(0)"><mask id="bg-mask-1" fill="white"><use transform="translate(0 0)  rotate(0)" xlink:href="#path_1"></use></mask><g mask="url(#bg-mask-1)" ><path id="路径 1" fill-rule="evenodd" style="fill:#B3CCFF" opacity="1" d="M10.0362 95.5368L13.0662 95.5368L13.0662 89.3668L10.0362 89.3668L10.0362 95.5368Z"></path><path id="路径 2" fill-rule="evenodd" style="fill:#A8C4FC" opacity="1" d="M17.6025 90.6038L14.7025 84.4238L11.8025 78.2538L8.90251 84.4238L6.00251 90.6038L11.8025 90.6038L17.6025 90.6038Z"></path><path id="路径 3" fill-rule="evenodd" style="fill:#B9D1FF" opacity="1" d="M16.7737 87.5179L14.2537 82.2679L11.7337 77.0179L9.21366 82.2679L6.69366 87.5179L11.7337 87.5179L16.7737 87.5179Z"></path><path id="路径 4" fill-rule="evenodd" style="fill:#CADDFD" opacity="1" d="M16.0826 83.8084L13.9426 79.1784L11.8026 74.5484L9.65257 79.1784L7.51257 83.8084L11.8026 83.8084L16.0826 83.8084Z"></path><path id="路径 5" fill-rule="evenodd" style="fill:#CCDDFF" opacity="1" d="M21.4375 90.4772L35.2675 98.6172L35.2675 47.0173L21.4375 39.6073L21.4375 90.4772Z"></path><path id="路径 6" fill-rule="evenodd" style="fill:#ACC6FF" opacity="1" d="M35.2682 98.6146L81.0782 90.7046L80.8582 39.8246L35.2682 47.0146L35.2682 98.6146Z"></path><path id="路径 7" fill-rule="evenodd" style="fill:#DAE6FF" opacity="1" d="M58.1715 57.0715C55.5515 57.0715 53.4215 60.0315 53.4215 63.6915C53.4215 66.0415 54.3015 68.1015 55.6315 69.2715L55.6315 80.3715L60.9615 78.8315L60.9615 69.0415C62.1515 67.8415 62.9315 65.8915 62.9315 63.6815C62.9315 60.0315 60.8015 57.0715 58.1715 57.0715L58.1715 57.0715Z"></path><path id="路径 8" fill-rule="evenodd" style="fill:#E4EDFF" opacity="1" d="M35.2675 46.9869L80.8576 39.827L65.0076 32.8569L21.4375 39.6069L35.2675 46.9869Z"></path><path id="路径 9" fill-rule="evenodd" style="fill:#A3C2FF" opacity="1" d="M34.142 36.9598C34.142 39.1398 33.942 41.4998 33.972 43.7198L42.292 43.7198C42.262 36.4698 42.082 29.9798 43.772 25.0198C45.242 20.6798 48.602 19.4898 51.022 19.4898C53.722 19.4898 57.112 21.6198 58.582 26.5498C59.542 29.7598 59.652 33.9598 59.612 38.5498L67.552 38.5498C67.552 38.0198 67.542 37.4398 67.542 36.9598C67.542 22.3498 61.322 10.4998 51.112 10.4998C40.902 10.4998 34.142 22.3498 34.142 36.9598Z"></path><path id="路径 10" fill-rule="evenodd" style="fill:#CCDDFF" opacity="1" d="M35.6086 35.7498L35.6086 36.4098C35.6086 38.6898 35.6386 41.3398 35.8986 43.7198L43.5786 43.7198C43.5386 37.2198 43.4686 31.4098 45.0686 26.9198C46.5386 22.7598 49.8986 21.6098 52.3186 21.6098C55.0186 21.6098 58.4086 23.6598 59.8786 28.3898C60.7386 31.1498 60.9186 34.6698 60.9186 38.5498L68.8486 38.5498C68.8486 38.0198 68.8386 37.4398 68.8386 36.9598C68.8386 22.3498 62.6186 10.4998 52.4086 10.4998C42.1986 10.4998 35.6086 21.1298 35.6086 35.7498Z"></path><path id="路径 11" fill-rule="evenodd" style="fill:#DFE9F8" opacity="1" d="M94.8991 93.5553C101.669 93.4053 107.129 91.4553 107.099 89.1953C107.069 86.9353 101.549 85.2153 94.7791 85.3653C88.0191 85.5053 82.5491 87.4653 82.5791 89.7153C82.6091 91.9753 88.1291 93.6953 94.8991 93.5553Z"></path><path id="路径 12" fill-rule="evenodd" style="fill:#FFD8C9" opacity="1" d="M94.8108 50.3415L94.2008 52.9415L94.8108 57.2815L94.5508 61.1515L98.0908 61.9915L98.3608 59.5515C99.2408 58.0315 99.8608 56.9515 100.211 56.3115C100.731 55.3315 99.6408 51.4115 98.3608 50.3415C97.5008 49.6315 96.3208 49.6315 94.8108 50.3415Z"></path><path id="路径 13" fill-rule="evenodd" style="fill:#353535" opacity="1" d="M94.5411 53.5846C94.5411 52.5846 95.3111 51.6746 96.8511 50.8446L99.3711 50.8446C99.9311 50.8446 100.211 50.5446 100.211 49.9446C100.211 49.0446 97.2511 48.1646 95.6411 48.1646C94.0311 48.1646 92.6811 50.7246 92.3911 53.1846C92.1911 54.8146 93.0011 56.3246 94.8111 57.7046C94.6311 55.9646 94.5411 54.5846 94.5411 53.5846Z"></path><path id="路径 14" fill-rule="evenodd" style="fill:#FFFFFF" opacity="1" d="M105.064,64.5847v0v0zM105.064,64.5847l-1.38,1.9501l0.41,1.47c-1.75,-0.33 -2.87,-0.49 -3.37,-0.49c-0.5,0 -0.8504,0.77 -1.0504,2.3c-0.33,-0.2301 -0.68,-0.6201 -1.07,-1.16c-0.58,-0.8 -2.1,0 -2.92,0c-0.82,0 -3.32,5.66 -3.32,6.63c0,0.65 -0.35,2.48 -1.04,5.4899h-3.38v-11.3099c0,-1.0201 0.88,-6.04 1.72,-7.74c0.55,-1.14 2.27,-1.91 5.15,-2.3c-0.41,0.37 -0.41,0.8499 0,1.4399c0.62,0.8801 3.55,0 3.79,-0.8899c0.25,-0.8801 0.46,-0.69 2.1204,0c1.12,0.4599 2.56,2 4.34,4.6099z"></path><path id="路径 15" fill-rule="evenodd" style="fill:#598CFF" opacity="1" d="M94.8037 64.0539L95.7937 70.9739L103.244 70.0839L101.524 64.0539L94.8037 64.0539Z"></path><path id="路径 16" fill-rule="evenodd" style="fill:#598CFF" opacity="1" d="M87.8502 78.3497C88.0802 81.5297 88.4602 83.7397 89.0002 84.9697C89.8102 86.8297 90.7702 87.6997 92.8402 87.6997C94.9102 87.6997 96.9202 88.3397 98.2802 85.3497C99.1802 83.3697 99.6002 82.4997 99.5502 82.7697L100.55 89.8797L101.07 90.7197L104.96 88.4297L104.29 80.4397C104.29 80.4397 103.67 76.6697 101.07 70.3397C100.89 69.8997 100.38 69.4197 99.5502 68.8897C97.8602 68.1297 96.7002 68.1297 96.0802 68.8897C95.4602 69.6497 95.1602 70.3797 95.1602 71.0897C93.6902 75.1097 92.5402 77.5297 91.7102 78.3597L91.7102 78.3497C90.8802 79.1797 89.5902 79.1797 87.8502 78.3497Z"></path><path id="路径 17" fill-rule="evenodd" style="fill:#598CFF" opacity="1" d="M107.526 85.0869C107.526 85.0869 106.946 76.6469 105.476 70.0769C104.006 63.5169 104.556 67.6369 103.596 67.5169C102.626 67.3969 98.1061 67.4169 100.146 69.3769C101.506 70.6869 103.106 77.0369 104.956 88.4369L107.526 86.8569L107.526 85.0869Z"></path><path id="路径 18" fill-rule="evenodd" style="fill:#FFD8C9" opacity="1" d="M91.174 72.6397L90.764 72.6397C92.004 76.3597 93.354 78.6497 94.804 79.5197C96.984 80.8197 100.464 78.9397 101.114 78.1597C101.554 77.6397 102.734 76.6597 104.664 75.2097C106.144 75.6697 106.724 75.0697 106.394 73.4197C106.064 71.7697 105.624 71.1297 105.064 71.4997C105.624 71.3697 104.874 72.0097 102.834 73.4197C100.764 74.8297 98.564 75.9297 96.284 76.6897L93.734 70.9397L91.174 72.6397Z"></path><path id="路径 19" fill-rule="evenodd" style="fill:#FFE1D5" opacity="1" d="M104.663 69.9145L100.323 73.3445L96.6533 76.1645L97.3733 77.1844L102.353 75.2045L104.663 73.3445L106.393 70.9445L105.933 68.1145L104.663 65.2845L103.273 66.6345L104.663 69.9145Z"></path><path id="路径 20" fill-rule="evenodd" style="fill:#36608E" opacity="1" d="M101.518,90.7148l1.15,-1.13l1.81,-1.15l0.59,1.15c2.1,2.52 3.15,4.04 3.15,4.58c0,0.82 -3.15,0 -3.53,0c-0.26,0 -1.58,-1.02 -3.96,-3.06zM111.288,90.7148l-1,1.18h-2.07l-2.41,-1.8701l-0.85,-1.5899l2.3,-1.61l3.03,3.1999z"></path><path id="路径 21" fill-rule="evenodd" style="fill:#FBEA34" opacity="1" d="M101.549 50.3115C101.939 50.0415 102.029 49.4815 101.769 48.9315C101.509 48.3815 101.079 48.2015 100.689 48.4815L99.9688 48.9915C98.4288 46.6515 95.9088 45.7515 93.9388 47.1415C91.9788 48.5215 91.3588 51.6515 92.2388 54.4515L91.5188 54.9615C91.1288 55.2315 91.0388 55.7915 91.2988 56.3415C91.5588 56.8915 91.9888 57.0715 92.3788 56.7915L100.829 50.8215L100.829 50.8215L101.549 50.3115Z"></path></g></g><g opacity="1" transform="translate(24 136)  rotate(0)"><path id="文本 1"  style="fill:#FFFFFF" opacity="1" d="M7.52 19.64C7.22 20.84 6.66 22.32 6.04 23.24L7.86 24.38C8.5 23.26 9.02 21.64 9.36 20.4L7.52 19.64ZM10.46 6.36C9.78 7.62 8.62 9.18 7.08 10.38C7.38 10.56 7.76 10.9 8.08 11.24L8.08 12.9L16.04 12.9L16.04 13.94L8.54 13.94L8.54 15.62L16.04 15.62L16.04 16.72L8.04 16.72L8.04 18.5L12.02 18.5L11.08 19.28C12.04 20.1 13.32 21.24 13.92 21.96L15.42 20.58C14.9 20.02 13.9 19.18 13.04 18.5L18.26 18.5L18.26 11.14L15.32 11.14C16 10.34 16.68 9.44 17.16 8.64L15.74 7.7L15.42 7.8L12.02 7.8L12.64 6.76L10.46 6.36ZM9.36 11.14C9.88 10.62 10.36 10.08 10.8 9.54L14.14 9.54C13.76 10.12 13.3 10.7 12.9 11.14L9.36 11.14ZM15.74 20.16C16.06 20.78 16.42 21.5 16.74 22.2C16.16 22.06 15.4 21.76 15.04 21.48C14.98 22.6 14.86 22.76 14.34 22.76C13.96 22.76 12.7 22.76 12.42 22.76C11.74 22.76 11.64 22.68 11.64 22.22L11.64 19.82L9.54 19.82L9.54 22.24C9.54 24.1 10 24.7 12.14 24.7C12.56 24.7 14.14 24.7 14.58 24.7C16.02 24.7 16.64 24.26 16.88 22.54C17.14 23.14 17.36 23.72 17.48 24.18L19.44 23.4C19.08 22.32 18.3 20.7 17.58 19.5L15.74 20.16ZM1.42 7.08L1.42 25L3.52 25L3.52 9.2L5.2 9.2C4.88 10.56 4.44 12.32 4.04 13.6C5.18 14.94 5.44 16.18 5.44 17.1C5.44 17.66 5.34 18.06 5.1 18.24C4.96 18.36 4.76 18.42 4.54 18.42C4.3 18.42 4.04 18.42 3.68 18.4C4 18.96 4.18 19.86 4.2 20.44C4.66 20.46 5.14 20.44 5.5 20.4C5.94 20.32 6.32 20.2 6.64 19.98C7.28 19.52 7.54 18.68 7.54 17.4C7.54 16.24 7.3 14.88 6.06 13.34C6.64 11.78 7.3 9.6 7.82 7.88L6.26 6.98L5.92 7.08L1.42 7.08ZM28.7 23.96C29.4 23.62 30.4 23.4 36.54 22.42C36.76 23.24 36.94 24 37.06 24.64L39.52 23.64C39.02 21.24 37.64 17.44 36.38 14.5L34.16 15.3C34.76 16.82 35.38 18.58 35.9 20.24L31.48 20.86C32.82 16.9 34.14 12.02 34.96 7.26L32.38 6.78C31.6 11.86 30 17.48 29.42 18.98C28.86 20.56 28.5 21.4 27.88 21.62C28.16 22.3 28.58 23.5 28.7 23.96ZM28.34 6.38C26.42 7.12 23.54 7.74 20.94 8.1C21.18 8.62 21.48 9.42 21.56 9.96C22.42 9.86 23.32 9.76 24.24 9.62L24.24 11.84L21.02 11.84L21.02 14.06L23.84 14.06C23 16.02 21.68 18.18 20.38 19.46C20.76 20.08 21.34 21.1 21.56 21.8C22.52 20.72 23.44 19.14 24.24 17.46L24.24 24.98L26.56 24.98L26.56 16.64C27.16 17.52 27.8 18.48 28.12 19.1L29.5 17.12C29.08 16.62 27.16 14.68 26.56 14.18L26.56 14.06L29.54 14.06L29.54 11.84L26.56 11.84L26.56 9.2C27.66 8.96 28.7 8.7 29.6 8.38L28.34 6.38ZM50.24 15.12L55.74 15.12L55.74 16L50.24 16L50.24 15.12ZM50.24 12.7L55.74 12.7L55.74 13.56L50.24 13.56L50.24 12.7ZM54.4 6.2L54.4 7.58L52.08 7.58L52.08 6.2L49.8 6.2L49.8 7.58L47.46 7.58L47.46 9.54L49.8 9.54L49.8 10.68L52.08 10.68L52.08 9.54L54.4 9.54L54.4 10.68L56.72 10.68L56.72 9.54L58.98 9.54L58.98 7.58L56.72 7.58L56.72 6.2L54.4 6.2ZM48.02 11.04L48.02 17.66L51.86 17.66C51.82 18.06 51.76 18.46 51.7 18.82L47.1 18.82L47.1 20.8L50.92 20.8C50.18 21.84 48.84 22.58 46.34 23.08C46.8 23.54 47.36 24.42 47.56 25C50.86 24.2 52.5 22.96 53.34 21.22C54.34 23.06 55.86 24.34 58.12 24.96C58.44 24.36 59.1 23.44 59.6 22.98C57.8 22.62 56.46 21.88 55.56 20.8L59.06 20.8L59.06 18.82L54.06 18.82L54.2 17.66L58.06 17.66L58.06 11.04L48.02 11.04ZM43.02 6.2L43.02 9.94L40.84 9.94L40.84 12.16L43.02 12.16L43.02 12.66C42.46 14.94 41.48 17.52 40.36 18.96C40.76 19.6 41.28 20.7 41.52 21.38C42.06 20.54 42.58 19.4 43.02 18.12L43.02 24.98L45.28 24.98L45.28 15.9C45.7 16.74 46.08 17.6 46.3 18.2L47.72 16.52C47.38 15.94 45.86 13.62 45.28 12.86L45.28 12.16L47.1 12.16L47.1 9.94L45.28 9.94L45.28 6.2L43.02 6.2ZM75.52 15.2L73.24 15.2C73.26 14.64 73.28 14.08 73.28 13.52L73.28 11.62L75.52 11.62L75.52 15.2ZM70.98 6.42L70.98 9.38L68.02 9.38L68.02 11.62L70.98 11.62L70.98 13.52C70.98 14.08 70.96 14.64 70.92 15.2L67.52 15.2L67.52 17.48L70.56 17.48C69.96 19.72 68.58 21.76 65.38 23.22C65.9 23.62 66.7 24.5 67.02 25.04C70.4 23.42 71.98 21.14 72.7 18.64C73.72 21.52 75.28 23.74 77.72 25.04C78.1 24.38 78.86 23.38 79.4 22.9C77.04 21.9 75.46 19.94 74.54 17.48L79.02 17.48L79.02 15.2L77.76 15.2L77.76 9.38L73.28 9.38L73.28 6.42L70.98 6.42ZM60.52 19.42L61.48 21.82C63.28 21 65.52 19.94 67.6 18.9L67.06 16.78L65.26 17.54L65.26 13.12L67.22 13.12L67.22 10.84L65.26 10.84L65.26 6.48L63.02 6.48L63.02 10.84L60.88 10.84L60.88 13.12L63.02 13.12L63.02 18.46C62.08 18.84 61.22 19.18 60.52 19.42Z"></path><path  id="文本 1" style="fill:#000000; opacity:1;" d="M31.3916,6.62823l0.1566,-1.02014l4.5648,0.84927l-0.1675,0.97241c-0.3822,2.21862 -0.85653,4.44416 -1.423,6.67663l2.4053,-0.8668l0.3713,0.8665c0.67747,1.58067 1.29663,3.17143 1.8575,4.7723l0.414,-0.5323c0.47667,-0.61287 0.9447,-1.47967 1.4041,-2.6004c0.3374,-0.82313 0.6311,-1.68503 0.8811,-2.5857h-2.0158v-4.22h2.18v-3.74h4.26v3.74h0.18v-2.36h2.34v-1.38h4.28v1.38h0.32v-1.38h4.32v1.38h2.26v3.26h2.04v-4.36h4.24v4.36h0.76v-1.46h2.96v-2.96h4.3v2.96h4.48v5.82h1.26v4.28h-3.9372c0.88953,1.66247 2.12533,2.82887 3.7074,3.4992l1.4565,0.6172l-1.1823,1.051c-0.21493,0.19107 -0.4732,0.48063 -0.7748,0.8687c-0.29353,0.3778 -0.52787,0.71877 -0.703,1.0229l-0.4828,0.8386l-0.854,-0.455c-1.88893,-1.0064 -3.39823,-2.58157 -4.5279,-4.7255c-1.11673,2.01453 -2.8733,3.5961 -5.2697,4.7447l-0.8257,0.3957l-0.4668,-0.7877c-0.1244,-0.20993 -0.33327,-0.4772 -0.6266,-0.8018c-0.29367,-0.325 -0.54793,-0.57013 -0.7628,-0.7354l-1.3167,-1.0128l1.5113,-0.6896c1.37153,-0.62573 2.4434,-1.3965 3.2156,-2.3123c0.11953,-0.14173 0.23293,-0.28847 0.3402,-0.4402l-0.4735,0.2367c-1.99087,0.99547 -4.04173,1.974 -6.1526,2.9356l-0.9538,0.4345l-0.0173,-0.0433l-0.6464,0.5947c-0.19313,0.17767 -0.4198,0.4428 -0.68,0.7954c-0.2512,0.3404 -0.44943,0.64683 -0.5947,0.9193l-0.3762,0.7052l-0.7708,-0.2114c-1.8814,-0.5162 -3.38503,-1.4793 -4.5109,-2.8893c-0.39907,0.4704 -0.86963,0.88897 -1.4117,1.2557c-1.04133,0.70453 -2.4204,1.2649 -4.1372,1.6811l-0.8843,0.2143l-0.2967,-0.8602c-0.0644,-0.18687 -0.17593,-0.41077 -0.3346,-0.6717v1.3257h-4.26v-3.5285l-0.7632,1.1873l-0.6798,-1.926c-0.1106,-0.31333 -0.27043,-0.68903 -0.4795,-1.1271c-0.21387,-0.44813 -0.40903,-0.81337 -0.5855,-1.0957l-0.3214,-0.5143c0.6278,1.80027 1.06393,3.28703 1.3084,4.4603l0.17,0.8164l-4.3663,1.7749l-0.2256,-1.203c-0.0708,-0.37787 -0.1637,-0.80207 -0.2787,-1.2726c-2.47213,0.39813 -4.1465,0.6845 -5.0231,0.8591c-0.8072,0.16067 -1.35333,0.31023 -1.6384,0.4487l-1.0967,0.5327l-0.3078,-1.1798c-0.04747,-0.182 -0.10493,-0.37797 -0.1724,-0.5879v2.3555h-4.32v-4.7149c-0.311,0.45 -0.62187,0.84977 -0.9326,1.1993l-1.1723,1.3188l-0.5291,-1.6834c-0.15373,-0.48907 -0.51327,-1.1948 -1.0786,-2.1172l-0.2958,-0.4826h-0.495c0.27593,0.48947 0.5461,1.01063 0.8105,1.5635c0.36993,0.77347 0.65047,1.4469 0.8416,2.0203l0.2987,0.8961l-3.8893,1.5477l-0.1028,-0.3939c-0.5078,0.37753 -1.2129,0.5663 -2.1153,0.5663h-2.44c-0.62393,0 -1.1405,-0.05073 -1.5497,-0.1522c-0.52011,-0.12893 -0.94008,-0.35333 -1.25991,-0.6732c-0.13646,-0.13647 -0.2548,-0.29033 -0.35501,-0.4616c-0.08165,0.16333 -0.16403,0.3177 -0.24714,0.4631l-0.51662,0.9041l-3.57873,-2.2416l0.57784,-0.8574c0.23329,-0.3462 0.46442,-0.79383 0.6934,-1.3429c-0.07337,0.0164 -0.14845,0.0316 -0.22524,0.0456l-0.03406,0.0062l-0.0344,0.0038c-0.35362,0.03927 -0.7171,0.05743 -1.09043,0.0545v4.5516h-4.1v-19.92h5.35599l0.61274,-0.18022l2.32877,1.34352c0.32627,-0.44464 0.61377,-0.89738 0.86248,-1.35823l0.34532,-0.63987l4.3105,0.79091l-0.4554,0.76389h1.487l0.6281,-0.1963l2.6142,1.73049l-0.4922,0.8203c-0.19053,0.31755 -0.406,0.64606 -0.6464,0.98551h1.8889v9.0194l0.4184,-0.412c0.57513,-0.5662 1.16143,-1.3218 1.7589,-2.2668c0.29433,-0.46553 0.56777,-0.93907 0.8203,-1.4206h-2.2376v-4.22h0.6595l-0.1087,-0.7334c-0.06113,-0.41258 -0.24073,-0.94176 -0.5388,-1.58754l-0.5652,-1.22462l1.3361,-0.18499c1.33793,-0.18526 2.628,-0.41926 3.8702,-0.70201c1.32727,-0.30213 2.4297,-0.62231 3.3073,-0.96053l0.7673,-0.29576l2.2769,3.61412c0.13827,-0.73187 0.2606,-1.44422 0.367,-2.13704zM30.99,8.9471l-1.055,0.37512c-0.63313,0.2251 -1.4248,0.4504 -2.375,0.67591v0.84187h2.98v0.2789c0.16473,-0.74193 0.31473,-1.46587 0.45,-2.1718zM29.5729,15.06h-0.6519c0.188,0.1894 0.35853,0.3628 0.5116,0.5202c0.04593,-0.16807 0.0927,-0.34147 0.1403,-0.5202zM30.2282,16.4327c-0.3335,1.1683 -0.6229,2.0681 -0.8082,2.5473c-0.0009,0.0025 -0.0018,0.005 -0.0026,0.0075c-0.5313,1.4985 -0.8829,2.3295 -1.4488,2.596c-0.0289,0.0136 -0.0585,0.0258 -0.0886,0.0365v0c0.1067,0.2592 0.2338,0.5939 0.3568,0.9343c0.054,0.1496 0.1073,0.3002 0.1577,0.4461c0.136,0.3934 0.2513,0.7519 0.3055,0.9596c0.2283,-0.1109 0.4885,-0.209 0.9484,-0.3249c0.9505,-0.2394 2.754,-0.5547 6.8916,-1.2151c0.1148,0.428 0.2187,0.8396 0.3089,1.2263c0.0826,0.3543 0.1537,0.6877 0.2111,0.9937l0.9444,-0.3839l1.5156,-0.6161c-0.5,-2.4 -1.88,-6.2 -3.14,-9.14l-1.2788,0.4608l-0.8846,0.3188l-0.0566,0.0204c0.0101,0.0256 0.0203,0.0514 0.0304,0.0771c0.1094,0.2783 0.2194,0.5644 0.3293,0.8562c0.3671,0.9752 0.7329,2.0142 1.0701,3.0404c0.1065,0.3242 0.2102,0.6471 0.3102,0.9663l-1.004,0.1408l-2.3091,0.3239l-1.1069,0.1553c0.1171,-0.3462 0.2341,-0.6994 0.3507,-1.059c0.447,-1.3796 0.8872,-2.8525 1.3022,-4.3795c0.0811,-0.2983 0.1612,-0.5987 0.2402,-0.9009c0.617,-2.3588 1.1674,-4.82538 1.5869,-7.2606l-1.5964,-0.297l-0.9836,-0.183c-0.0502,0.32728 -0.1039,0.65679 -0.1605,0.9873c-0.5409,3.1607 -1.3481,6.4124 -1.9913,8.6654zM33.7386,16.9977c-0.25447,0.88187 -0.5232,1.7648 -0.8062,2.6488l1.6517,-0.2317c-0.2718,-0.82313 -0.55363,-1.62883 -0.8455,-2.4171zM28.7555,18.1882l0.7445,-1.0682c-0.0799,-0.0951 -0.2141,-0.2423 -0.3831,-0.4219c-0.4217,-0.4477 -1.0603,-1.0963 -1.6145,-1.6381c-0.3917,-0.3828 -0.7412,-0.7124 -0.9424,-0.88v-0.12h2.98v-2.22h-2.98v-1v-1.64c0.7181,-0.15668 1.4107,-0.32189 2.0554,-0.50676c0.3429,-0.0983 0.6722,-0.20215 0.9846,-0.31324l-0.5474,-0.86896l-0.7126,-1.13104c-1.67,0.64365 -4.0663,1.19651 -6.3729,1.56646c-0.3453,0.05538 -0.6886,0.10667 -1.0271,0.15354c0.124,0.26876 0.2641,0.61232 0.3816,0.95612c0.1097,0.32138 0.1997,0.64298 0.2384,0.90388c0.5456,-0.06344 1.1073,-0.12688 1.68,-0.20054c0.33,-0.04244 0.6637,-0.08828 1,-0.13946v2.22h-3.22v1v1.22h2.82c-0.1412,0.3294 -0.2959,0.6644 -0.4618,1c-0.8213,1.6612 -1.9167,3.3351 -2.9982,4.4c0.2159,0.3522 0.4963,0.8335 0.7386,1.3119c0.1842,0.3637 0.3464,0.7258 0.4414,1.0281c0.2436,-0.274 0.4846,-0.5803 0.7218,-0.9122c0.328,-0.459 0.6485,-0.9672 0.9582,-1.5071c0.3488,-0.6082 0.6838,-1.2566 1,-1.9207v7.52h2.32v-8.34c0.3426,0.5025 0.6983,1.0312 1,1.5077c0.0008,0.0012 0.0015,0.0024 0.0023,0.0036c0.2256,0.3565 0.4209,0.6837 0.5577,0.9487l0.4063,-0.583zM27.56,20.671c0.04173,-0.02287 0.09247,-0.0831 0.1522,-0.1807l-0.1522,-0.2949zM23.24,10.84v-0.0739c-0.18707,0.02367 -0.38677,0.0483 -0.5991,0.0739zM43.02,12.66c-0.0406,0.1653 -0.0834,0.3321 -0.1283,0.5c-0.5745,2.1481 -1.4929,4.4644 -2.5317,5.8c0.2116,0.3386 0.4568,0.8059 0.6764,1.2717c0.1954,0.4146 0.3706,0.828 0.4836,1.1483c0.1692,-0.2633 0.3365,-0.556 0.5,-0.8733c0.0423,-0.0822 0.0844,-0.166 0.1262,-0.2514c0.3117,-0.6368 0.6074,-1.3604 0.8738,-2.1353v6.86h2.26v-9.08c0.213,0.4259 0.4157,0.857 0.5924,1.2568c0.1036,0.2343 0.1983,0.4578 0.281,0.6632c0.0461,0.1147 0.0885,0.2238 0.1266,0.3259c0.0068,0.0183 0.0135,0.0363 0.02,0.0541l0.3212,-0.38l0.3988,-0.4718l0.0151,-0.0179l0.6849,-0.8103c-0.119,-0.2031 -0.3827,-0.6194 -0.7,-1.1073c-0.4902,-0.7539 -1.1085,-1.6789 -1.5195,-2.2527c-0.0828,-0.1157 -0.1573,-0.2171 -0.2205,-0.3v-0.7h1.82v-2.22h-1.82v-3.74h-2.26v3.74h-2.18v2.22h2.18zM48.1,11.04h-0.08v6.62h3.84c-0.0342,0.3416 -0.0829,0.6833 -0.1338,1c-0.0087,0.0541 -0.0174,0.1075 -0.0262,0.16h-4.6v0.98v1h3.82c-0.2636,0.3705 -0.6034,0.7029 -1.0447,1c-0.6008,0.4045 -1.3897,0.7434 -2.4308,1.0237c-0.3404,0.0916 -0.7079,0.177 -1.1045,0.2563c0.2217,0.2217 0.4665,0.5408 0.6832,0.877c0.2329,0.3614 0.4332,0.7425 0.5368,1.043c2.6522,-0.643 4.2322,-1.5702 5.1864,-2.8127c0.233,-0.3035 0.4287,-0.6258 0.5936,-0.9673c0.1859,0.342 0.3897,0.6646 0.6129,0.9673c0.9777,1.3257 2.3271,2.2679 4.1671,2.7727c0.172,-0.3225 0.4422,-0.7373 0.7329,-1.1236c0.2503,-0.3324 0.5158,-0.6436 0.7471,-0.8564c-0.3912,-0.0782 -0.7606,-0.1744 -1.1086,-0.2881c-0.6974,-0.228 -1.3083,-0.5264 -1.8344,-0.8919c-0.4192,-0.2913 -0.7846,-0.6251 -1.097,-1h3.5v-1.98h-5l0.1207,-1l0.0193,-0.16h3.86v-6.62zM49.8,10.04v0.64h2.28v-1.14h2.32v1.14h2.32v-1.14h2.26v-1.96h-2.26v-1.38h-2.32v1.38h-2.32v-0.38v-1h-2.28v1.38h-2.34v1.96h2.34zM59.06,17.82h1v0.7006l0.1357,-0.0465c0.4264,-0.1462 1.0345,-0.37633 1.8243,-0.6904v-3.6637h-2.14v-3.58h-0.82zM60.06,20.9626v0.8374h-1.0708c0.25593,0.07653 0.5249,0.143 0.8069,0.1994l0.7376,0.1475zM63.02,18.46c-0.5532,0.2236 -1.0787,0.4334 -1.5601,0.6171c-0.3367,0.1284 -0.6518,0.2441 -0.9399,0.3429l0.3718,0.9296l0.2164,0.5409l0.3718,0.9295c0.2925,-0.1333 0.5967,-0.2729 0.9099,-0.4177c1.614,-0.7463 3.4682,-1.6313 5.2101,-2.5023l-0.107,-0.42l-0.1834,-0.7199l-0.2496,-0.9801l-0.54,0.228l-0.26,0.1098l-0.1317,0.0556l-0.8683,0.3666v-4.42h0.96h1v-2.28h-1.96v-4.36h-1h-0.24h-1v4.36h-2.14v2.28h2.14zM68.22,12.62v1.5h-1.96v1.9123l0.26,-0.1098v-1.7225h3.4497c0.00687,-0.2266 0.0103,-0.45327 0.0103,-0.68v-0.9zM70.98,12.62v0.9c0,0.56 -0.02,1.12 -0.06,1.68h-2.4h-1v2.28h3.04c-0.0906,0.3383 -0.199,0.6721 -0.3288,1c-0.6373,1.6099 -1.7899,3.0783 -3.882,4.2501c-0.303,0.1697 -0.6256,0.3331 -0.9692,0.4899c0.2285,0.1758 0.5111,0.4442 0.7832,0.7358c0.3472,0.3719 0.6774,0.7815 0.8568,1.0842c2.728,-1.3075 4.2835,-3.045 5.1606,-4.981c0.2096,-0.4627 0.3805,-0.9368 0.5194,-1.419c0.1735,0.49 0.3627,0.9608 0.5691,1.4113c0.8588,1.8738 2.017,3.3949 3.595,4.4712c0.1073,0.0733 0.2167,0.1444 0.3279,0.2135c0.1713,0.1063 0.3472,0.2077 0.528,0.304c0.2273,-0.3949 0.5907,-0.9114 0.9616,-1.3655c0.249,-0.3049 0.5015,-0.5817 0.7184,-0.7745c-0.331,-0.1402 -0.6466,-0.2994 -0.9472,-0.4761c-1.5437,-0.9075 -2.6915,-2.2794 -3.4885,-3.9439c-0.1545,-0.3227 -0.2958,-0.6565 -0.4243,-1h4.48v-2.28h-1.26v-5.82h-4.48v-2.96h-2.3v2.96h-2.96v2.24h2.96zM69.142,18.48h-0.617l0.1974,0.7752c0.15467,-0.24633 0.29453,-0.50473 0.4196,-0.7752zM47.3804,21.8h-1.1004v0.2717c0.3946,-0.08213 0.7614,-0.1727 1.1004,-0.2717zM47.02,13.6003v-0.4403h-0.2989c0.0932,0.13593 0.19283,0.2827 0.2989,0.4403zM17.4061,18.5h0.8539v-7.36h-2.94c0.2733,-0.3215 0.5466,-0.6592 0.8069,-1c0.3874,-0.50724 0.746,-1.02151 1.0331,-1.5l-1.42,-0.94l-0.32,0.1h-3.4l0.0737,-0.12355l0.5225,-0.87645l0.0238,-0.04l-1.0494,-0.19255l-1.1306,-0.20745c-0.4509,0.83544 -1.11276,1.80276 -1.95652,2.70958c-0.20115,0.21619 -0.41263,0.42893 -0.63406,0.63563c-0.2506,0.23394 -0.51393,0.46009 -0.78942,0.67479c0.23715,0.1423 0.52428,0.3846 0.79226,0.6478c0.00547,0.0053 0.01093,0.0107 0.01638,0.0161c0.02572,0.0254 0.05124,0.051 0.07652,0.0767c0.03895,0.0396 0.07731,0.0795 0.11484,0.1194v1.66h7.96v1.04h-6.5h-1v1.68h7.5v1.1h-8v1.78h3.98l-0.1592,0.1321l-0.1298,0.1077l-0.0966,0.0802l-0.5544,0.46c0.0832,0.0711 0.1689,0.1446 0.2562,0.22c0.165,0.1423 0.3361,0.2915 0.5092,0.4443c0.2657,0.2347 0.5359,0.4779 0.7946,0.7178c0.2742,0.2543 0.5355,0.505 0.765,0.7381c0.1239,0.1258 0.2385,0.2465 0.3409,0.3598c0.0629,0.0696 0.1211,0.1364 0.1741,0.2l0.0864,-0.0795l0.131,-0.1205l0.5193,-0.4777l0.0274,-0.0252l0.3361,-0.3092l0.3998,-0.3679c-0.0882,-0.095 -0.1902,-0.198 -0.303,-0.307c-0.1272,-0.1228 -0.2681,-0.2532 -0.4185,-0.3881c-0.1071,-0.0961 -0.219,-0.1944 -0.334,-0.2939c-0.035,-0.0302 -0.0703,-0.0606 -0.1058,-0.091c-0.3043,-0.2605 -0.6269,-0.5264 -0.9402,-0.778c-0.0939,-0.0755 -0.187,-0.1497 -0.2785,-0.222zM15.3971,21.7021c-0.1397,-0.0732 -0.2623,-0.1484 -0.3571,-0.2221c-0.0232,0.4335 -0.0554,0.7232 -0.1164,0.9155c-0.0189,0.0598 -0.0406,0.1101 -0.0657,0.1525c-0.0727,0.1225 -0.1736,0.1778 -0.3171,0.1996c-0.0593,0.0091 -0.1259,0.0124 -0.2008,0.0124h-1.92c-0.68,0 -0.78,-0.08 -0.78,-0.54v-2.4h-2.1v2.42c0,0.2866 0.01092,0.5433 0.03724,0.7725c0.14443,1.2582 0.75256,1.6875 2.56276,1.6875h2.44c0.8715,0 1.4426,-0.1611 1.811,-0.6696c0.149,-0.2058 0.2649,-0.4685 0.354,-0.8005c0.0545,-0.2031 0.099,-0.4321 0.135,-0.6899c0.1018,0.235 0.1975,0.4669 0.2835,0.6897c0.0144,0.0374 0.0285,0.0746 0.0424,0.1115c0.1086,0.2887 0.1993,0.56 0.2639,0.8003c0.0035,0.0129 0.0069,0.0257 0.0102,0.0385l0.9351,-0.3721l1.0249,-0.4079v0c-0.36,-1.08 -1.14,-2.7 -1.86,-3.9l-0.8027,0.2879l-0.0879,0.0315l-0.4583,0.1645l-0.0043,0.0015l-0.4868,0.1746c0.1169,0.2265 0.2391,0.4663 0.3628,0.7137c0.0123,0.0245 0.0245,0.049 0.0368,0.0737c0.0185,0.0371 0.037,0.0743 0.0555,0.1117c0.0189,0.0381 0.0377,0.0763 0.0566,0.1146c0.1661,0.3375 0.332,0.6843 0.4883,1.0263c-0.2291,-0.0553 -0.4863,-0.1356 -0.7358,-0.2297c-0.0172,-0.0065 -0.0345,-0.0131 -0.0516,-0.0197c-0.1288,-0.0498 -0.2549,-0.1031 -0.3732,-0.1584c-0.0632,-0.0296 -0.1243,-0.0597 -0.1823,-0.0901zM7.16504,20.832c-0.25538,0.7437 -0.57591,1.4924 -0.92353,2.0863c-0.06627,0.1132 -0.13351,0.2208 -0.20149,0.3217h-0.00002l0.84788,0.5311l0.12385,0.0776l0.84827,0.5313c0.15669,-0.2742 0.30618,-0.5784 0.4476,-0.8996c0.0876,-0.199 0.17209,-0.4045 0.25327,-0.6134c0.32315,-0.8318 0.59393,-1.7186 0.79913,-2.467l-0.82,-0.3387l-0.08638,-0.0357l-0.42116,-0.1739l-0.51246,-0.2117c-0.07711,0.3084 -0.17139,0.6354 -0.27945,0.9665c-0.02448,0.075 -0.04966,0.1502 -0.07551,0.2255zM7.09273,19.5c0.16875,-0.2629 0.28554,-0.5853 0.35735,-0.9708c0.0614,-0.3296 0.08992,-0.7053 0.08992,-1.1292c0,-0.5204 -0.04829,-1.081 -0.21349,-1.68c-0.20306,-0.7364 -0.58275,-1.5308 -1.26651,-2.38c0.21981,-0.5912 0.4511,-1.2715 0.68192,-1.982c0.30118,-0.9271 0.60153,-1.90575 0.87445,-2.80533c0.06982,-0.23012 0.13785,-0.45508 0.20363,-0.67267l-1.56,-0.9l-0.34,0.1h-4.5v17.92h2.1v-15.8h1.68c-0.07423,0.31547 -0.15491,0.65247 -0.24006,1c-0.13779,0.5624 -0.28726,1.1524 -0.43994,1.7235c-0.15971,0.5973 -0.32294,1.1739 -0.48,1.6765c0.18146,0.2133 0.34063,0.4241 0.48,0.6314c0.73619,1.0953 0.92,2.095 0.92,2.8686c0,0.56 -0.1,0.96 -0.34,1.14c-0.08643,0.0741 -0.19572,0.1253 -0.31847,0.1536c-0.07608,0.0176 -0.15734,0.0264 -0.24153,0.0264h-0.02c-0.23449,0 -0.48998,-0.0006 -0.84,-0.02c0.16033,0.2806 0.28551,0.6465 0.37304,1.0148c0.08716,0.3667 0.13698,0.7358 0.14696,1.0252c0.10617,0.0046 0.21342,0.0071 0.32,0.0077c0.35519,0.002 0.70309,-0.0169 0.98,-0.0477c0.30852,-0.0561 0.58754,-0.1319 0.83706,-0.248c0.10634,-0.0494 0.20732,-0.1063 0.30294,-0.172c0.18011,-0.1295 0.33013,-0.289 0.45273,-0.48zM9.36,11.14c0.32708,-0.3271 0.63833,-0.6621 0.9338,-1c0.1742,-0.19932 0.343,-0.39966 0.5062,-0.6h3.34c-0.2247,0.34298 -0.4774,0.686 -0.7291,1c-0.174,0.217 -0.3474,0.4202 -0.5109,0.6h-2.1584zM73.24,15.2c0.0119,-0.3333 0.0238,-0.6667 0.0315,-1c0.0052,-0.2267 0.0085,-0.4533 0.0085,-0.68v-1.9h2.24v3.58h-1zM74.52,14.2v-1.58h-0.24v0.9c0,0.1842 -0.0031,0.41087 -0.0093,0.68zM55.74,12.7v0.86h-1h-3.5h-1v-0.86h1zM51.24,15.12h4.5v0.88h-5.5v-0.88z"></path></g></g></g><defs><rect id="path_0" x="0" y="0" width="144.49192810058594" height="179.07752990722656" /><rect id="path_1" x="0" y="0" width="120" height="105" /></defs></svg>