<?xml version="1.0" standalone="no"?><!DOCTYPE svg PUBLIC "-//W3C//DTD SVG 1.1//EN" "http://www.w3.org/Graphics/SVG/1.1/DTD/svg11.dtd"><svg class="icon" width="32px" height="32.00px" viewBox="0 0 1024 1024" version="1.1" xmlns="http://www.w3.org/2000/svg"><path d="M111.4 168.4h802.9c25.7 0 46.6 20.8 46.6 46.6v602c0 25.7-20.8 46.6-46.6 46.6H111.4c-25.7 0-46.6-20.8-46.6-46.6V214.9c0.1-25.7 20.9-46.5 46.6-46.5z" fill="#DE3B37" /><path d="M64.9 315.1h896v401.7h-896z" fill="#FCDA00" /><path d="M478.1 508.2l11.4-65.5c0.9-5.2-1.7-10.4-5.8-11.5-0.6-0.2-1.2-0.2-1.7-0.2h-8c-4-0.2-7.4 3.8-7.5 9 0 0.9 0.1 1.9 0.2 2.8l11.4 65.4z" fill="#C8414B" /><path d="M466.5 477.3h38.6v154.5h-38.6z" fill="#F5F5F5" /><path d="M451.1 461.9h54v15.4h-54z" fill="#FAB446" /><path d="M405.4 520.4h92v18h-92v-18z m92 72.8l-56.2-18.4v-18l56.2 18v18.4z m-309.7-72.8l15.9-69.3c1-5.8-3.1-11.3-9.1-12.3-0.5-0.1-1-0.1-1.5-0.1h-9.3c-6.1 0.2-10.9 5.1-10.8 11 0 0.5 0.1 1 0.1 1.4l14.7 69.3z" fill="#C8414B" /><path d="M260.9 461.9c-10.1 0-18.4 8.4-18.4 18.8V604c0 23.2 21 66.5 92.7 66.5s92.7-44.7 92.7-66.5V480.6c0-10.4-8.2-18.8-18.4-18.8H260.9z" fill="#F5F5F5" /><path d="M335.2 554.6h-92.7v-74.3c0-10.1 8.2-18.4 18.4-18.4h74.3v92.7z m0 0h92.7v46.3c0 25.6-20.7 46.3-46.3 46.3s-46.3-20.7-46.3-46.3v-46.3z" fill="#C8414B" /><path d="M242.5 546.8h92.7v46.3c0 25.6-20.7 46.3-46.3 46.3-25.6 0-46.3-20.7-46.3-46.3v-46.3z" fill="#FAB446" /><path d="M319.8 629.2v-82.3h-18.2v92.7c6.7-2.1 12.9-5.6 18.2-10.4zM286 639.5V549h-20.3v82.3c6 4.4 13 7.2 20.3 8.2z" fill="#C8414B" /><path d="M265.7 508.2h54.1v15.5h-54.1z" fill="#FFB441" /><path d="M265.7 485.1h54.1v15.4h-54.1z" fill="#FAB446" /><path d="M265.7 485.1h38.6v38.6h-38.6z" fill="#FAB446" /><path d="M173 477.3h38.6v154.5H173z" fill="#F5F5F5" /><path d="M173 627.7h54.1v19.5H173v-19.5z m0-165.8h54.1v18.2H173v-18.2z" fill="#FAB446" /><path d="M165.3 639.5h77.2V655h-77.2z" fill="#5064AA" /><path d="M458.8 616.4h54.1v23.1h-54.1z" fill="#FAB446" /><path d="M435.6 639.5h77.3V655h-77.3z" fill="#5064AA" /><path d="M288.9 446.4H397v15.5H288.9z" fill="#FAB446" /><path d="M327.5 384.6h15.4v54.1h-15.4z" fill="#FFB441" /><path d="M316.1 407.8c-14.7 0.3-26.8-12.1-27.1-27.7v-1.8c-1.9-15.7 8.6-30 23.4-32 14.8-2 28.3 9.2 30.2 24.9 0.3 2.4 0.3 4.8 0 7.2 0.7 15.6-10.6 28.8-25.3 29.5-0.3-0.1-0.8-0.1-1.2-0.1z m0-38.1c-5-1.2-10 2.2-11.1 7.5-1.1 5.3 2.1 10.6 7.1 11.7 1.3 0.3 2.6 0.3 3.9 0 5-1.2 8.2-6.4 7.1-11.7-0.7-3.7-3.4-6.6-7-7.5z" fill="#F5F5F5" /><path d="M354.9 407.8c-14.7 0.5-27-10.9-27.4-25.3v-2.1c0-14.7 12.1-26.6 27-26.6s27 11.9 27 26.6c0.7 14.5-10.6 26.7-25.3 27.4h-1.3z m0-35.3c-5-1.1-10 2.1-11 7-1.1 4.9 2.1 9.8 7.1 10.9 1.3 0.3 2.6 0.3 3.9 0 5-1.1 8.2-5.9 7.1-10.9-0.7-3.5-3.5-6.3-7.1-7z" fill="#F5F5F5" /><path d="M391.3 438.7c-15.9 0-28.8-12.1-28.8-27s12.9-27 28.8-27 28.8 12.1 28.8 27c0.1 14.9-12.9 27-28.8 27z m0-35.9c-5.2 0-9.5 4-9.5 8.9s4.2 8.9 9.5 8.9c5.2 0 9.5-4 9.5-8.9s-4.3-8.9-9.5-8.9z m-112.2 35.9c-15.9 0-28.8-12.1-28.8-27s12.9-27 28.8-27 28.8 12.1 28.8 27-12.9 27-28.8 27z m0-35.9c-5.2 0-9.5 4-9.5 8.9s4.2 8.9 9.5 8.9c5.2 0 9.5-4 9.5-8.9s-4.3-8.9-9.5-8.9z" fill="#F5F5F5" /><path d="M394.1 595.9v8.9c0 4.9-4 8.9-8.9 8.9s-8.9-4-8.9-8.9v-8.9h17.8m18.3-18.2h-54.1v27c0 14.8 11.9 26.8 26.8 27 15 0 27.2-12.1 27.2-27l0.1-27z" fill="#FAB446" /><path d="M392.9 523.7c-10.5 0-19.1-8.1-19.1-18v-18c-0.3-9.7 7.9-17.8 18.1-18h1.4c10.4 0.2 18.8 8.2 19.1 18v18c0 9.9-8.5 18-19.1 18h-0.4z" fill="#FFA0D2" /><path d="M304.3 550.7c0 14.9 12.1 27 27 27s27-12.1 27-27-12.1-27-27-27-27 12.1-27 27z" fill="#5064AA" /><path d="M327.5 338.3h15.4v54.1h-15.4z" fill="#FAB446" /><path d="M285.2 438.7l-19.5-17.9 11.4-10.6c36.4-34.1 95.3-34.1 131.7 0l11.4 10.6-19.5 17.9H285.2z" fill="#C8414B" /><path d="M325.6 431c0 4.3 4.1 7.7 9.2 7.7s9.2-3.5 9.2-7.7c0-4.3-4.1-7.7-9.2-7.7s-9.2 3.4-9.2 7.7z m-36.7 0c0 4.3 4.1 7.7 9.2 7.7s9.2-3.5 9.2-7.7c0-4.3-4.1-7.7-9.2-7.7s-9.2 3.4-9.2 7.7z m74.3 0c0 4.3 4.1 7.7 9.2 7.7s9.2-3.5 9.2-7.7c0-4.3-4.1-7.7-9.2-7.7s-9.2 3.4-9.2 7.7z" fill="#FFD250" /><path d="M173 515.9h92.7V535H173v-19.1z m0 77.3l55.5-19.5v-19.1L173 573.7v19.5z" fill="#C8414B" /></svg>