<svg xmlns="http://www.w3.org/2000/svg" xmlns:xlink="http://www.w3.org/1999/xlink" width="246.6684112548828" height="182.1644287109375" viewBox="0 0 246.6684112548828 182.1644287109375" fill="none"><g opacity="1"  transform="translate(0 0)  rotate(0)"><mask id="bg-mask-0" fill="white"><use transform="translate(0 0)  rotate(0)" xlink:href="#path_0"></use></mask><g mask="url(#bg-mask-0)" ><g opacity="1"  transform="translate(29.930500030517578 0)  rotate(0)"><path id="矩形 1" fill-rule="evenodd" style="fill:#A2EF4D" opacity="1" d="M15,182.16c-8.28,0 -15,-6.72 -15,-15v-152.16c0,-8.28 6.72,-15 15,-15h166.1c8.28,0 15,6.72 15,15v152.16c0,8.28 -6.72,15 -15,15z"></path><g opacity="1"  transform="translate(90.82351303100586 17.4959716796875)  rotate(0)"><g opacity="1"  transform="translate(0 0)  rotate(0)"><g opacity="1"  transform="translate(0 0)  rotate(0)"></g><path id="路径 1" fill-rule="evenodd" style="fill:#83B79B" opacity="1" d="M53.1485,102.579c-10.59,0 -19.19,-3.3302 -19.19,-7.4402c0,-4.1 8.6,-7.43 19.19,-7.43c10.6,0 19.2,3.33 19.2,7.43c0,4.11 -8.6,7.4402 -19.2,7.4402z"></path><path id="路径 2" fill-rule="evenodd" style="fill:#472C1E" opacity="1" d="M48.723,65.4134c0,-0.82 0.66,-1.49 1.48,-1.49h5.9c0.82,0 1.48,0.67 1.48,1.49v26.76c0,1.64 -1.32,2.97 -2.95,2.97h-2.96c-1.63,0 -2.95,-1.33 -2.95,-2.97z"></path><path id="路径 3" fill-rule="evenodd" style="fill:#02843F" opacity="1" d="M52.4233,2.97318v65.41002h-28.8z"></path><path id="路径 4" fill-rule="evenodd" style="fill:#3BAC17" opacity="1" d="M81.9486,68.3832h-29.53v-65.41002z"></path></g></g><g opacity="1"  transform="translate(36.12296676635742 13.3792724609375)  rotate(0)"><g opacity="1"  transform="translate(0 0)  rotate(0)"><g opacity="1"  transform="translate(0 0)  rotate(0)"></g><path id="路径 1" fill-rule="evenodd" style="fill:#83B79B" opacity="1" d="M59.3448,126.249c-11.83,0 -21.43,-4.1 -21.43,-9.15c0,-5.05 9.6,-9.15 21.43,-9.15c11.83,0 21.43,4.1 21.43,9.15c0,5.05 -9.6,9.15 -21.43,9.15z"></path><path id="路径 2" fill-rule="evenodd" style="fill:#472C1E" opacity="1" d="M54.3995,80.5049c0,-1.01 0.74,-1.83 1.65,-1.83h6.59c0.91,0 1.65,0.82 1.65,1.83v32.9301c0,2.02 -1.48,3.66 -3.3,3.66h-3.29c-1.82,0 -3.3,-1.64 -3.3,-3.66z"></path><path id="路径 3" fill-rule="evenodd" style="fill:#086F38" opacity="1" d="M93.9609,82.3368h-62.64l31.32,-65.87z"></path><path id="路径 4" fill-rule="evenodd" style="fill:#02843F" opacity="1" d="M74.1771,67.6968h-49.45l24.72,-51.23z"></path><path id="路径 5" fill-rule="evenodd" style="fill:#3BAC17" opacity="1" d="M92.3133,53.0593h-52.75l26.34,-49.4z"></path></g></g><g opacity="1"  transform="translate(0.06949996948242188 0)  rotate(0)"><g opacity="1"  transform="translate(0 0)  rotate(0)"><g opacity="1"  transform="translate(0 0)  rotate(0)"></g><path id="路径 1" fill-rule="evenodd" style="fill:#83B79B" opacity="1" d="M56.9967,157.169c-11.36,0 -20.58,-5.1 -20.58,-11.39c0,-6.29 9.22,-11.39 20.58,-11.39c11.37,0 20.59,5.1 20.59,11.39c0,6.29 -9.22,11.39 -20.59,11.39z"></path><path id="路径 2" fill-rule="evenodd" style="fill:#472C1E" opacity="1" d="M52.25,100.224c0,-1.2596 0.71,-2.2796 1.58,-2.2796h6.33c0.88,0 1.59,1.02 1.59,2.2796v40.99c0,2.52 -1.42,4.56 -3.17,4.56h-3.16c-1.75,0 -3.17,-2.04 -3.17,-4.56z"></path><path id="路径 3" fill-rule="evenodd" style="fill:#086F38" opacity="1" d="M90.2433,102.5h-60.16l30.08,-82.0001z"></path><path id="路径 4" fill-rule="evenodd" style="fill:#02843F" opacity="1" d="M71.25,84.2799h-47.5l23.74,-63.78z"></path><path id="路径 5" fill-rule="evenodd" style="fill:#3BAC17" opacity="1" d="M88.67,66.0556h-50.67l25.3,-61.50004z"></path></g></g><g opacity="1" transform="translate(100.06949996948242 142)  rotate(0)"><path id="EPR合规"  style="fill:#FFFFFF" opacity="1" d="M1.82 23.2L11.12 23.2L11.12 20.72L4.78 20.72L4.78 16.76L9.96 16.76L9.96 14.28L4.78 14.28L4.78 10.86L10.9 10.86L10.9 8.38L1.82 8.38L1.82 23.2ZM14.12 23.2L17.08 23.2L17.08 17.94L19.06 17.94C22.24 17.94 24.78 16.42 24.78 13.04C24.78 9.54 22.26 8.38 18.98 8.38L14.12 8.38L14.12 23.2ZM17.08 15.6L17.08 10.74L18.76 10.74C20.8 10.74 21.88 11.32 21.88 13.04C21.88 14.74 20.9 15.6 18.86 15.6L17.08 15.6ZM30.42 15.26L30.42 10.74L32.34 10.74C34.24 10.74 35.28 11.28 35.28 12.88C35.28 14.46 34.24 15.26 32.34 15.26L30.42 15.26ZM35.52 23.2L38.82 23.2L35.36 17.14C37.06 16.48 38.18 15.1 38.18 12.88C38.18 9.48 35.72 8.38 32.6 8.38L27.46 8.38L27.46 23.2L30.42 23.2L30.42 17.6L32.48 17.6L35.52 23.2ZM49.46 6.12C47.34 9.24 43.54 11.7 39.84 13.14C40.52 13.76 41.22 14.66 41.6 15.34C42.5 14.92 43.42 14.44 44.3 13.9L44.3 14.88L54.32 14.88L54.32 13.54C55.28 14.12 56.26 14.6 57.24 15.06C57.56 14.3 58.26 13.4 58.88 12.84C56.16 11.86 53.5 10.5 50.92 8.12L51.6 7.2L49.46 6.12ZM46.16 12.66C47.34 11.8 48.46 10.86 49.46 9.82C50.64 10.96 51.8 11.88 52.94 12.66L46.16 12.66ZM42.98 16.6L42.98 24.96L45.44 24.96L45.44 24.08L53.38 24.08L53.38 24.88L55.96 24.88L55.96 16.6L42.98 16.6ZM45.44 21.86L45.44 18.7L53.38 18.7L53.38 21.86L45.44 21.86ZM68.56 7.1L68.56 17.76L70.84 17.76L70.84 9.18L75.46 9.18L75.46 17.76L77.84 17.76L77.84 7.1L68.56 7.1ZM62.96 6.4L62.96 9.28L60.38 9.28L60.38 11.5L62.96 11.5L62.96 12.78L62.94 13.92L59.98 13.92L59.98 16.2L62.8 16.2C62.54 18.68 61.8 21.34 59.78 23.14C60.34 23.52 61.14 24.32 61.48 24.8C63.14 23.2 64.08 21.14 64.6 19.04C65.36 20.04 66.18 21.2 66.64 21.98L68.28 20.26C67.78 19.68 65.82 17.32 65.04 16.56L65.08 16.2L67.9 16.2L67.9 13.92L65.22 13.92L65.24 12.78L65.24 11.5L67.66 11.5L67.66 9.28L65.24 9.28L65.24 6.4L62.96 6.4ZM72.06 10.42L72.06 13.56C72.06 16.64 71.48 20.6 66.36 23.26C66.82 23.6 67.6 24.5 67.88 24.96C70.14 23.76 71.64 22.2 72.6 20.52L72.6 22.32C72.6 24.06 73.24 24.54 74.82 24.54L76.2 24.54C78.18 24.54 78.54 23.64 78.74 20.58C78.2 20.46 77.4 20.12 76.88 19.72C76.8 22.18 76.68 22.72 76.18 22.72L75.26 22.72C74.88 22.72 74.7 22.56 74.7 22.06L74.7 17.14L73.9 17.14C74.18 15.9 74.28 14.68 74.28 13.6L74.28 10.42L72.06 10.42Z"></path><path  id="EPR合规" style="fill:#000000; opacity:1;" d="M52.2685,7.97798c0.96513,0.81804 1.9904,1.53778 3.0758,2.15922c1.14993,0.65833 2.4415,1.24567 3.8747,1.762l0.161,0.058v-3.6772h2.58v-2.88h4.28v2.88h1.32v-2.18h11.28v12.66h-1.5679l0.2176,0.1674c0.18753,0.1442 0.42887,0.2829 0.724,0.4161c0.27727,0.12507 0.525,0.21183 0.7432,0.2603l0.8369,0.186l-0.0559,0.8554c-0.05613,0.85853 -0.12833,1.53253 -0.2166,2.022c-0.11593,0.64273 -0.29097,1.1603 -0.5251,1.5527c-0.29093,0.48767 -0.69277,0.83897 -1.2055,1.0539c-0.42333,0.17747 -0.95357,0.2662 -1.5907,0.2662h-1.38c-1.07687,0 -1.8732,-0.24343 -2.389,-0.7303c-0.3662,-0.34573 -0.61137,-0.82553 -0.7355,-1.4394c-0.93293,0.9594 -2.04843,1.7837 -3.3465,2.4729l-0.8329,0.4422l-0.4903,-0.8055c-0.11513,-0.18907 -0.3109,-0.43983 -0.5873,-0.7523c-0.28287,-0.3198 -0.50717,-0.54093 -0.6729,-0.6634l-1.2889,-0.9527l1.278,-0.6639c-0.2114,-0.35553 -0.47633,-0.7624 -0.7948,-1.2206c-0.66347,1.71133 -1.5921,3.14233 -2.7859,4.293l-0.8376,0.8073l-0.6724,-0.9493c-0.1408,-0.19873 -0.35843,-0.44297 -0.6529,-0.7327c-0.30547,-0.3006 -0.56967,-0.52653 -0.7926,-0.6778l-1.0617,-0.7205l0.9579,-0.8536c1.29447,-1.15347 2.1408,-2.8846 2.539,-5.1934h-2.6737v-3.0195c-0.07813,0.09387 -0.15563,0.19203 -0.2325,0.2945c-0.26773,0.357 -0.46303,0.68137 -0.5859,0.9731l-0.404,0.9595l-0.7976,-0.3743v9.8467h-4.58v-0.8h-5.94v0.88h-4.46v-9.6938l-0.7995,0.3731l-0.4534,-0.8115c-0.1694,-0.30307 -0.39537,-0.63263 -0.6779,-0.9887c-0.29687,-0.37407 -0.5912,-0.6941 -0.883,-0.9601l-0.0494,-0.0451c-0.12147,0.8808 -0.41797,1.65873 -0.8895,2.3338c-0.3894,0.5574 -0.88123,1.02177 -1.4755,1.3931l3.7907,6.6392h-5.6175l-3.04,-5.6h-0.465v5.6h-4.96v-16.82h6.14c1.91607,0 3.42657,0.38481 4.5315,1.15443c1.23407,0.85951 1.91057,2.1251 2.0295,3.79677l0.3163,-0.1231c1.89173,-0.73627 3.62113,-1.65789 5.1882,-2.76486c1.70173,-1.20212 3.0242,-2.49721 3.9674,-3.88526l0.4936,-0.72643l3.9822,2.0097zM49.46,6.12c-1.9277,2.83695 -5.2444,5.1282 -8.6119,6.6032c-0.3359,0.1471 -0.6724,0.2862 -1.0081,0.4168c0.252,0.2298 0.5067,0.498 0.7469,0.7792c0.408,0.4776 0.7739,0.9928 1.0131,1.4208c0.5637,-0.2631 1.1353,-0.5497 1.7,-0.8598c0.3368,-0.1851 0.6712,-0.3784 1,-0.5802v0.98h10.02v-1.34c0.067,0.0405 0.1341,0.0805 0.2013,0.12c0.265,0.1559 0.5313,0.3047 0.7987,0.4479c0.3377,0.181 0.6771,0.3532 1.0172,0.5201c0.3005,0.1474 0.6017,0.2906 0.9028,0.432c0.0386,-0.0916 0.0826,-0.1852 0.1314,-0.28c0.1964,-0.3815 0.4691,-0.7824 0.7656,-1.1478c0.2413,-0.2974 0.4984,-0.5712 0.743,-0.7922c-0.3448,-0.1242 -0.6886,-0.2545 -1.0314,-0.3923c-2.3617,-0.9489 -4.6756,-2.2494 -6.9286,-4.3277l0.077,-0.10418l0.603,-0.81582l-0.9057,-0.45707zM55.32,15.6h0.7321c-0.25593,-0.12513 -0.49997,-0.24727 -0.7321,-0.3664zM60.7483,12.5l-0.465,0.42h1.6742l0.0025,-0.14v-0.28zM62.96,12.5v0.28l-0.02,1.14h-2.96v2.28h2.82c-0.0347,0.331 -0.0779,0.6651 -0.1316,1c-0.2977,1.8565 -0.9165,3.7355 -2.1802,5.2161c-0.2166,0.2537 -0.4521,0.4957 -0.7082,0.7239c0.2345,0.1591 0.5111,0.3919 0.7783,0.644c0.0902,0.085 0.1793,0.1722 0.2653,0.2595c0.2681,0.2721 0.5068,0.5453 0.6564,0.7565c0.2468,-0.2379 0.4777,-0.4859 0.6936,-0.7428c0.9577,-1.1389 1.6218,-2.4507 2.0783,-3.815c0.1329,-0.3973 0.2483,-0.799 0.3481,-1.2022c0.2509,0.3302 0.5084,0.6778 0.7573,1.0234c0.2581,0.3585 0.5071,0.7148 0.7299,1.0473c0.2085,0.311 0.3941,0.6012 0.5431,0.8528c0.0032,0.0055 0.0065,0.011 0.0097,0.0165l0.0506,-0.0531l0.6648,-0.6972l0.9246,-0.9697c-0.3975,-0.4611 -1.7178,-2.0472 -2.6343,-3.06c-0.2171,-0.2399 -0.4115,-0.4476 -0.5657,-0.6006c-0.0136,-0.0136 -0.027,-0.0267 -0.04,-0.0394l0.04,-0.36h2.82v-2.28h-2.68l0.0175,-1l0.0025,-0.14v-1.28h2.42v-2.22h-2.42v-2.88h-2.28v2.88h-2.58v1v1.22h2.58zM67.56,12.5h-1.3201l-0.0001,0.2975l-0.0021,0.1225h1.3223zM68.56,12.92v4.84h2.28v-8.58h4.62v8.58h2.38v-10.66h-9.28zM75.9107,18.76h-0.2107v2.96h0.049c0.05607,-0.38313 0.0999,-1.06063 0.1315,-2.0325zM74.7,18.76v-1.62h-0.8c0.0758,-0.3356 0.1384,-0.6697 0.1894,-1c0.1374,-0.8901 0.1906,-1.7523 0.1906,-2.54v-3.18h-2.22v3.14c0,0.857 -0.0449,1.7821 -0.22,2.7283c-0.1514,0.8182 -0.4001,1.6522 -0.8014,2.4717c-0.6913,1.4121 -1.8355,2.7811 -3.7145,3.9516c-0.0118,0.0074 -0.0237,0.0148 -0.0356,0.0222c-0.2916,0.1803 -0.6008,0.3559 -0.9285,0.5262c0.0746,0.0551 0.1576,0.125 0.2455,0.2053c0.1618,0.1478 0.3403,0.3311 0.5137,0.5232c0.3133,0.3472 0.6098,0.7234 0.7608,0.9715c1.5911,-0.8448 2.8055,-1.8681 3.72,-2.9861c0.3844,-0.47 0.7159,-0.9567 1,-1.4539v1.8039c0.0009,1.7368 0.6412,2.2161 2.22,2.2161h1.38c1.98,0 2.34,-0.9 2.54,-3.96c-0.2545,-0.0566 -0.5669,-0.162 -0.8804,-0.2996c-0.3516,-0.1543 -0.7047,-0.3489 -0.9796,-0.5604c-0.0146,0.4484 -0.0305,0.833 -0.0498,1.1622c-0.0866,1.4767 -0.2413,1.8378 -0.6502,1.8378h-0.92c-0.38,0 -0.56,-0.16 -0.56,-0.66zM69.1961,19.7911c0.2672,-0.3284 0.504,-0.6721 0.7104,-1.0311h-1.5878c0.08133,0.09587 0.1638,0.1932 0.2474,0.292c0.24687,0.29193 0.40397,0.47697 0.4713,0.5551zM67.56,17.8712v-0.6712h-0.5815c0.1782,0.20387 0.37203,0.4276 0.5815,0.6712zM45.44,24.96v-0.88h7.94v0.8h2.58v-8.28h-12.98v8.36zM38.1792,12.9791c0.0005,-0.0329 0.0008,-0.0659 0.0008,-0.0991c0,-0.056 -0.0007,-0.1114 -0.002,-0.1662c-0.0793,-3.26976 -2.5094,-4.3338 -5.578,-4.3338h-5.14v1v12.82v1h2.96v-5.6h2.06l3.04,5.6h3.3l-0.571,-1l-2.3885,-4.1834l-0.5005,-0.8766c0.3199,-0.1242 0.6194,-0.2739 0.8946,-0.45c1.1654,-0.7452 1.898,-1.962 1.9246,-3.7109zM11.9,7.38v4.48h-6.12v1.42h5.18v4.48h-5.18v1.96h6.34v4.48h-11.3v-16.82zM4.78,11.86v-1h6.12v-2.48h-9.08v14.82h9.3v-2.48h-6.34v-3.96h5.18v-2.48h-5.18zM18.98,7.38c1.99367,0 3.5614,0.39936 4.7032,1.19808c1.39787,0.97781 2.0968,2.46512 2.0968,4.46192c0,1.94047 -0.6846,3.44283 -2.0538,4.5071c-1.1948,0.9286 -2.7502,1.3929 -4.6662,1.3929h-0.98v5.26h-4.96v-16.82zM17.08,18.94v-1h1.98c3.18,0 5.72,-1.52 5.72,-4.9c0,-3.5 -2.52,-4.66 -5.8,-4.66h-4.86v14.82h2.96zM46.16,12.66c0.4415,-0.3218 0.8746,-0.6548 1.2962,-1c0.6804,-0.5572 1.3307,-1.1462 1.9377,-1.77159l0.0661,-0.06841c0.0318,0.03068 0.0635,0.0612 0.0952,0.09156c0.6793,0.65004 1.3519,1.22774 2.0178,1.74844c0.4588,0.3587 0.9145,0.6904 1.367,1h-5.1306zM48.992,11.66h1.0043c-0.17327,-0.14853 -0.34483,-0.2993 -0.5147,-0.4523c-0.15927,0.15133 -0.32247,0.3021 -0.4896,0.4523zM17.08,10.74h1.68c2.04,0 3.12,0.58 3.12,2.3c0,1.7 -0.98,2.56 -3.02,2.56h-1.78v-1zM18.86,14.6c0.76953,0 1.31123,-0.1342 1.6251,-0.4026c0.26327,-0.22507 0.3949,-0.61087 0.3949,-1.1574c0,-0.482 -0.12017,-0.80543 -0.3605,-0.9703c-0.3206,-0.2198 -0.9071,-0.3297 -1.7595,-0.3297h-0.68v2.86zM30.42,10.74h1.92c1.9,0 2.94,0.54 2.94,2.14c0,1.58 -1.04,2.38 -2.94,2.38h-1.92zM31.42,14.26h0.92c0.7228,0 1.24223,-0.12627 1.5583,-0.3788c0.25447,-0.20327 0.3817,-0.537 0.3817,-1.0012c0,-0.41847 -0.10533,-0.69863 -0.316,-0.8405c-0.29653,-0.19967 -0.83787,-0.2995 -1.624,-0.2995h-0.92zM45.44,18.7h7.94v3.16h-7.94zM46.44,19.7v1.16h5.94v-1.16z"></path></g></g></g></g><defs><rect id="path_0" x="0" y="0" width="246.6684112548828" height="182.1644287109375" /></defs></svg>