<?xml version="1.0" standalone="no"?><!DOCTYPE svg PUBLIC "-//W3C//DTD SVG 1.1//EN" "http://www.w3.org/Graphics/SVG/1.1/DTD/svg11.dtd"><svg class="icon" width="32px" height="32.00px" viewBox="0 0 1024 1024" version="1.1" xmlns="http://www.w3.org/2000/svg"><path d="M341.334 847.442H17.656A17.658 17.658 0 0 1 0 829.786V194.202a17.658 17.658 0 0 1 17.656-17.656h323.678v670.896z" fill="#41479B" /><path d="M341.34 176.554h341.34v670.9H341.34z" fill="#FFE15A" /><path d="M1006.344 847.442H682.666V176.546h323.678A17.658 17.658 0 0 1 1024 194.202v635.584a17.656 17.656 0 0 1-17.656 17.656z" fill="#FF4B55" /><path d="M632.044 569.376a9.28 9.28 0 0 0-9.28-9.28c-1.112 0-2.164 0.228-3.154 0.588-4.592-4.084-12.914-14.218-4.564-28.528a6.6 6.6 0 0 0 4.07 1.422 6.664 6.664 0 0 0 6.664-6.664 6.644 6.644 0 0 0-4.472-6.266c6.862-3.5 16.648-10.93 16.144-24.824-0.718-19.704-16.858-30.58-26.76-26.232 0.036-0.276 0.084-0.548 0.084-0.832a6.572 6.572 0 0 0-6.572-6.572 6.55 6.55 0 0 0-5.382 2.818c-0.404-1.97-0.356-5.628 4.224-9.582 8.506-7.346 18.172-24.938 0.58-37.31-9.742-6.85-28.362-10.132-34.602-0.772-2.706 4.058-0.536 9.89 2.554 11.2-4.978 2.776-14.422 6.942-21.884 3.686-10.632-4.638-4.492-13.852-2.126-17.978 4.156-7.25 1.548-19.138-12.372-19.138-9.28 0-13.918 9.28-23.196 9.28-9.278 0-13.918-9.28-23.196-9.28-13.918 0-16.528 11.888-12.372 19.138 2.366 4.124 8.506 13.338-2.126 17.978-7.462 3.258-16.904-0.91-21.884-3.686 3.088-1.308 5.26-7.14 2.554-11.2-6.238-9.358-24.86-6.078-34.602 0.772-17.592 12.372-7.924 29.962 0.58 37.31 4.58 3.954 4.628 7.614 4.224 9.582a6.556 6.556 0 0 0-5.382-2.818 6.572 6.572 0 0 0-6.572 6.572c0 0.284 0.048 0.558 0.084 0.832-9.902-4.35-26.044 6.528-26.76 26.232-0.506 13.892 9.282 21.322 16.144 24.824a6.646 6.646 0 0 0 2.192 12.93c1.54 0 2.94-0.542 4.07-1.422 8.35 14.31 0.03 24.444-4.564 28.528a9.18 9.18 0 0 0-3.154-0.588 9.28 9.28 0 0 0-9.28 9.28c0 4.81 3.674 8.72 8.364 9.188-6.396 6.57-12.134 21.05 0.336 37.498 13.628 17.978 46.104 16.528 61.762 17.108 9.928 0.368 17.396 5.508 21.542 9.226-2.65 1.634-4.434 4.538-4.434 7.88 0 4.686 3.486 8.52 8 9.15a9.244 9.244 0 0 0 7.852 4.382c3.712 0 6.89-2.194 8.376-5.346 4.9 4.038 8.25 5.732 8.25 5.732s3.35-1.692 8.25-5.732a9.26 9.26 0 0 0 8.376 5.346 9.244 9.244 0 0 0 7.852-4.382c4.514-0.63 8-4.464 8-9.15a9.242 9.242 0 0 0-4.434-7.88c4.144-3.718 11.612-8.86 21.542-9.226 15.658-0.58 48.134 0.87 61.762-17.108 12.468-16.448 6.732-30.93 0.336-37.498 4.682-0.47 8.356-4.378 8.356-9.188z" fill="#DCBE82" /><path d="M428.49 450.198v134.546c0 15.374 12.462 27.838 27.838 27.838h37.116c13.918 0 18.558 9.28 18.558 9.28s4.638-9.28 18.558-9.28h37.116c15.374 0 27.838-12.462 27.838-27.838v-134.546a4.638 4.638 0 0 0-4.638-4.638h-157.742a4.64 4.64 0 0 0-4.644 4.638z" fill="#D2AA73" /><path d="M437.76 454.834h69.592v69.592H437.76zM507.36 603.302c-38.436 0-69.592-31.156-69.592-69.592h69.592v69.592z" fill="#FF4B55" /><path d="M516.64 603.302v-69.592h69.592c-0.002 38.432-31.16 69.592-69.592 69.592zM516.64 454.834h9.942v69.592h-9.942z" fill="#FFE15A" /><path d="M526.58 454.834h9.942v69.592h-9.942z" fill="#FF4B55" /><path d="M536.52 454.834h9.942v69.592h-9.942z" fill="#FFE15A" /><path d="M546.48 454.834h9.942v69.592h-9.942z" fill="#FF4B55" /><path d="M556.4 454.834h9.942v69.592H556.4zM576.28 454.834h9.942v69.592h-9.942z" fill="#FFE15A" /><path d="M566.36 454.834h9.942v69.592h-9.942zM460.96 533.714h7.732v69.592h-7.732z" fill="#FF4B55" /><path d="M468.7 533.714h7.732v69.592h-7.732zM484.18 533.714h7.732v69.592h-7.732z" fill="#FFE15A" /><path d="M476.42 533.714h7.732v69.592h-7.732z" fill="#FF4B55" /><path d="M499.62 533.714h7.732v69.592h-7.732z" fill="#FFE15A" /><path d="M491.9 533.714h7.732v69.592h-7.732z" fill="#FF4B55" /><path d="M445.5 599.762v-66.052h-7.732v51.034c0 6.194 3.066 11.646 7.732 15.018z" fill="#FFE15A" /><path d="M453.234 602.99v-69.282h-7.732v66.052a18.37 18.37 0 0 0 7.732 3.23z" fill="#FF4B55" /><path d="M453.234 533.71v69.282c1.01 0.17 2.032 0.312 3.094 0.312h4.638v-69.592h-7.732v-0.002z" fill="#FFE15A" /><path d="M448.14 520.48a1.826 1.826 0 0 1-1.006-0.302c-4.562-3.02-4.828-6.164-4.58-7.768 0.334-2.168 1.946-3.966 4.108-4.584 2.056-0.578 4.106 0.028 5.492 1.638 2.88 3.348 5.854 4.666 8.358 3.74 1.982-0.734 3.164-2.688 3.164-4.148a1.826 1.826 0 1 1 3.656 0c0 3.196-2.332 6.382-5.548 7.574-2.35 0.868-7.076 1.404-12.4-4.782-0.572-0.66-1.244-0.64-1.72-0.508-0.648 0.186-1.366 0.762-1.498 1.624-0.194 1.26 0.894 2.776 2.984 4.162a1.828 1.828 0 0 1-1.01 3.354zM497.206 520.48a1.83 1.83 0 0 1-1.008-3.35c2.09-1.386 3.178-2.902 2.984-4.162-0.134-0.862-0.85-1.438-1.498-1.624-0.476-0.132-1.15-0.154-1.72 0.508-5.324 6.19-10.052 5.654-12.4 4.782-3.216-1.192-5.548-4.38-5.548-7.574a1.826 1.826 0 1 1 3.656 0c0 1.46 1.182 3.412 3.164 4.148 2.504 0.93 5.48-0.392 8.358-3.74 1.386-1.618 3.438-2.22 5.492-1.638 2.16 0.618 3.774 2.416 4.108 4.584 0.248 1.602-0.018 4.748-4.58 7.768a1.896 1.896 0 0 1-1.008 0.298z" fill="#F5F5F5" /><path d="M447.134 522.648a1.83 1.83 0 0 1-1.454-2.932l39.728-52.238c0.38-0.686 0.524-1.636 0.688-2.73 0.306-2.052 0.69-4.606 3.822-6.49 2.042-1.224 4.464-1.19 6.49 0.104 2.236 1.428 3.554 4.088 3.282 6.618-0.164 1.538-1.062 4.344-5.224 5.886a1.828 1.828 0 0 1-1.272-3.424c1.214-0.45 2.696-1.31 2.86-2.85 0.126-1.168-0.538-2.458-1.616-3.15-0.602-0.386-1.548-0.716-2.638-0.05-1.658 0.996-1.822 2.088-2.094 3.898-0.192 1.282-0.41 2.734-1.266 4.212l-39.854 52.426a1.81 1.81 0 0 1-1.452 0.72z" fill="#FFE15A" /><path d="M472.816 465.192l-18.276 21.932 7.31 21.932h21.932l7.31-21.932z" fill="#FFE15A" /><path d="M472.816 462.336l-20.332 24.398 8.048 24.148h24.564l8.048-24.148-20.328-24.398z m-16.222 25.176l14.394-17.272v36.986h-7.822l-6.572-19.714z m25.87 19.716h-7.822v-36.986l14.394 17.272-6.572 19.714z" fill="#F5F5F5" /><path d="M569.122 555.682l0.276-4.054s3.596-2.58 1.842-4.976c-1.75-2.396-3.778-2.858-8.018-2.304-4.24 0.554-10.876 0.462-13.732 0.644-2.858 0.186-4.332 1.75-8.848 0.462l1.198-2.766s-2.118 0.186-3.41 0.83c-0.704 0.354-2.396-1.936-4.054-1.566-1.652 0.366-3.316 3.778-5.9 5.53l1.382 2.766s1.566-0.738 2.766 0.092c1.198 0.83 1.566 1.382 3.596 1.382l1.292 0.554s-0.462 2.948 1.474 4.332c0 0-2.212 2.858-1.936 3.316 0.276 0.462 2.118 3.964 2.858 5.99l1.66-3.134s-2.49-2.212-2.028-2.49c0.462-0.276 2.118-0.644 1.842-1.382s1.292 0.092 3.042 0.368c0 0 0.092 2.766 0.462 3.134s0.922 1.842 0.83 3.41c-0.092 1.566-1.474 2.028-1.474 2.028l2.49 0.738s0.644-0.922 1.106-0.83c0 0-0.186-7.65 0.83-8.848 0 0 5.99 1.198 8.754-0.276 0 0 0.354 0.446 1.044 0.87-0.276 0.642-0.51 1.282-0.406 1.47 0.232 0.418 0.972 0.37 1.156-0.092 0.07-0.174 0.178-0.532 0.286-0.902 0.334 0.11 0.7 0.196 1.118 0.238-0.04 0.582-0.044 1.118 0.09 1.242 0.348 0.322 1.038 0.048 1.07-0.45 0.012-0.162 0.004-0.468-0.004-0.796 0.476-0.04 0.984-0.124 1.544-0.29l-3.134 5.162-1.566 0.644 2.028 1.014 1.842-0.738s1.75-4.424 4.608-5.714c0 0 1.936 4.608-0.462 7.098l2.118 1.198 1.014-2.12s-0.368-4.146 1.014-6.82l-1.66-3.964z" fill="#FF4B55" /><path d="M534.416 542.51s-0.924-0.878-1.156-2.034-0.51-1.666-1.528-1.988c0 0 0.646 0.74 0.556 1.896-0.092 1.156 0 2.73 0.646 3.238l1.482-1.112zM542.466 545.772s-1.258 4.276-4.954 6.5l-1.288-0.554s3.946-3.372 4.424-6.268l1.818 0.322zM536.174 543.528c-0.132-0.136 1.62-0.646 1.202-2.034-0.418-1.388-0.418-2.406 0.418-3.052 0 0 0.092 1.156 0.74 1.896 0.646 0.74 1.018 2.59-0.046 3.654 0 0-1.066 0.832-2.314-0.464zM536.374 556.14a0.448 0.448 0 0 1-0.204-0.598l0.558-1.136c0.326-0.666 0.11-1.494-0.532-1.864a1.392 1.392 0 0 0-1.946 0.592l-0.58 1.18a0.448 0.448 0 0 1-0.598 0.204l-0.348 0.708 1.132 0.556-0.014 0.026a0.578 0.578 0 1 0 1.038 0.51l0.014-0.026 1.132 0.556 0.348-0.708zM540.848 563.928l1.386 0.278-1.158 3.562-1.168-1.858zM544.24 567.846l-0.848 1.496h3.33l0.006-0.758zM560.644 566.74v0.89h-3.78l1.828-1.828zM566.634 567.384l-1.866 1.87h3.928l0.058-0.67z" fill="#4173CD" /><path d="M569.122 584.558l0.276-4.054s3.596-2.58 1.842-4.976c-1.75-2.396-3.778-2.858-8.018-2.304-4.24 0.554-10.876 0.462-13.732 0.644-2.858 0.186-4.332 1.75-8.848 0.462l1.198-2.766s-2.118 0.186-3.41 0.83c-0.704 0.354-2.396-1.936-4.054-1.566-1.652 0.366-3.316 3.778-5.9 5.53l1.382 2.766s1.566-0.738 2.766 0.092c1.198 0.83 1.566 1.382 3.596 1.382l1.292 0.554s-0.462 2.948 1.474 4.332c0 0-2.212 2.858-1.936 3.316 0.276 0.462 2.118 3.964 2.858 5.99l1.66-3.134s-2.49-2.212-2.028-2.49c0.462-0.276 2.118-0.644 1.842-1.382-0.276-0.738 1.292 0.092 3.042 0.368 0 0 0.092 2.766 0.462 3.134s0.922 1.842 0.83 3.41c-0.092 1.566-1.474 2.028-1.474 2.028l2.49 0.738s0.644-0.922 1.106-0.83c0 0-0.186-7.65 0.83-8.848 0 0 5.99 1.198 8.754-0.276 0 0 0.354 0.446 1.044 0.87-0.276 0.642-0.51 1.282-0.406 1.47 0.232 0.418 0.972 0.37 1.156-0.092 0.07-0.174 0.178-0.532 0.286-0.902 0.334 0.11 0.7 0.196 1.118 0.238-0.04 0.582-0.044 1.118 0.09 1.242 0.348 0.322 1.038 0.048 1.07-0.45 0.012-0.162 0.004-0.468-0.004-0.796 0.476-0.04 0.984-0.124 1.544-0.29l-3.134 5.162-1.566 0.644 2.028 1.014 1.842-0.738s1.75-4.424 4.608-5.714c0 0 1.936 4.608-0.462 7.098l2.118 1.198 1.014-2.12s-0.368-4.146 1.014-6.82l-1.66-3.964z" fill="#FF4B55" /><path d="M534.416 571.388s-0.924-0.878-1.156-2.034-0.51-1.666-1.528-1.988c0 0 0.646 0.74 0.556 1.896-0.092 1.156 0 2.73 0.646 3.238l1.482-1.112zM542.466 574.65s-1.258 4.276-4.954 6.5l-1.292-0.554s3.946-3.372 4.424-6.268l1.822 0.322zM536.174 572.406c-0.132-0.136 1.62-0.646 1.202-2.034-0.418-1.388-0.418-2.406 0.418-3.052 0 0 0.092 1.156 0.74 1.896 0.646 0.74 1.018 2.59-0.046 3.654 0 0-1.066 0.83-2.314-0.464zM536.374 585.018a0.448 0.448 0 0 1-0.204-0.598l0.558-1.136c0.326-0.666 0.11-1.494-0.532-1.864a1.392 1.392 0 0 0-1.946 0.592l-0.58 1.18a0.448 0.448 0 0 1-0.598 0.204l-0.348 0.708 1.132 0.556-0.014 0.026a0.578 0.578 0 1 0 1.038 0.51l0.014-0.026 1.132 0.556 0.348-0.708zM540.848 592.806l1.386 0.278-1.158 3.562-1.168-1.858zM544.24 596.724l-0.848 1.496h3.33l0.006-0.76zM560.644 595.618v0.89h-3.78l1.828-1.828zM566.634 596.262l-1.866 1.87h3.928l0.058-0.672z" fill="#4173CD" /></svg>