<svg xmlns="http://www.w3.org/2000/svg" xmlns:xlink="http://www.w3.org/1999/xlink" width="219.8341827392578" height="175.99000549316406" viewBox="0 0 219.8341827392578 175.99000549316406" fill="none"><g opacity="1"  transform="translate(0 0)  rotate(0)"><path id="矩形 1" fill-rule="evenodd" style="fill:#DCC4FB" opacity="1" d="M15 175.99L204.83 175.99C213.11 175.99 219.83 169.27 219.83 160.99L219.83 15C219.83 6.72 213.11 0 204.83 0L15 0C6.72 0 0 6.72 0 15L0 160.99C0 169.27 6.72 175.99 15 175.99Z"></path><g opacity="1"  transform="translate(14.449188232421875 10.29180908203125)  rotate(0)"><mask id="bg-mask-0" fill="white"><use transform="translate(0 0)  rotate(0)" xlink:href="#path_0"></use></mask><g mask="url(#bg-mask-0)" ><path id="路径 1" fill-rule="evenodd" style="fill:#508DEF" opacity="1" d="M78.4388 153.854C120.869 153.854 155.309 119.734 155.309 77.7041C155.309 35.6741 120.869 1.55405 78.4388 1.55405C36.0088 1.55405 1.56877 35.6741 1.56877 77.7041C1.56877 119.734 36.0088 153.854 78.4388 153.854Z"></path><path id="路径 2" fill-rule="evenodd" style="fill:#1C1D21" opacity="1" d="M78.44,155.41c-20.96,0 -40.66,-8.09 -55.47,-22.76c-14.81,-14.67 -22.97,-34.18 -22.97,-54.95c0,-20.76 8.16,-40.28 22.97,-54.95c14.81,-14.67 34.51,-22.75 55.47,-22.75c20.96,0 40.66,8.08 55.47,22.75c14.81,14.67 22.97,34.19 22.97,54.95c0,20.77 -8.16,40.28 -22.97,54.95c-14.81,14.67 -34.51,22.76 -55.47,22.76zM3.14,77.7c0,41.12 33.79,74.6 75.3,74.6c41.51,0 75.3,-33.48 75.3,-74.6c0,-41.12 -33.79,-74.59 -75.3,-74.59c-41.51,0 -75.3,33.47 -75.3,74.59z"></path><path id="路径 3" fill-rule="evenodd" style="fill:#FFC5B3" opacity="1" d="M91.6147 117.707C87.8247 115.377 85.4947 111.267 85.4947 106.827L85.4947 102.977C85.4947 100.827 86.7847 98.9266 88.7247 97.9966C97.0747 94.1166 102.845 85.7266 102.845 75.9666L102.845 64.7766C102.845 51.3466 91.8347 40.4366 78.2847 40.4366C64.7247 40.4366 53.7147 51.3466 53.7147 64.7766L53.7147 75.9666C53.7147 85.6866 59.4847 94.1166 67.8347 97.9966C69.7747 98.8966 71.0647 100.827 71.0647 102.977L71.0647 106.827C71.0647 111.267 68.7447 115.377 64.9447 117.707L55.3147 123.577C47.6947 128.237 43.0147 136.387 42.7647 145.207C53.4647 150.717 65.5747 153.857 78.4347 153.857C91.1747 153.857 103.225 150.777 113.795 145.337C113.615 136.447 108.905 128.237 101.245 123.577L91.6147 117.707Z"></path><path id="路径 4" fill-rule="evenodd" style="fill:#FFECE9" opacity="1" d="M91.6174 117.707C90.4874 117.017 89.4874 116.147 88.6374 115.187L81.3274 121.617C79.5974 123.147 77.0274 123.147 75.2974 121.617L67.9874 115.187C67.1474 116.147 66.1374 117.017 65.0074 117.707L55.3774 123.577C47.7574 128.237 43.0774 136.387 42.8274 145.207C53.4674 150.717 65.5774 153.847 78.4374 153.847C91.1774 153.847 103.227 150.777 113.797 145.337C113.607 136.447 108.907 128.237 101.247 123.577L91.6174 117.707Z"></path><path id="路径 5" fill-rule="evenodd" style="fill:#FF3E63" opacity="1" d="M78.4422 153.848C79.9422 153.848 81.4222 153.788 82.8922 153.728L78.3122 129.298L73.7322 153.698C75.3022 153.788 76.8422 153.848 78.4422 153.848Z"></path><path id="路径 6" fill-rule="evenodd" style="fill:#1C1D21" opacity="1" d="M78.4362,155.404c-1.54,0 -3.1,-0.06 -4.8,-0.15c-0.44,-0.03 -0.88,-0.25 -1.13,-0.59c-0.28,-0.35 -0.37,-0.81 -0.31,-1.25l4.58,-24.4c0.12,-0.74 0.78,-1.27 1.54,-1.27c0.75,0 1.41,0.53 1.53,1.27l4.58,24.43c0.1,0.44 -0.03,0.91 -0.31,1.25c-0.28,0.34 -0.69,0.56 -1.13,0.59c-1.57,0.09 -3.1,0.12 -4.55,0.12zM81.0162,152.234l-2.7,-14.42l-2.7,14.42c1.82,0.06 3.54,0.06 5.4,0z"></path><path id="路径 7" fill-rule="evenodd" style="fill:#FFC5B3" opacity="1" d="M50.1344,74.535c-3.07,0 -5.55,-2.46 -5.55,-5.5v-1.87c0,-3.04 2.48,-5.5 5.55,-5.5h3.45v12.87zM106.524,74.535h-3.46v-12.87h3.46c3.07,0 5.55,2.46 5.55,5.5v1.87c0,3.04 -2.51,5.5 -5.55,5.5z"></path><path id="路径 8" fill-rule="evenodd" style="fill:#1C1D21" opacity="1" d="M53.5857,76.091h-3.45c-3.92,0 -7.12,-3.17 -7.12,-7.06v-1.86c0,-3.89 3.2,-7.06 7.12,-7.06h3.45c0.88,0 1.57,0.68 1.57,1.55v12.87c0,0.84 -0.69,1.56 -1.57,1.56zM46.1557,67.171v1.86c0,2.18 1.79,3.95 3.98,3.95h1.88v-9.76h-1.88c-2.19,0 -3.98,1.77 -3.98,3.95zM106.516,76.091h-3.45c-0.88,0 -1.57,-0.69 -1.57,-1.56v-12.87c0,-0.87 0.69,-1.55 1.57,-1.55h3.45c3.93,0 7.13,3.17 7.13,7.06v1.86c0,3.89 -3.2,7.06 -7.13,7.06zM106.486,72.981c2.2,0 3.99,-1.77 3.99,-3.95v-1.86c0,-2.18 -1.79,-3.95 -3.99,-3.95h-1.88v9.76z"></path><path id="路径 9" fill-rule="evenodd" style="fill:#FF8939" opacity="1" d="M76.1843 40.4955C64.6343 41.4655 55.3743 50.3555 53.9343 61.6655C75.2743 61.6055 78.4043 50.7855 78.4043 50.7855C78.4043 50.7855 81.5143 61.5055 102.694 61.6355C101.154 49.6655 90.8343 40.4055 78.3143 40.4055C77.5943 40.4055 76.9043 40.4355 76.1843 40.4955Z"></path><path id="路径 10" fill-rule="evenodd" style="fill:#1C1D21" opacity="1" d="M53.9312,63.2225c-0.44,0 -0.88,-0.19 -1.16,-0.53c-0.31,-0.34 -0.44,-0.78 -0.37,-1.21c1.53,-12.03 11.48,-21.48 23.65,-22.51c0.76,-0.06 1.51,-0.09 2.26,-0.09c13.12,0 24.2898,9.73 25.9198,22.6c0.06,0.43 -0.1,0.9 -0.38,1.21c-0.31,0.34 -0.72,0.53 -1.19,0.53c-15.3398,-0.1 -21.7398,-5.63 -24.2498,-9.14c-2.55,3.54 -8.98,9.07 -24.48,9.14zM76.3412,42.0525c-10.11,0.87 -18.48,8.33 -20.52,18.03c9.22,-0.31 14.4,-2.83 17.19,-4.91c3.14,-2.37 3.89,-4.79 3.92,-4.79c0.19,-0.65 0.82,-1.12 1.51,-1.12c0.69,0 1.32,0.47 1.5,1.12c0,0 0.79,2.39 3.89,4.76c2.76,2.11 7.91,4.6 17.0398,4.94c-2.2598,-10.48 -11.6098,-18.12 -22.5598,-18.12c-0.66,0 -1.32,0.03 -1.97,0.09z"></path><path id="路径 11" fill-rule="evenodd" style="fill:#1C1D21" opacity="1" d="M113.929,146.83c-0.82,0 -1.51,-0.62 -1.57,-1.43c-0.38,-5.01 -1.67,-9.23 -3.89,-12.96c-0.51,-0.53 -0.85,-1.06 -1.2,-1.62c-0.12,-0.19 -0.25,-0.37 -0.4,-0.62c-2.8,-3.48 -6.47,-5.47 -10.3303,-7.58c-2.2901,-1.25 -4.64,-2.55 -6.9001,-4.2c-0.03,0 -0.03,-0.03 -0.06,-0.03c-1.5699,-1.25 -2.98,-2.89 -4.14,-4.76c-0.0699,-0.09 -0.0999,-0.18 -0.16,-0.31c-0.1299,-0.37 -0.25,-0.74 -0.3799,-1.09c-0.5,-1.46 -0.9701,-2.82 -1.25,-4.41v-0.09c-0.28,-2.68 -0.3201,-6.62 2.5699,-9.8901c0.03,-0.03 0.03,-0.06 0.06,-0.06c1.29,-1.27 2.89,-2.14 4.43,-2.95c0.9401,-0.5 1.85,-1 2.6601,-1.56c3.5499,-2.64 5.3099,-6.62 6.6903,-10.16c1.82,-5.19 1.53,-10.57 1.25,-16.25c-0.09,-1.68 -0.19,-3.42 -0.22,-5.16c0,-0.87 0.69,-1.56 1.54,-1.59c0.88,0 1.57,0.68 1.6,1.52c0.03,1.68 0.13,3.39 0.22,5.04c0.31,5.72 0.6,11.65 -1.41,17.44c0,0.03 0,0.03 -0.03,0.06c-1.54,3.95 -3.5204,8.42 -7.7503,11.56c0,0 -0.03,0 -0.03,0.03c-0.9801,0.68 -2.0101,1.24 -3.0201,1.77c-1.38,0.75 -2.69,1.43 -3.6699,2.4c-1.53,1.7701 -2.1001,4.1301 -1.7901,7.4201c0.22,1.34 0.63,2.52 1.13,3.89c0.1001,0.31 0.22,0.62 0.3501,0.96c0.9399,1.49 2.0699,2.8 3.2899,3.79c2.0701,1.53 4.36,2.77 6.53,3.95c3.9804,2.18 8.1304,4.45 11.2904,8.46c0.04,0.03 0.07,0.06 0.07,0.09c0.19,0.25 0.31,0.5 0.47,0.71c0.34,0.53 0.56,0.91 0.91,1.22c0.09,0.09 0.15,0.18 0.22,0.28c2.57,4.19 4.01,8.92 4.45,14.48c0.07,0.87 -0.59,1.62 -1.44,1.68c0,-0.03 -0.06,-0.03 -0.09,-0.03zM42.8287,146.77c-0.88,0 -1.57,-0.72 -1.57,-1.59c0.03,-2.61 0.25,-4.63 0.72,-6.62c0,-0.03 0.03,-0.06 0.03,-0.12c2.1699,-6.84 5.78,-11.78 11.02,-15.14c1.34,-0.87 2.66,-1.65 3.95,-2.43c3.7999,-2.3 7.3699,-4.47 10.5399,-7.61c1.73,-1.71 2.0701,-4.63 2.3501,-7.18l0.0399,-0.19v-0.77c0.0301,-2.33 -0.0399,-3.83 -1.17,-4.67c-3.6999,-2.0201 -6.58,-3.9701 -9.28,-6.3701l-0.07,-0.06c-3.98,-3.95 -6.3599,-8.86 -7.0199,-14.61c-0.4401,-4.22 -0.29,-8.45 -0.1,-12.52c0.0699,-1.74 0.1599,-3.55 0.1599,-5.29c0,-0.84 0.7201,-1.52 1.57,-1.52h0.0301c0.8799,0 1.57,0.71 1.5399,1.59c-0.0299,1.77 -0.0999,3.6 -0.16,5.37c-0.16,3.95 -0.34,8.05 0.09,12.06c0.6001,4.97 2.64,9.26 6.1201,12.71c2.58,2.27 5.21,4.04 8.7899,6c0.0601,0.03 0.09,0.06 0.15,0.1c2.6401,1.86 2.58,4.8801 2.5501,7.3001v0.99l-0.0401,0.28c-0.3099,2.93 -0.72,6.56 -3.2299,9.05c-3.4201,3.39 -7.15,5.66 -11.14,8.05c-1.25,0.78 -2.57,1.55 -3.89,2.39c-4.58,2.92 -7.75,7.31 -9.69,13.4c-0.41,1.74 -0.6,3.54 -0.63,5.87c-0.09,0.84 -0.78,1.53 -1.66,1.53z"></path><path id="路径 12" fill-rule="evenodd" style="fill:#1C1D21" opacity="1" d="M78.4387,155.411c-12.64,0 -25.1901,-3.05 -36.33,-8.83c-0.54,-0.28 -0.85,-0.84 -0.85,-1.43c0.25,-9.42 5.21,-17.97 13.27,-22.91l9.63,-5.87c0.9799,-0.59 1.86,-1.34 2.64,-2.24c0.25,-0.28 0.6,-0.47 0.97,-0.53c0.4699,-0.06 0.9099,0.06 1.26,0.37l7.31,6.44c1.13,0.99 2.82,0.99 3.95,0l7.3099,-6.44c0.28,-0.24 0.6601,-0.4 1.0401,-0.4c0.47,0 0.91,0.19 1.19,0.53c0.75,0.87 1.6299,1.61 2.6299,2.24l9.6404,5.87c8.12,4.97 13.08,13.58 13.27,23.06c0,0.59 -0.32,1.15 -0.85,1.4c-11.07,5.72 -23.5304,8.74 -36.0803,8.74zM78.4387,152.301c11.89,0 23.2203,-2.64 33.7603,-7.9c-0.47,-8.02 -4.83,-15.26 -11.77,-19.52l-9.6303,-5.87c-0.8101,-0.5 -1.57,-1.06 -2.26,-1.71l-6.21,5.44c-2.32,2.02 -5.8,2.02 -8.0901,0l-6.2199,-5.44c-0.69,0.65 -1.44,1.21 -2.26,1.71l-9.63,5.87c-6.84,4.23 -11.17,11.41 -11.7001,19.4c10.4801,5.25 22.21,8.02 34.0101,8.02z"></path><path id="路径 13" fill-rule="evenodd" style="fill:#FF3E63" opacity="1" d="M87.7876 117.704L85.7776 117.704L81.3276 121.594C79.5976 123.114 77.0276 123.114 75.2976 121.594L70.8476 117.704L68.8376 117.704L75.6776 130.574C76.9676 133.024 79.6576 133.024 80.9476 130.574L87.7876 117.704Z"></path><path id="路径 14" fill-rule="evenodd" style="fill:#1C1D21" opacity="1" d="M78.3126,133.959c-1.63,0 -3.14,-0.99 -4.05,-2.67l-6.81,-12.9c-0.25,-0.47 -0.25,-1.06 0.04,-1.52c0.28,-0.47 0.78,-0.75 1.35,-0.75h2c0.38,0 0.76,0.12 1.04,0.4l4.45,3.89c1.13,0.99 2.83,0.99 3.96,0l4.45,-3.89c0.28,-0.24 0.66,-0.4 1.04,-0.4h2.01c0.56,0 1.06,0.28 1.34,0.75c0.29,0.46 0.32,1.05 0.04,1.52l-6.84,12.87c-0.88,1.71 -2.39,2.7 -4.02,2.7zM77.0626,129.829c0.34,0.62 0.81,1.02 1.25,1.02c0.44,0 0.91,-0.37 1.26,-1.02l4.61,-8.67l-1.82,1.58c-2.32,2.02 -5.81,2.02 -8.1,0l-1.82,-1.58z"></path><path id="路径 15" fill-rule="evenodd" style="fill:#FFECE9" opacity="1" d="M67.9912,115.156c-0.03,0 -0.03,0 0,0zM67.9912,115.156l7.31,6.43l-10.26,9.89v-13.83c0.25,-0.16 0.47,-0.31 0.69,-0.47c0.06,-0.06 0.16,-0.09 0.22,-0.16c0.19,-0.15 0.41,-0.31 0.6,-0.46c0,-0.03 0.03,-0.03 0.06,-0.06c0.22,-0.16 0.44,-0.38 0.63,-0.56l0.15,-0.16c0.19,-0.18 0.41,-0.4 0.6,-0.62zM88.6312,115.156c0,0 0.04,0 0,0zM88.6312,115.156c0.19,0.22 0.41,0.44 0.6,0.62l0.16,0.16c0.19,0.18 0.41,0.4 0.62,0.56c0.04,0.03 0.07,0.03 0.07,0.06c0.19,0.15 0.41,0.31 0.59,0.46c0.07,0.07 0.16,0.1 0.22,0.16c0.22,0.16 0.44,0.31 0.69,0.47v13.83l-10.26,-9.89z"></path><path id="路径 16" fill-rule="evenodd" style="fill:#1C1D21" opacity="1" d="M65.0424,133.027c-0.22,0 -0.41,-0.03 -0.6,-0.12c-0.59,-0.25 -0.97,-0.81 -0.97,-1.43v-13.83c0,-0.53 0.28,-1.03 0.75,-1.31c0.19,-0.12 0.38,-0.25 0.6,-0.4c0.06,-0.04 0.12,-0.1 0.19,-0.16c0.19,-0.16 0.37,-0.28 0.53,-0.4l0.06,-0.07c0.16,-0.12 0.35,-0.31 0.54,-0.49l0.12,-0.13c0.19,-0.22 0.38,-0.37 0.5,-0.53c0,-0.03 0.04,-0.03 0.07,-0.06c0.25,-0.25 0.56,-0.43 0.94,-0.46c0.47,-0.07 0.91,0.06 1.25,0.37l7.31,6.43c0.32,0.28 0.51,0.69 0.54,1.12c0,0.44 -0.16,0.84 -0.47,1.15l-10.26,9.89c-0.32,0.27 -0.72,0.43 -1.1,0.43zM66.6124,118.477c0,0 0,-0.03 0,0zM73.0124,121.647l-4.93,-4.32c-0.15,0.16 -0.28,0.28 -0.44,0.41l-0.09,0.06c-0.22,0.19 -0.44,0.34 -0.69,0.53c-0.06,0 -0.16,0.06 -0.25,0.15v9.33zM91.5824,133.027c-0.41,0 -0.78,-0.16 -1.1,-0.43l-10.26,-9.89c-0.31,-0.31 -0.47,-0.71 -0.47,-1.15c0,-0.43 0.19,-0.84 0.54,-1.12l7.31,-6.43c0.34,-0.31 0.81,-0.44 1.25,-0.37c0.35,0.06 0.69,0.21 0.94,0.49c0.04,0.03 0.04,0.07 0.07,0.07c0.12,0.15 0.28,0.31 0.5,0.52l0.12,0.13c0.22,0.18 0.38,0.37 0.57,0.5l0.06,0.06c0.16,0.12 0.35,0.28 0.54,0.4c0.06,0.06 0.12,0.09 0.18,0.16c0.22,0.15 0.41,0.28 0.6,0.4c0.47,0.28 0.75,0.78 0.75,1.31v13.8c0,0.62 -0.37,1.18 -0.97,1.43c-0.22,0.09 -0.41,0.12 -0.63,0.12zM90.0124,127.777v-9.33h-0.03c-0.09,-0.06 -0.15,-0.12 -0.25,-0.18c-0.25,-0.19 -0.47,-0.35 -0.66,-0.53l-0.06,-0.06c-0.16,-0.13 -0.28,-0.25 -0.44,-0.41l-4.96,4.35z"></path><path id="路径 17" fill-rule="evenodd" style="fill:#AAADAD" opacity="1" d="M42.8274 145.212C43.2374 145.432 43.6774 145.642 44.1174 145.862C44.1474 145.862 44.1474 145.892 44.1774 145.892C45.8674 146.732 47.5674 147.512 49.3174 148.222C49.3874 148.252 49.4774 148.292 49.5374 148.322L50.7674 148.782C50.8274 148.812 50.8874 148.812 50.9174 148.852C52.1474 149.312 53.3974 149.752 54.6574 150.152C54.8174 150.182 54.9374 150.242 55.0974 150.282C55.4374 150.402 55.8174 150.492 56.1574 150.592C56.3474 150.652 56.5074 150.682 56.6974 150.742C57.0374 150.832 57.3874 150.962 57.7274 151.052C57.8874 151.082 58.0474 151.152 58.1674 151.182C58.8274 151.362 59.4874 151.522 60.1174 151.672C60.3374 151.742 60.5274 151.772 60.7474 151.832C61.0574 151.892 61.3674 151.982 61.6874 152.052C61.9374 152.112 62.1574 152.142 62.4074 152.202L63.3474 152.392C63.5974 152.452 63.8474 152.482 64.0974 152.542L65.0374 152.732L65.0374 117.642L65.0074 117.672L55.3774 123.582C47.7574 128.242 43.0774 136.382 42.8274 145.212Z"></path><path id="路径 18" fill-rule="evenodd" style="fill:#1C1D21" opacity="1" d="M65.0387,154.26c-0.09,0 -0.1901,0 -0.28,-0.03c-7.9101,-1.37 -15.5301,-3.95 -22.65,-7.65c-0.54,-0.28 -0.85,-0.84 -0.85,-1.43c0.25,-9.42 5.21,-17.97 13.2699,-22.91l9.6,-5.87c0.03,0 0.03,-0.03 0.0701,-0.03c0.4699,-0.31 1.09,-0.31 1.5999,-0.03c0.5,0.28 0.8101,0.8 0.8101,1.36v35.06c0,0.47 -0.2201,0.9 -0.5601,1.18c-0.2899,0.22 -0.66,0.35 -1.0099,0.35zM63.4387,150.84v-30.4l-7.2801,4.44c-6.8699,4.23 -11.1999,11.41 -11.73,19.4c6.0201,3.01 12.42,5.22 19.0101,6.56z"></path><path id="路径 19" fill-rule="evenodd" style="fill:#AAADAD" opacity="1" d="M91.5848 152.732C99.4648 151.392 106.925 148.852 113.795 145.332C113.615 136.442 108.905 128.242 101.245 123.582L91.6148 117.702C91.6148 117.672 91.6148 117.642 91.5848 117.642L91.5848 152.732Z"></path><path id="路径 20" fill-rule="evenodd" style="fill:#1C1D21" opacity="1" d="M91.586,154.29c-0.38,0 -0.72,-0.13 -1.01,-0.38c-0.34,-0.31 -0.56,-0.71 -0.56,-1.18v-35.09c0,-0.56 0.31,-1.09 0.82,-1.37c0.5,-0.27 1.09,-0.24 1.6,0.04c0.03,0 0.06,0.03 0.06,0.03l9.6,5.87c8.13,4.97 13.08,13.58 13.27,23.06c0,0.59 -0.31,1.15 -0.85,1.4c-7.12,3.67 -14.74,6.22 -22.65,7.55c-0.09,0.07 -0.19,0.07 -0.28,0.07zM93.156,150.87c6.62,-1.31 12.99,-3.48 19.01,-6.47c-0.47,-8.02 -4.83,-15.26 -11.76,-19.52l-7.25,-4.44z"></path><path id="路径 21" fill-rule="evenodd" style="fill:#AAADAD" opacity="1" d="M57.4437,149.433l2.3,-4.87c0.31,-0.66 -0.19,-1.4 -0.91,-1.4c-2.04,0 -3.42,-2.05 -2.67,-3.92l8.78,-21.57l0.03,35.03c-2.76,-0.5 -5.45,-1.12 -8.12,-1.9c0.19,-0.46 0.38,-0.9 0.59,-1.37zM97.7637,143.193c-0.72,0 -1.19,0.74 -0.91,1.4l2.29,4.84c0.22,0.47 0.44,0.94 0.63,1.43c-2.67,0.78 -5.4,1.4 -8.16,1.87v-35.06l8.8203,21.6c0.78,1.87 -0.6303,3.92 -2.6703,3.92z"></path><path id="路径 22" fill-rule="evenodd" style="fill:#1C1D21" opacity="1" d="M91.6174,154.287c-0.38,0 -0.72,-0.12 -1.01,-0.37c-0.34,-0.31 -0.56,-0.75 -0.56,-1.18l0.03,-35.06c0,-0.75 0.53,-1.37 1.26,-1.53c0.72,-0.15 1.47,0.25 1.75,0.94l8.8196,21.57c0.56,1.36 0.41,2.89 -0.44,4.1c-0.66,0.96 -1.6896,1.65 -2.8196,1.86l1.9396,4.14c0.22,0.46 0.44,0.96 0.66,1.52c0.16,0.4 0.13,0.87 -0.06,1.24c-0.19,0.41 -0.54,0.69 -0.97,0.81c-2.7296,0.78 -5.5296,1.43 -8.3496,1.9c-0.09,0.06 -0.16,0.06 -0.25,0.06zM93.1874,150.867c1.5,-0.28 2.98,-0.62 4.45,-1.02l-2.16,-4.6c-0.38,-0.78 -0.32,-1.71 0.15,-2.43c0.48,-0.75 1.29,-1.18 2.17,-1.18c0.44,0 0.85,-0.22 1.1,-0.56c0.25,-0.34 0.28,-0.81 0.12,-1.21l-5.83,-14.21z"></path><path id="路径 23" fill-rule="evenodd" style="fill:#FFECE9" opacity="1" d="M72.0024 93.0221C72.3824 92.2521 72.0424 91.3121 71.2524 90.9421C65.3824 88.2121 61.6224 82.3321 61.6224 75.9321L61.6224 64.7421C61.6224 63.6821 61.7424 62.6021 61.9324 61.5721C62.0924 60.7321 61.5224 59.8921 60.6824 59.7421C59.8024 59.5821 58.9824 60.1421 58.8324 60.9821C58.5824 62.2221 58.4524 63.4721 58.4524 64.7421L58.4524 75.9321C58.4524 83.5121 62.9424 90.5121 69.8724 93.7421C70.0924 93.8321 70.3124 93.8921 70.5324 93.8921C71.1324 93.8921 71.6924 93.5521 72.0024 93.0221Z"></path><path id="路径 24" fill-rule="evenodd" style="fill:#1C1D21" opacity="1" d="M65.0127,154.261c-0.1,0 -0.19,0 -0.29,-0.04c-2.76,-0.49 -5.58,-1.11 -8.31,-1.92c-0.41,-0.13 -0.78,-0.41 -0.97,-0.81c-0.19,-0.41 -0.22,-0.84 -0.07,-1.24c0.22,-0.53 0.41,-1.03 0.63,-1.47l1.95,-4.13c-1.13,-0.22 -2.17,-0.87 -2.83,-1.86c-0.81,-1.22 -1,-2.77 -0.44,-4.11l8.82,-21.57c0.28,-0.68 1.01,-1.08 1.76,-0.93c0.72,0.16 1.25,0.78 1.25,1.52l0.03,35.03c0,0.47 -0.22,0.9 -0.56,1.18c-0.25,0.22 -0.6,0.35 -0.97,0.35zM63.4427,150.811v-25.18l-5.81,14.2c-0.15,0.41 -0.12,0.84 0.13,1.22c0.25,0.37 0.66,0.56 1.1,0.56c0.88,0 1.69,0.43 2.16,1.18c0.47,0.74 0.54,1.64 0.16,2.42l-2.17,4.57c1.48,0.37 2.95,0.71 4.43,1.03zM78.4427,90.8507c-2.73,0 -5.24,-1.46 -6.62,-3.79c-0.44,-0.75 -0.19,-1.68 0.56,-2.12c0.75,-0.43 1.69,-0.18 2.13,0.56c0.82,1.37 2.29,2.24 3.89,2.24c1.6,0 3.11,-0.84 3.89,-2.24c0.44,-0.74 1.39,-0.99 2.14,-0.56c0.75,0.44 1,1.37 0.56,2.12c-1.31,2.36 -3.82,3.79 -6.55,3.79z"></path><path id="路径 25" fill-rule="evenodd" style="fill:#0ABFB2" opacity="1" d="M120.103 72.4214L120.103 45.0714C120.103 41.6514 117.283 38.8514 113.833 38.8514L43.0833 38.8514C39.6233 38.8514 36.8033 41.6514 36.8033 45.0714L36.8033 72.4214C36.8033 75.8414 39.6233 78.6314 43.0833 78.6314L113.833 78.6314C117.283 78.6314 120.103 75.8714 120.103 72.4214Z"></path><path id="路径 26" fill-rule="evenodd" style="fill:#1C1D21" opacity="1" d="M77.5884,48.6117v2.64h-0.19c-1.82,0 -3.32,1.49 -3.32,3.3v2.45c0,1.8 1.5,3.3 3.32,3.3h2.11c0.09,0 0.19,0.06 0.19,0.18v2.46c0,0.09 -0.07,0.18 -0.19,0.18h-3.89c-0.88,0 -1.57,0.72 -1.57,1.56c0,0.87 0.72,1.55 1.57,1.55h1.91v2.64c0,0.66 0.53,1.19 1.19,1.19c0.66,0 1.19,-0.53 1.19,-1.19v-2.67c1.64,-0.22 2.89,-1.58 2.89,-3.26v-2.46c0,-1.8 -1.5,-3.29 -3.32,-3.29h-2.11c-0.09,0 -0.18,-0.06 -0.18,-0.19v-2.45c0,-0.1 0.06,-0.19 0.18,-0.19h3.89c0.88,0 1.57,-0.72 1.57,-1.55c0,-0.88 -0.72,-1.56 -1.57,-1.56h-1.31v-2.64c0,-0.65 -0.54,-1.18 -1.2,-1.18c-0.66,0 -1.19,0.53 -1.16,1.18zM78.7484,44.3217c2.36,0 4.27,1.86 4.3,4.2c1.7,0.68 2.89,2.36 2.89,4.29c0,1.36 -0.63,2.64 -1.6,3.48c1,1.12 1.6,2.58 1.6,4.19v2.46c0,2.17 -1.13,4.16 -2.89,5.31v0.62c0,2.37 -1.94,4.29 -4.33,4.29c-2.26,0 -4.14,-1.77 -4.3,-3.98c-2,-0.52 -3.51,-2.33 -3.51,-4.5c0,-1.37 0.63,-2.64 1.6,-3.48c-1,-1.12 -1.6,-2.58 -1.6,-4.2v-2.45c0,-2.46 1.44,-4.64 3.51,-5.69v-0.25c0,-2.36 1.95,-4.29 4.33,-4.29z"></path><path id="路径 27" fill-rule="evenodd" style="fill:#8CEEF9" opacity="1" d="M79.5033,57.1914c1.82,0 3.33,1.49 3.33,3.29v2.46c0,1.68 -1.26,3.04 -2.89,3.26v2.67c0,0.66 -0.53,1.19 -1.19,1.19c-0.66,0 -1.19,-0.53 -1.19,-1.19v-2.64h-1.95c-0.88,0 -1.57,-0.71 -1.57,-1.55c0,-0.87 0.72,-1.56 1.57,-1.56h3.86c0.09,0 0.19,-0.06 0.19,-0.18v-2.46c0,-0.09 -0.06,-0.18 -0.19,-0.18h-2.1c-1.82,0 -3.33,-1.5 -3.33,-3.3v-2.45c0,-1.81 1.51,-3.3 3.33,-3.3h0.19v-2.64c0,-0.65 0.53,-1.18 1.19,-1.18c0.66,0 1.19,0.53 1.19,1.18v2.64h1.32c0.88,0 1.57,0.72 1.57,1.56c0,0.87 -0.72,1.55 -1.57,1.55h-3.86c-0.09,0 -0.19,0.06 -0.19,0.19v2.45c0,0.09 0.06,0.19 0.19,0.19zM36.8033,45.0714c0,-3.42 2.79,-6.22 6.24,-6.22h9.29c0.09,0.56 0.13,1.12 0.13,1.68c0,7.27 -5.97,13.18 -13.31,13.18c-0.78,0 -1.6,-0.1 -2.35,-0.22zM113.833,38.8514c3.45,0 6.27,2.8 6.24,6.22v8.42c-0.75,0.15 -1.54,0.22 -2.35,0.22c-7.34,0 -13.31,-5.91 -13.31,-13.18c0,-0.59 0.07,-1.12 0.13,-1.68zM39.1533,63.7814c7.34,0 13.31,5.9 13.34,13.18c0,0.59 -0.07,1.11 -0.13,1.67h-9.28c-3.46,0 -6.28,-2.79 -6.28,-6.21v-8.43c0.75,-0.15 1.54,-0.21 2.35,-0.21zM117.723,63.7814c0.81,0 1.6,0.09 2.38,0.21v8.43c0,3.42 -2.82,6.21 -6.27,6.21h-9.29c-0.09,-0.56 -0.13,-1.12 -0.13,-1.67c0,-7.28 5.97,-13.18 13.31,-13.18z"></path><path id="路径 28" fill-rule="evenodd" style="fill:#1C1D21" opacity="1" d="M39.1546,55.2574c-0.88,0 -1.76,-0.09 -2.63,-0.24c-0.76,-0.13 -1.29,-0.78 -1.29,-1.53v-8.42c0,-4.29 3.51,-7.77 7.84,-7.77h9.29c0.79,0 1.44,0.59 1.57,1.37c0.09,0.62 0.13,1.27 0.13,1.86c-0.04,8.11 -6.72,14.73 -14.91,14.73zM39.1546,52.1574c6.47,0 11.74,-5.22 11.74,-11.63v-0.12h-7.82c-2.6,0 -4.7,2.08 -4.7,4.66v7.06c0.25,0.03 0.53,0.03 0.78,0.03zM117.725,55.2574c-8.19,0 -14.88,-6.62 -14.88,-14.73c0,-0.59 0.04,-1.24 0.13,-1.86c0.09,-0.78 0.75,-1.37 1.57,-1.37h9.29c4.33,0 7.84,3.48 7.84,7.77v8.42c0,0.75 -0.53,1.4 -1.29,1.53c-0.91,0.15 -1.79,0.24 -2.66,0.24zM105.985,40.5274c0,6.41 5.27,11.63 11.74,11.63c0.25,0 0.53,0 0.78,-0.03v-7.06c0,-2.58 -2.1,-4.66 -4.71,-4.66h-7.81zM52.3646,80.1874h-9.29c-4.33,0 -7.84,-3.48 -7.84,-7.77v-8.42c0,-0.75 0.53,-1.4 1.29,-1.52c0.87,-0.16 1.75,-0.25 2.63,-0.25c8.19,0 14.87,6.62 14.87,14.73c0,0.59 -0.03,1.24 -0.12,1.86c-0.1,0.78 -0.75,1.37 -1.54,1.37zM38.3746,72.4174c0,2.58 2.1,4.66 4.7,4.66h7.82v-0.12c0,-6.4 -5.27,-11.62 -11.74,-11.62c-0.28,0 -0.53,0.03 -0.78,0.03zM113.835,80.1874h-9.29c-0.79,0 -1.44,-0.59 -1.57,-1.37c-0.09,-0.62 -0.13,-1.27 -0.13,-1.86c0,-8.11 6.69,-14.73 14.88,-14.73c0.87,0 1.75,0.09 2.63,0.25c0.75,0.12 1.29,0.77 1.29,1.52v8.42c0.03,4.29 -3.52,7.77 -7.81,7.77zM113.795,77.0774c2.61,0 4.71,-2.08 4.71,-4.66v-7.05c-0.25,-0.03 -0.53,-0.03 -0.78,-0.03c-6.47,0 -11.74,5.22 -11.74,11.62v0.12zM63.8446,60.2974h-4.23c-0.88,0 -1.57,-0.68 -1.57,-1.55c0,-0.87 0.69,-1.56 1.57,-1.56h4.23c0.88,0 1.57,0.69 1.57,1.56c0,0.87 -0.72,1.55 -1.57,1.55zM53.9646,60.2974h-0.88c-0.88,0 -1.57,-0.68 -1.57,-1.55c0,-0.87 0.69,-1.56 1.57,-1.56h0.88c0.88,0 1.57,0.69 1.57,1.56c0,0.87 -0.72,1.55 -1.57,1.55zM97.2646,60.2974h-4.24c-0.88,0 -1.57,-0.68 -1.57,-1.55c0,-0.87 0.69,-1.56 1.57,-1.56h4.24c0.88,0 1.57,0.69 1.57,1.56c0,0.87 -0.69,1.55 -1.57,1.55zM103.795,60.2974h-0.88c-0.88,0 -1.57,-0.68 -1.57,-1.55c0,-0.87 0.69,-1.56 1.57,-1.56h0.88c0.87,0 1.56,0.69 1.56,1.56c0,0.87 -0.69,1.55 -1.56,1.55zM85.1546,40.4074h-2.32c-0.88,0 -1.57,-0.69 -1.57,-1.56c0,-0.87 0.69,-1.55 1.57,-1.55h2.32c0.88,0 1.57,0.68 1.57,1.55c0,0.87 -0.72,1.56 -1.57,1.56zM77.0246,40.4074h-11.73c-0.88,0 -1.57,-0.69 -1.57,-1.56c0,-0.87 0.69,-1.55 1.57,-1.55h11.73c0.88,0 1.57,0.68 1.57,1.55c0,0.87 -0.69,1.56 -1.57,1.56z"></path><path id="路径 29" fill-rule="evenodd" style="fill:#1C1D21" opacity="1" d="M121.645 72.4174L121.645 45.0674C121.645 40.7774 118.125 37.2974 113.795 37.2974L91.5846 37.2974C90.7046 37.2974 90.0146 37.9774 90.0146 38.8474C90.0146 39.7174 90.7046 40.4074 91.5846 40.4074L113.795 40.4074C116.405 40.4074 118.505 42.4874 118.505 45.0674L118.505 72.4174C118.505 74.9974 116.405 77.0774 113.795 77.0774L43.0446 77.0774C40.4446 77.0774 38.3446 74.9974 38.3446 72.4174L38.3446 45.0674C38.3446 42.4874 40.4446 40.4074 43.0446 40.4074L58.6746 40.4074C59.5546 40.4074 60.2446 39.7174 60.2446 38.8474C60.2446 37.9774 59.5546 37.2974 58.6746 37.2974L43.0746 37.2974C38.7446 37.2974 35.2346 40.7774 35.2346 45.0674L35.2346 72.4174C35.2346 76.7074 38.7446 80.1874 43.0746 80.1874L113.835 80.1874C118.125 80.1874 121.675 76.7074 121.645 72.4174Z"></path><path id="路径 30" fill-rule="evenodd" style="fill:#FFC5B3" opacity="1" d="M8.00504 47.1812C6.24505 51.1612 4.83505 55.2912 3.76505 59.5812L17.825 59.5812L17.825 62.7212C17.825 67.3812 22.025 70.9312 26.665 70.2112L37.115 68.5612C40.815 67.9712 43.585 64.8012 43.585 61.0712L43.585 56.9712C43.545 51.5612 39.125 47.1812 33.665 47.1812L8.00504 47.1812Z"></path><path id="路径 31" fill-rule="evenodd" style="fill:#1C1D21" opacity="1" d="M25.4504,71.8582c-2.17,0 -4.3,-0.78 -6,-2.17c-2.04,-1.74 -3.23,-4.26 -3.23,-6.94v-1.58h-12.46001c-0.47,0 -0.94,-0.22 -1.22,-0.59c-0.28,-0.37 -0.41,-0.87 -0.28,-1.34c1.07,-4.32 2.51,-8.58 4.33,-12.65c0.25,-0.56 0.81,-0.93 1.44,-0.93h25.67001c6.3,0 11.45,5.1 11.45,11.34v4.11c0,4.5 -3.26,8.3 -7.78,9.01l-10.45,1.65c-0.5,0.06 -0.97,0.09 -1.47,0.09zM17.8204,58.0282c0.88,0 1.57,0.68 1.57,1.55v3.14c0,1.78 0.78,3.42 2.13,4.57c1.35,1.15 3.14,1.65 4.9,1.37l10.45,-1.65c2.98,-0.46 5.11,-2.95 5.11,-5.93v-4.11c0,-4.53 -3.73,-8.23 -8.31,-8.23h-24.63001c-1.29,3.01 -2.39,6.12 -3.24,9.29z"></path><path id="路径 32" fill-rule="evenodd" style="fill:#FFECE9" opacity="1" d="M38.8475 56.9734C38.8475 54.1434 36.5175 51.8434 33.6675 51.8434L24.0975 51.8434C23.2175 51.8434 22.5275 52.5234 22.5275 53.3934C22.5275 54.2634 23.2175 54.9534 24.0975 54.9534L33.6675 54.9534C34.7975 54.9534 35.7075 55.8534 35.7075 56.9734C35.7075 57.8434 36.3975 58.5234 37.2775 58.5234C38.1475 58.5234 38.8475 57.8434 38.8475 56.9734Z"></path><path id="路径 33" fill-rule="evenodd" style="fill:#1C1D21" opacity="1" d="M36.1476,70.2788c-0.88,0 -1.57,-0.69 -1.57,-1.56v-5.97c0,-0.87 0.69,-1.55 1.57,-1.55c0.88,0 1.57,0.68 1.57,1.55v5.97c0,0.87 -0.69,1.56 -1.57,1.56zM29.1176,71.3588c-0.88,0 -1.57,-0.68 -1.57,-1.55v-5.81c0,-0.87 0.69,-1.56 1.57,-1.56c0.88,0 1.57,0.69 1.57,1.56v5.81c0,0.87 -0.69,1.55 -1.57,1.55z"></path><path id="路径 34" fill-rule="evenodd" style="fill:#FFECE9" opacity="1" d="M20.6452 53.3934C20.6452 52.5234 19.9552 51.8434 19.0752 51.8434L17.8852 51.8434C17.0052 51.8434 16.3152 52.5234 16.3152 53.3934C16.3152 54.2634 17.0052 54.9534 17.8852 54.9534L19.0752 54.9534C19.9552 54.9534 20.6452 54.2634 20.6452 53.3934Z"></path><path id="路径 35" fill-rule="evenodd" style="fill:#FFFFFF" opacity="1" d="M94.7562 110.867C93.0262 110.867 91.6162 112.267 91.6162 113.977L91.6162 150.837C91.6162 151.517 91.8362 152.147 92.2162 152.637C104.166 150.497 115.176 145.617 124.526 138.657L124.526 113.977C124.526 112.237 123.116 110.867 121.396 110.867L94.7562 110.867Z"></path><path id="路径 36" fill-rule="evenodd" style="fill:#1C1D21" opacity="1" d="M92.2074,154.192c-0.5,0 -0.97,-0.25 -1.28,-0.65c-0.6,-0.81 -0.88,-1.74 -0.88,-2.74v-36.83c0,-2.58 2.1,-4.66 4.71,-4.66h26.6296c2.61,0 4.71,2.08 4.71,4.66v24.68c0,0.5 -0.22,0.96 -0.63,1.24c-9.69,7.21 -21.08,12.13 -32.9696,14.27c-0.1,0 -0.19,0.03 -0.29,0.03zM93.1874,113.972v36.93c10.6996,-2.12 20.9596,-6.59 29.7696,-13v-23.9c0,-0.87 -0.69,-1.55 -1.57,-1.55h-26.6296v-0.03c-0.88,0 -1.57,0.68 -1.57,1.55z"></path><path id="路径 37" fill-rule="evenodd" style="fill:#FFC5B3" opacity="1" d="M130.71 117.985L130.71 115.655C130.71 112.975 128.54 110.835 125.85 110.835L120.98 110.835C119.67 110.835 118.63 111.895 118.63 113.165L118.63 120.475C118.63 121.775 119.7 122.805 120.98 122.805L125.85 122.805C128.54 122.805 130.71 120.655 130.71 117.985Z"></path><path id="路径 38" fill-rule="evenodd" style="fill:#1C1D21" opacity="1" d="M125.852,124.351h-4.87c-2.16,0 -3.92,-1.74 -3.92,-3.88v-7.3c0,-2.15 1.76,-3.89 3.92,-3.89h4.87c3.54,0 6.43,2.86 6.43,6.37v2.33c0,3.51 -2.89,6.37 -6.43,6.37zM120.202,113.201v7.3c0,0.44 0.34,0.78 0.78,0.78h4.87c1.81,0 3.29,-1.46 3.29,-3.27v-2.33c0,-1.8 -1.48,-3.26 -3.29,-3.26h-4.87c-0.44,0 -0.78,0.34 -0.78,0.78z"></path><path id="路径 39" fill-rule="evenodd" style="fill:#AAADAD" opacity="1" d="M125.849 122.804L124.529 122.804L124.529 138.654C126.689 137.034 128.729 135.324 130.709 133.524L130.709 117.984C130.709 120.654 128.549 122.804 125.849 122.804Z"></path><path id="路径 40" fill-rule="evenodd" style="fill:#1C1D21" opacity="1" d="M124.524,140.21c-0.25,0 -0.47,-0.07 -0.69,-0.16c-0.53,-0.25 -0.87,-0.81 -0.87,-1.4v-15.85c0,-0.87 0.69,-1.55 1.56,-1.55h1.32c1.82,0 3.3,-1.46 3.3,-3.27c0,-0.87 0.69,-1.55 1.57,-1.55c0.87,0 1.56,0.68 1.56,1.55v15.54c0,0.44 -0.18,0.84 -0.5,1.15c-2.04,1.87 -4.14,3.61 -6.3,5.23c-0.29,0.21 -0.63,0.31 -0.95,0.31zM126.094,135.45c1.04,-0.84 2.04,-1.71 3.05,-2.61v-9.39c-0.91,0.53 -1.95,0.87 -3.05,0.91zM112.134,119.54h-12.61c-0.88,0 -1.57,-0.69 -1.57,-1.56c0,-0.87 0.69,-1.55 1.57,-1.55h12.61c0.88,0 1.57,0.68 1.57,1.55c0,0.87 -0.69,1.56 -1.57,1.56zM112.264,126.59h-12.71c-0.88,0 -1.57,-0.68 -1.57,-1.55c0,-0.87 0.69,-1.55 1.57,-1.55h12.71c0.88,0 1.57,0.68 1.57,1.55c0,0.87 -0.73,1.55 -1.57,1.55zM112.264,133.65h-12.71c-0.88,0 -1.57,-0.68 -1.57,-1.56c0,-0.87 0.69,-1.55 1.57,-1.55h12.71c0.88,0 1.57,0.68 1.57,1.55c0,0.88 -0.73,1.56 -1.57,1.56zM112.264,140.7h-12.71c-0.88,0 -1.57,-0.68 -1.57,-1.55c0,-0.87 0.69,-1.55 1.57,-1.55h12.71c0.88,0 1.57,0.68 1.57,1.55c0,0.87 -0.73,1.55 -1.57,1.55z"></path></g></g><g opacity="1" transform="translate(182.67910766601562 26.75860595703125)  rotate(0)"><path id="文本 1"  style="fill:#FFFFFF" opacity="1" d="M11.16 12.3L16.1 12.3L16.1 14.94L11.16 14.94L11.16 12.3ZM8.88 10.2L8.88 17.04L10.68 17.04C10.48 19.76 9.96 21.88 7.02 23.14C7.54 23.56 8.18 24.46 8.44 25.02C11.96 23.36 12.7 20.58 12.98 17.04L14.04 17.04L14.04 21.98C14.04 24.02 14.4 24.68 16.14 24.68C16.48 24.68 17.1 24.68 17.46 24.68C18.84 24.68 19.4 23.92 19.58 21.08C19 20.92 18.06 20.56 17.64 20.2C17.58 22.32 17.5 22.62 17.22 22.62C17.06 22.62 16.66 22.62 16.54 22.62C16.28 22.62 16.24 22.56 16.24 21.96L16.24 17.04L18.5 17.04L18.5 10.2L16.56 10.2C17.06 9.26 17.6 8.12 18.1 7.02L15.64 6.24C15.32 7.46 14.68 9.06 14.12 10.2L11.98 10.2L13.18 9.66C12.9 8.7 12.1 7.3 11.36 6.26L9.38 7.12C9.98 8.06 10.62 9.28 10.96 10.2L8.88 10.2ZM7.14 6.28C5.5 6.98 3.02 7.58 0.8 7.92C1.04 8.44 1.34 9.26 1.44 9.78C2.16 9.7 2.92 9.58 3.7 9.44L3.7 11.86L0.76 11.86L0.76 14.1L3.28 14.1C2.56 16.02 1.44 18.18 0.32 19.46C0.7 20.1 1.26 21.1 1.48 21.82C2.28 20.78 3.04 19.32 3.7 17.74L3.7 24.96L6.02 24.96L6.02 16.8C6.52 17.58 7.02 18.44 7.28 19L8.6 17.1C8.22 16.64 6.56 14.88 6.02 14.42L6.02 14.1L8.46 14.1L8.46 11.86L6.02 11.86L6.02 8.98C6.9 8.76 7.74 8.52 8.48 8.24L7.14 6.28ZM8.36 44.6C8.28 45.22 8.16 45.78 8.02 46.3L2.34 46.3L2.34 48.36L7.14 48.36C5.96 50.24 3.96 51.34 1.02 51.94C1.46 52.4 2.18 53.42 2.42 53.92C6.04 52.92 8.4 51.28 9.76 48.36L15.14 48.36C14.84 50.22 14.48 51.22 14.06 51.54C13.8 51.74 13.52 51.76 13.1 51.76C12.5 51.76 11.06 51.74 9.74 51.62C10.14 52.18 10.46 53.06 10.5 53.68C11.8 53.74 13.1 53.76 13.84 53.7C14.76 53.66 15.4 53.5 15.96 52.96C16.74 52.3 17.22 50.7 17.66 47.26C17.74 46.96 17.78 46.3 17.78 46.3L10.5 46.3C10.64 45.82 10.74 45.32 10.84 44.8L8.36 44.6ZM14.08 39.08C12.98 39.94 11.58 40.66 10 41.24C8.64 40.72 7.52 40.04 6.7 39.18L6.82 39.08L14.08 39.08ZM7.2 35.14C6.2 36.86 4.32 38.66 1.46 39.94C1.92 40.34 2.6 41.24 2.86 41.8C3.7 41.36 4.46 40.9 5.16 40.42C5.78 41.04 6.48 41.6 7.26 42.08C5.22 42.6 3.04 42.94 0.86 43.12C1.22 43.66 1.62 44.62 1.78 45.2C4.62 44.88 7.46 44.32 10.02 43.42C12.32 44.28 15.04 44.76 18.1 44.98C18.4 44.36 18.96 43.4 19.44 42.88C17.12 42.78 14.94 42.54 13.04 42.14C15.12 41.06 16.84 39.68 18.02 37.92L16.54 36.98L16.16 37.08L8.66 37.08C9.02 36.62 9.34 36.14 9.64 35.64L7.2 35.14ZM10.24 73.04L15.74 73.04L15.74 73.92L10.24 73.92L10.24 73.04ZM10.24 70.62L15.74 70.62L15.74 71.48L10.24 71.48L10.24 70.62ZM14.4 64.12L14.4 65.5L12.08 65.5L12.08 64.12L9.8 64.12L9.8 65.5L7.46 65.5L7.46 67.46L9.8 67.46L9.8 68.6L12.08 68.6L12.08 67.46L14.4 67.46L14.4 68.6L16.72 68.6L16.72 67.46L18.98 67.46L18.98 65.5L16.72 65.5L16.72 64.12L14.4 64.12ZM8.02 68.96L8.02 75.58L11.86 75.58C11.82 75.98 11.76 76.38 11.7 76.74L7.1 76.74L7.1 78.72L10.92 78.72C10.18 79.76 8.84 80.5 6.34 81C6.8 81.46 7.36 82.34 7.56 82.92C10.86 82.12 12.5 80.88 13.34 79.14C14.34 80.98 15.86 82.26 18.12 82.88C18.44 82.28 19.1 81.36 19.6 80.9C17.8 80.54 16.46 79.8 15.56 78.72L19.06 78.72L19.06 76.74L14.06 76.74L14.2 75.58L18.06 75.58L18.06 68.96L8.02 68.96ZM3.02 64.12L3.02 67.86L0.84 67.86L0.84 70.08L3.02 70.08L3.02 70.58C2.46 72.86 1.48 75.44 0.36 76.88C0.76 77.52 1.28 78.62 1.52 79.3C2.06 78.46 2.58 77.32 3.02 76.04L3.02 82.9L5.28 82.9L5.28 73.82C5.7 74.66 6.08 75.52 6.3 76.12L7.72 74.44C7.38 73.86 5.86 71.54 5.28 70.78L5.28 70.08L7.1 70.08L7.1 67.86L5.28 67.86L5.28 64.12L3.02 64.12ZM15.52 102.08L13.24 102.08C13.26 101.52 13.28 100.96 13.28 100.4L13.28 98.5L15.52 98.5L15.52 102.08ZM10.98 93.3L10.98 96.26L8.02 96.26L8.02 98.5L10.98 98.5L10.98 100.4C10.98 100.96 10.96 101.52 10.92 102.08L7.52 102.08L7.52 104.36L10.56 104.36C9.96 106.6 8.58 108.64 5.38 110.1C5.9 110.5 6.7 111.38 7.02 111.92C10.4 110.3 11.98 108.02 12.7 105.52C13.72 108.4 15.28 110.62 17.72 111.92C18.1 111.26 18.86 110.26 19.4 109.78C17.04 108.78 15.46 106.82 14.54 104.36L19.02 104.36L19.02 102.08L17.76 102.08L17.76 96.26L13.28 96.26L13.28 93.3L10.98 93.3ZM0.52 106.3L1.48 108.7C3.28 107.88 5.52 106.82 7.6 105.78L7.06 103.66L5.26 104.42L5.26 100L7.22 100L7.22 97.72L5.26 97.72L5.26 93.36L3.02 93.36L3.02 97.72L0.88 97.72L0.88 100L3.02 100L3.02 105.34C2.08 105.72 1.22 106.06 0.52 106.3Z"></path><path  id="文本 1" style="fill:#000000; opacity:1;" d="M7.88,9.50132c-0.26867,0.08371 -0.55534,0.16731 -0.86,0.25078v1.1079h0.86zM8.88,10.86v6.18h1.8c-0.0252,0.3431 -0.0555,0.6766 -0.0952,1c-0.2371,1.9357 -0.80739,3.511 -2.61405,4.6138c-0.28498,0.174 -0.60071,0.3362 -0.95075,0.4862c0.23094,0.1865 0.48554,0.4677 0.72002,0.7718c0.28359,0.3677 0.53774,0.7689 0.68495,1.0763c0.00514,0.0108 0.01015,0.0214 0.01503,0.0319c0.31589,-0.149 0.60938,-0.307 0.88217,-0.4737c2.76693,-1.6914 3.40293,-4.284 3.65783,-7.5063h1.06v4.94c0,2.04 0.36,2.7 2.1,2.7h1.32c1.38,0 1.94,-0.76 2.12,-3.6c-0.2706,-0.0746 -0.6195,-0.1928 -0.9574,-0.3342c-0.3864,-0.1617 -0.7585,-0.3537 -0.9826,-0.5458c-0.0134,0.473 -0.0278,0.8553 -0.0451,1.164c-0.0605,1.0749 -0.1574,1.256 -0.3749,1.256h-0.68c-0.26,0 -0.3,-0.06 -0.3,-0.66v-4.92h2.26v-6.84h-1.94c0.167,-0.314 0.3385,-0.65031 0.5115,-1c0.2018,-0.40808 0.4057,-0.83436 0.6068,-1.26464c0.1425,-0.3048 0.2836,-0.6116 0.4217,-0.91536l-0.9602,-0.30444l-0.5454,-0.17295l-0.9544,-0.30261c-0.0788,0.30034 -0.1769,0.62371 -0.2885,0.95758c-0.2988,0.8937 -0.6937,1.86261 -1.0704,2.66637c-0.0542,0.11568 -0.108,0.22795 -0.1611,0.33605h-2.14l0.0395,-0.0178l1.1605,-0.5222c-0.0421,-0.1443 -0.0959,-0.29854 -0.1595,-0.46c-0.3596,-0.91273 -1.0317,-2.05632 -1.6605,-2.94l-1.0517,0.45678l-0.9283,0.40322c0.17224,0.26984 0.34777,0.56275 0.51856,0.86502c0.22554,0.39922 0.44284,0.81475 0.63334,1.21498c0.1677,0.35238 0.3146,0.6929 0.4281,1h-2.08zM9.42614,9.2c-0.03516,-0.06893 -0.07118,-0.13824 -0.10805,-0.20792l-0.4842,0.18321c-0.02177,0.00824 -0.04372,0.01648 -0.06584,0.02471zM11.7049,5.01992l0.4699,0.66033c0.4186,0.58834 0.80043,1.19855 1.1455,1.83064c0.18973,0.3477 0.35157,0.67275 0.4855,0.97515c0.36947,-0.87175 0.65843,-1.705 0.8669,-2.49975l0.2669,-1.01743l4.5373,1.43864l-0.4665,1.0263c-0.29433,0.64746 -0.56967,1.23619 -0.826,1.7662h1.3156v8.84h-2.26v0.5001l1.0508,0.9006c0.11547,0.099 0.3337,0.2176 0.6547,0.3558c0.30633,0.13193 0.60647,0.23843 0.9004,0.3195l0.7835,0.2161l-0.0514,0.8112c-0.09873,1.55747 -0.35077,2.66593 -0.7561,3.3254c-0.4964,0.80753 -1.2837,1.2113 -2.3619,1.2113h-1.32c-1.1876,0 -2.02407,-0.33143 -2.5094,-0.9943c-0.2396,-0.32727 -0.40367,-0.7443 -0.4922,-1.2511c-0.0656,-0.37527 -0.0984,-0.86013 -0.0984,-1.4546v-0.2855c-0.06867,0.1654 -0.1411,0.32573 -0.2173,0.481c-0.80153,1.63353 -2.12025,2.8832 -3.95616,3.749l-0.90991,0.4291l-0.42364,-0.9125c-0.10892,-0.2346 -0.27857,-0.50733 -0.50895,-0.8182c-0.00135,-0.00187 -0.00269,-0.0037 -0.00404,-0.0055v1.3426h-4.32v-4.1253c-0.14176,0.2106 -0.28422,0.40893 -0.42738,0.595l-1.18232,1.537l-0.56665,-1.8545c-0.1471,-0.4814 -0.50161,-1.1953 -1.0635,-2.1417l-0.37015,-0.6234l0.47743,-0.5456c0.48836,-0.55813 0.98956,-1.31093 1.50361,-2.2584c0.25543,-0.4708 0.49395,-0.95183 0.71554,-1.4431h-2.02657v-4.24h0.86937l-0.17138,-0.89115c-0.08869,-0.46121 -0.27735,-1.00447 -0.56595,-1.62979l-0.55679,-1.20639l1.31336,-0.20114c1.12744,-0.17267 2.22502,-0.39459 3.29274,-0.66576c1.12702,-0.28623 2.06238,-0.58806 2.80608,-0.90549l0.75487,-0.3222l0.95266,1.39345zM6.02,23.6178v-6.8178c0.25503,0.3978 0.51006,0.8165 0.73324,1.2055c0.0956,0.1667 0.18535,0.3279 0.26676,0.4797c0.10115,0.1887 0.18942,0.3628 0.26,0.5148l0.65051,-0.9363l0.01644,-0.0237l0.65305,-0.94c-0.12696,-0.1537 -0.39679,-0.4525 -0.72,-0.7994c-0.35873,-0.3851 -0.78321,-0.8295 -1.15106,-1.2006c-0.29273,-0.2953 -0.54959,-0.5443 -0.70894,-0.68v-0.32h2.44v-2.24h-2.44v-2.88c0.50958,-0.12739 1.00575,-0.26149 1.47685,-0.40619c0.34245,-0.10517 0.67166,-0.21595 0.98315,-0.33381l-0.58219,-0.85155l-0.75781,-1.10845c-1.39242,0.59433 -3.39035,1.11656 -5.32058,1.46879c-0.34321,0.06263 -0.68428,0.11988 -1.01942,0.17121c0.12271,0.26587 0.2611,0.61017 0.38043,0.95269c0.11406,0.3274 0.2107,0.65318 0.25957,0.90731c0.40835,-0.04537 0.82957,-0.10361 1.26,-0.17107c0.3285,-0.05148 0.66238,-0.10833 1,-0.16893v2.42h-2.94v2.24h2.52c-0.12307,0.3282 -0.25783,0.6634 -0.40227,1c-0.70061,1.6327 -1.62917,3.2988 -2.55773,4.36c0.20963,0.3531 0.47405,0.8157 0.70594,1.2804c0.18846,0.3777 0.35543,0.7568 0.45406,1.0796c0.23246,-0.3022 0.46155,-0.6399 0.68578,-1.0056c0.18151,-0.2961 0.35985,-0.6106 0.53422,-0.9396c0.35156,-0.6633 0.68702,-1.3855 1,-2.1348v7.22h2.32zM2.7,10.86v-0.2395c-0.41505,0.0632 -0.79824,0.11433 -1.14957,0.1534l-0.77506,0.0861zM9.16459,18.04l-2.05769,2.9618l-0.0869,-0.1871v1.2224c0.92001,-0.46687 1.57538,-1.0845 1.96613,-1.8529c0.26292,-0.517 0.4579,-1.23173 0.58495,-2.1442zM16.1,12.3v2.64h-4.94v-2.64h1zM12.16,13.3v0.64h2.94v-0.64zM10.5422,36.08h5.4884l0.6771,-0.1782l2.7137,1.7237l-0.5708,0.8514c-0.7758,1.15707 -1.78277,2.1935 -3.0209,3.1093c1.13107,0.14027 2.34887,0.2385 3.6534,0.2947l2.1543,0.0929l-1.4626,1.5845c-0.38667,0.41887 -0.7782,1.03797 -1.1746,1.8573l-0.1883,0.3891l-0.0337,0.5558c-0.028,0.46193 -0.07257,0.82323 -0.1337,1.0839c-0.22473,1.7436 -0.47433,3.075 -0.7488,3.9942c-0.31287,1.04773 -0.73417,1.80193 -1.2639,2.2626c-0.37247,0.35307 -0.8014,0.60873 -1.2868,0.767c-0.39033,0.12733 -0.8713,0.204 -1.4429,0.23c-0.7458,0.0588 -1.8952,0.05237 -3.4482,-0.0193l-0.89419,-0.0412l-0.05764,-0.8933c-0.0139,-0.21547 -0.07581,-0.47283 -0.18574,-0.7721c-0.11344,-0.3088 -0.24346,-0.56583 -0.39006,-0.7711l-0.32461,-0.4544c-0.33176,0.32847 -0.68781,0.63387 -1.06814,0.9162c-1.26159,0.9364 -2.87734,1.6767 -4.84725,2.2209l-0.80596,0.2226l-0.36183,-0.7538c-0.09605,-0.20007 -0.2761,-0.48693 -0.54015,-0.8606c-0.26866,-0.3802 -0.49566,-0.66717 -0.68098,-0.8609l-1.25194,-1.3088l1.77463,-0.3622c1.38767,-0.2832 2.52787,-0.68207 3.42061,-1.1966c0.21823,-0.1258 0.42458,-0.26033 0.61907,-0.4036h-3.51972v-3.1041l-0.29684,0.0335l-0.22715,-0.8235c-0.07242,-0.26247 -0.18517,-0.57 -0.33827,-0.9226c-0.16098,-0.37073 -0.31091,-0.66027 -0.44979,-0.8686l-0.94113,-1.4117l1.69089,-0.1396c0.36102,-0.0298 0.71807,-0.06363 1.07114,-0.1015c-0.10075,-0.17553 -0.23824,-0.3789 -0.41246,-0.6101c-0.24369,-0.32333 -0.45455,-0.5624 -0.63257,-0.7172l-1.18177,-1.0276l1.42943,-0.6398c1.27187,-0.5692 2.37897,-1.2619 3.32131,-2.0781c0.83081,-0.7196 1.48504,-1.49017 1.96269,-2.3117l0.36122,-0.6213l4.52719,0.9277zM9.90123,37.08h-1.24123c0.13817,-0.1765 0.27045,-0.356 0.39797,-0.5385c0.10609,-0.1518 0.20889,-0.3056 0.30904,-0.4615c0.09311,-0.1449 0.18393,-0.2916 0.27299,-0.44l-1.0425,-0.2136l-1.3975,-0.2864c-0.88384,1.5202 -2.4551,3.1029 -4.78283,4.3338c-0.30594,0.1618 -0.62494,0.3175 -0.95717,0.4662c0.20926,0.182 0.46405,0.4674 0.70412,0.7772c0.21194,0.2736 0.4124,0.5661 0.55993,0.8233c0.0527,0.0918 0.09865,0.1792 0.13595,0.2595c0.30256,-0.1585 0.59474,-0.3196 0.87747,-0.4832c0.50223,-0.2908 0.97466,-0.5897 1.42253,-0.8968c0.3146,0.3146 0.6498,0.6138 1.0056,0.8948c0.34539,0.2729 0.71019,0.5288 1.0944,0.7652c-0.43789,0.1116 -0.88223,0.2149 -1.33164,0.3102c-0.98634,0.209 -1.99709,0.379 -3.0176,0.5121c-0.20193,0.0263 -0.40425,0.0512 -0.60683,0.0747c-0.11442,0.0132 -0.22892,0.026 -0.34349,0.0384c-0.36636,0.0395 -0.7334,0.0743 -1.10044,0.1046c0.16967,0.2545 0.34823,0.6023 0.50636,0.9597c0.17738,0.4008 0.32905,0.8137 0.41364,1.1203c1.90232,-0.2143 3.80465,-0.5364 5.62282,-0.9961c0.63504,-0.1606 1.25981,-0.338 1.87072,-0.5335c0.25125,-0.0804 0.50015,-0.1638 0.74646,-0.2504c0.3937,0.1472 0.7997,0.2833 1.2176,0.4088c0.2511,0.0755 0.5065,0.1471 0.7661,0.215c1.8325,0.4797 3.8748,0.7765 6.0963,0.9362c0.156,-0.3225 0.3824,-0.7369 0.6312,-1.1335c0.2297,-0.3661 0.4784,-0.7169 0.7088,-0.9665c-0.4151,-0.0179 -0.8257,-0.0403 -1.231,-0.0672c-1.2689,-0.0845 -2.486,-0.2139 -3.6267,-0.392c-0.5315,-0.0829 -1.0464,-0.1764 -1.5423,-0.2808c0.4625,-0.2402 0.9072,-0.4951 1.3322,-0.7658c1.1846,-0.7547 2.2155,-1.6314 3.0498,-2.6494c0.2123,-0.259 0.4119,-0.5272 0.598,-0.8048l-0.8444,-0.5363l-0.6356,-0.4037l-0.38,0.1zM9.38885,44.683l-1.02885,-0.083c-0.01765,0.1368 -0.03725,0.2707 -0.05859,0.4019c-0.07534,0.4633 -0.1723,0.8928 -0.28141,1.2981h-5.68v2.06h4.8c-0.22691,0.3615 -0.48413,0.6942 -0.77253,1c-1.01659,1.078 -2.42052,1.8223 -4.24916,2.3203c-0.35042,0.0954 -0.71644,0.1818 -1.09831,0.2597c0.19958,0.2087 0.45677,0.5325 0.70064,0.8708c0.29378,0.4075 0.56822,0.836 0.69936,1.1092c2.38754,-0.6595 4.22698,-1.5975 5.59293,-2.9974c0.13481,-0.1382 0.26501,-0.2809 0.39068,-0.4282c0.53157,-0.6233 0.98189,-1.3303 1.35639,-2.1344h5.38c-0.0591,0.3662 -0.1205,0.6991 -0.1842,1c-0.2599,1.2274 -0.5585,1.923 -0.8958,2.18c-0.26,0.2 -0.54,0.22 -0.96,0.22c-0.418,0 -1.2437,-0.0097 -2.1525,-0.0562c-0.3957,-0.0202 -0.8071,-0.0474 -1.2075,-0.0838c0.20697,0.2898 0.3925,0.6652 0.529,1.046c0.1272,0.3551 0.2117,0.7148 0.231,1.014c1.3,0.06 2.6,0.08 3.34,0.02c0.92,-0.04 1.56,-0.2 2.12,-0.74c0.777,-0.6574 1.2563,-2.2476 1.6949,-5.66c0.0017,-0.0133 0.0034,-0.0266 0.0051,-0.04c0.08,-0.3 0.12,-0.96 0.12,-0.96h-7.28c0.0492,-0.1686 0.0934,-0.3397 0.1345,-0.5133c0.0378,-0.1601 0.073,-0.3224 0.1068,-0.4867c0.0338,-0.1646 0.0662,-0.3312 0.0987,-0.5l-1.00293,-0.0809zM12.9868,45.3c-0.40227,-0.08467 -0.79293,-0.1759 -1.172,-0.2737c-0.0182,0.09413 -0.0362,0.18537 -0.054,0.2737zM13.9322,49.36h-3.5553c-0.23613,0.4386 -0.49806,0.8527 -0.78577,1.2423l0.23941,0.0218c0.99651,0.0906 2.08633,0.1359 3.26946,0.1359c0.1752,0 0.29177,-0.00557 0.3497,-0.0167c0.01473,-0.01933 0.0312,-0.04467 0.0494,-0.076c0.0656,-0.11293 0.1324,-0.2681 0.2004,-0.4655c0.0806,-0.23393 0.15817,-0.51453 0.2327,-0.8418zM7.22986,45.3c0.00163,-0.00793 0.00325,-0.0159 0.00487,-0.0239c-0.03364,0.00807 -0.06701,0.01603 -0.10011,0.0239zM14.08,39.08c-0.4573,0.3575 -0.9665,0.6909 -1.5188,1c-0.7764,0.4345 -1.6381,0.8211 -2.5612,1.16c-0.8454,-0.3232 -1.59806,-0.7083 -2.24357,-1.16c-0.10446,-0.0731 -0.20612,-0.1479 -0.30491,-0.2246c-0.22572,-0.175 -0.43647,-0.3592 -0.63152,-0.5529c-0.04069,-0.0405 -0.08069,-0.0813 -0.12,-0.1225l0.12,-0.1h5.4772zM10.2316,40.08h-0.4243c0.06681,0.02953 0.13451,0.05863 0.2031,0.0873c0.07447,-0.02887 0.1482,-0.05797 0.2212,-0.0873zM6.28,66.86h0.18v-2.36h2.34v-1.38h4.28v1.38h0.32v-1.38h4.32v1.38h2.26v3.96h-0.92v7.28h1v3.98h-1.0708c0.25593,0.07653 0.5249,0.143 0.8069,0.1994l1.9277,0.3856l-1.4467,1.3309c-0.19313,0.17767 -0.4198,0.4428 -0.68,0.7954c-0.2512,0.3404 -0.44947,0.64683 -0.5948,0.9193l-0.3761,0.7052l-0.7708,-0.2114c-1.8814,-0.5162 -3.38503,-1.4793 -4.5109,-2.8893c-0.39907,0.4704 -0.8696,0.88897 -1.4116,1.2557c-1.0414,0.70453 -2.4205,1.2649 -4.1373,1.6811l-0.88434,0.2143l-0.29664,-0.8602c-0.06443,-0.18687 -0.17597,-0.41077 -0.33462,-0.6717v1.3257h-4.26v-3.5285l-0.76325,1.1872l-0.67974,-1.9259c-0.11059,-0.31333 -0.27042,-0.68903 -0.47949,-1.1271c-0.21391,-0.4482 -0.40909,-0.81343 -0.58552,-1.0957l-0.37028,-0.5924l0.42893,-0.5515c0.47665,-0.61287 0.94468,-1.47967 1.40407,-2.6004c0.33741,-0.82313 0.63111,-1.68503 0.88109,-2.5857h-2.01581v-4.22h2.18v-3.74h4.26zM5.28,66.86v-2.74h-2.26v1v2.74h-2.18v2.22h2.18v0.5c-0.04059,0.1653 -0.0834,0.3321 -0.1283,0.5c-0.57451,2.1481 -1.49289,4.4644 -2.5317,5.8c0.21162,0.3386 0.45682,0.8059 0.67638,1.2717c0.19546,0.4146 0.37059,0.8281 0.48362,1.1483c0.16925,-0.2633 0.33653,-0.556 0.5,-0.8733c0.04235,-0.0822 0.08444,-0.166 0.12624,-0.2514c0.3117,-0.6368 0.60739,-1.3604 0.87376,-2.1353v6.86h2.26v-9.08c0.21297,0.4259 0.41566,0.857 0.59242,1.2568c0.10361,0.2343 0.19831,0.4578 0.28095,0.6632c0.04615,0.1147 0.08855,0.2238 0.12663,0.3259c0.00681,0.0183 0.01347,0.0363 0.02,0.0541l0.32119,-0.38l0.39881,-0.4718l0.01514,-0.0179l0.68486,-0.8103c-0.11903,-0.2031 -0.38269,-0.6194 -0.7,-1.1073c-0.49022,-0.7539 -1.10852,-1.6788 -1.51947,-2.2527c-0.08285,-0.1157 -0.15728,-0.2171 -0.22053,-0.3v-0.7h1.82v-1v-0.22v-0.4v-0.6h-1.82zM8.1,68.96h-0.08v6.62h3.84c-0.0342,0.3416 -0.0829,0.6833 -0.1338,1c-0.0087,0.0541 -0.0174,0.1075 -0.0262,0.16h-4.6v1.98h3.82c-0.2636,0.3705 -0.6034,0.7029 -1.04465,1c-0.60083,0.4045 -1.38979,0.7434 -2.43082,1.0237c-0.34047,0.0916 -0.7079,0.177 -1.10453,0.2563c0.22165,0.2217 0.46653,0.5408 0.68315,0.877c0.23294,0.3614 0.43322,0.7425 0.53685,1.043c2.6522,-0.643 4.2322,-1.5702 5.1864,-2.8127c0.233,-0.3035 0.4287,-0.6258 0.5936,-0.9673c0.1859,0.342 0.3897,0.6646 0.6129,0.9673c0.9777,1.3257 2.3271,2.2679 4.1671,2.7727c0.172,-0.3225 0.4422,-0.7373 0.7329,-1.1236c0.2503,-0.3324 0.5158,-0.6436 0.7471,-0.8564c-0.3912,-0.0782 -0.7606,-0.1744 -1.1086,-0.2881c-0.6974,-0.228 -1.3083,-0.5264 -1.8344,-0.8919c-0.4192,-0.2913 -0.7846,-0.6252 -1.097,-1h3.5v-1.98h-5l0.1207,-1l0.0193,-0.16h3.86v-6.62h-1h-3.66h-4.38h-0.22zM9.8,68.46v0.14h2.28v-1.14h2.32v1.14h2.32v-1.14h1h1.26v-1.96h-2.26v-1.38h-2.32v1.38h-2.32v-0.38v-1h-2.28v1.38h-2.34v0.96v1h2.34zM7.38039,79.72h-1.10039v0.2717c0.39459,-0.08213 0.76139,-0.1727 1.10039,-0.2717zM7.02,71.5203v-0.4403h-0.29887c0.09313,0.13587 0.19275,0.28263 0.29887,0.4403zM15.74,70.62v0.86h-5.5v-0.86h1zM15.74,73.04v0.88h-5.5v-0.88h1zM14.28,95.26h4.48v5.82h1.26v4.28h-3.9372c0.88953,1.66267 2.1253,2.829 3.7073,3.499l1.4566,0.617l-1.1823,1.051c-0.21493,0.19133 -0.4732,0.481 -0.7748,0.869c-0.29353,0.378 -0.52787,0.719 -0.703,1.023l-0.4828,0.839l-0.854,-0.455c-1.88893,-1.00667 -3.39827,-2.582 -4.528,-4.726c-1.11667,2.01467 -2.8732,3.59633 -5.26959,4.745l-0.8257,0.396l-0.4668,-0.788c-0.12442,-0.21 -0.3333,-0.47733 -0.62664,-0.802c-0.29365,-0.32467 -0.54791,-0.56967 -0.76278,-0.735l-1.31672,-1.013l1.51134,-0.69c1.37153,-0.62533 2.4434,-1.396 3.21559,-2.312c0.11951,-0.142 0.23292,-0.28867 0.34022,-0.44l-0.47351,0.236c-1.99126,0.996 -4.04214,1.97467 -6.15265,2.936l-0.95378,0.435l-1.34925,-3.374l-0.39053,-0.976l0.99469,-0.341c0.42619,-0.146 1.0343,-0.376 1.82431,-0.69v-3.664h-2.14v-4.28h2.14v-4.36h4.24v4.36h0.76v-1.46h2.96v-2.96h4.3zM14.28,96.26h-1v-1v-1.96h-2.3v2.96h-2.96v2.24h2.96v1.9c0,0.56 -0.02,1.12 -0.06,1.68h-2.4h-1v2.28h3.04c-0.0906,0.338 -0.199,0.672 -0.3288,1c-0.63732,1.61 -1.78994,3.078 -3.88203,4.25c-0.30293,0.17 -0.62556,0.333 -0.96917,0.49c0.22849,0.176 0.51105,0.444 0.78319,0.736c0.34719,0.372 0.67742,0.781 0.85681,1.084c2.72801,-1.308 4.2835,-3.045 5.1606,-4.981c0.2096,-0.463 0.3805,-0.937 0.5194,-1.419c0.1735,0.49 0.3627,0.961 0.5691,1.411c0.8588,1.874 2.017,3.395 3.595,4.472c0.1074,0.073 0.2167,0.144 0.328,0.213c0.1712,0.106 0.3472,0.208 0.5279,0.304c0.2273,-0.395 0.5907,-0.911 0.9616,-1.366c0.2491,-0.304 0.5015,-0.581 0.7184,-0.774c-0.331,-0.14 -0.6466,-0.299 -0.9472,-0.476c-1.5437,-0.908 -2.6915,-2.28 -3.4885,-3.944c-0.1545,-0.323 -0.2958,-0.657 -0.4243,-1h4.48v-2.28h-1.26v-5.82zM9.14198,105.36h-0.61703l0.19745,0.775c0.15469,-0.246 0.29455,-0.50433 0.41958,-0.775zM7.49302,105.36l-0.18338,-0.72l-0.24964,-0.98l-0.54,0.228l-0.26,0.11l-0.13173,0.055l-0.86827,0.367v-4.42h1.96v-2.28h-1.96v-4.36h-2.24v1v3.36h-2.14v1v1.28h2.14v5.34c-0.55318,0.224 -1.07866,0.433 -1.56013,0.617c-0.33667,0.129 -0.65181,0.244 -0.93987,0.343l0.37183,0.93l0.21637,0.54l0.3718,0.93c0.29255,-0.133 0.59672,-0.273 0.90994,-0.418c1.61396,-0.746 3.46812,-1.631 5.21006,-2.502zM8.22,99.5v1.5h-1.96v1.912l0.26,-0.109v-1.723h3.44973c0.00685,-0.22667 0.01027,-0.45333 0.01027,-0.68v-0.9zM14.52,102.08h-1.28c0.0119,-0.333 0.0238,-0.667 0.0315,-1c0.0052,-0.227 0.0085,-0.453 0.0085,-0.68v-1.9h2.24v3.58zM14.52,101.08v-1.58h-0.24v0.9c0,0.184 -0.0031,0.41067 -0.0093,0.68z"></path></g></g><defs><rect id="path_0" x="0" y="0" width="156.87698554992676" height="155.40576934814453" /></defs></svg>