<svg xmlns="http://www.w3.org/2000/svg" xmlns:xlink="http://www.w3.org/1999/xlink" width="144.49192810058594" height="179.07752990722656" viewBox="0 0 144.49192810058594 179.07752990722656" fill="none"><g opacity="1"  transform="translate(0 0)  rotate(0)"><path id="矩形 2" fill-rule="evenodd" style="fill:#FF9693" opacity="1" d="M15 179.078L115.04 179.078C123.32 179.078 130.04 172.358 130.04 164.078L130.04 18.0875C130.04 9.80752 123.32 3.08752 115.04 3.08752L15 3.08752C6.72 3.08752 0 9.80752 0 18.0875L0 164.078C0 172.358 6.72 179.078 15 179.078Z"></path><g opacity="1" transform="translate(23.737945556640625 142.0264892578125)  rotate(0)"><path id="文本 1"  style="fill:#FFFFFF" opacity="1" d="M14.1 7.98C15.18 8.98 16.44 10.38 16.94 11.32L18.88 9.98C18.3 9.02 16.98 7.7 15.9 6.76L14.1 7.98ZM16.3 14.82C15.78 15.8 15.12 16.72 14.38 17.56C14.16 16.54 13.96 15.38 13.8 14.16L19.04 14.16L19.04 11.9L13.56 11.9C13.4 10.12 13.32 8.24 13.36 6.36L10.86 6.36C10.88 8.2 10.94 10.08 11.1 11.9L7.2 11.9L7.2 9.2C8.38 8.96 9.5 8.68 10.52 8.38L8.88 6.34C6.84 7.02 3.7 7.66 0.9 8.02C1.16 8.56 1.48 9.46 1.58 10.04C2.6 9.92 3.7 9.78 4.78 9.62L4.78 11.9L1 11.9L1 14.16L4.78 14.16L4.78 16.88C3.2 17.14 1.76 17.38 0.62 17.54L1.2 19.96L4.78 19.26L4.78 22.16C4.78 22.48 4.66 22.58 4.32 22.58C3.96 22.6 2.78 22.62 1.66 22.56C2 23.22 2.4 24.32 2.5 24.98C4.14 24.98 5.34 24.9 6.14 24.52C6.94 24.14 7.2 23.48 7.2 22.18L7.2 18.76L10.5 18.06L10.34 15.9L7.2 16.46L7.2 14.16L11.32 14.16C11.56 16.12 11.9 17.98 12.34 19.56C10.96 20.72 9.4 21.7 7.82 22.42C8.42 22.96 9.1 23.76 9.44 24.34C10.74 23.66 12 22.84 13.16 21.9C14.02 23.86 15.16 25.06 16.62 25.06C18.44 25.06 19.2 24.18 19.58 20.66C18.94 20.4 18.12 19.84 17.6 19.28C17.5 21.66 17.26 22.62 16.86 22.62C16.24 22.62 15.62 21.7 15.08 20.16C16.38 18.84 17.5 17.36 18.4 15.74L16.3 14.82ZM31.72 15.08C32.7 16.54 33.94 18.52 34.5 19.74L36.54 18.5C35.92 17.32 34.58 15.4 33.6 14.02L31.72 15.08ZM32.7 6.22C32.12 8.6 31.16 11.02 30 12.74L30 9.46L26.9 9.46C27.24 8.62 27.6 7.58 27.92 6.58L25.32 6.2C25.24 7.16 25 8.46 24.74 9.46L22.46 9.46L22.46 24.4L24.64 24.4L24.64 22.92L30 22.92L30 13.52C30.54 13.86 31.22 14.36 31.56 14.68C32.18 13.82 32.78 12.72 33.32 11.5L37.62 11.5C37.42 18.58 37.16 21.6 36.54 22.24C36.3 22.52 36.08 22.58 35.68 22.58C35.16 22.58 33.96 22.58 32.68 22.46C33.1 23.12 33.42 24.14 33.46 24.8C34.64 24.84 35.86 24.86 36.62 24.76C37.44 24.62 38 24.4 38.54 23.64C39.38 22.58 39.6 19.38 39.86 10.38C39.88 10.1 39.88 9.3 39.88 9.3L34.22 9.3C34.52 8.46 34.8 7.6 35.02 6.76L32.7 6.22ZM24.64 11.54L27.84 11.54L27.84 14.8L24.64 14.8L24.64 11.54ZM24.64 20.82L24.64 16.88L27.84 16.88L27.84 20.82L24.64 20.82ZM42.9 21.18L42.9 23.6L61.18 23.6L61.18 21.18L53.3 21.18L53.3 10.8L60.06 10.8L60.06 8.28L44 8.28L44 10.8L50.56 10.8L50.56 21.18L42.9 21.18ZM68.08 14.76L71.72 14.76L71.72 16.14L68.08 16.14L68.08 14.76ZM74.2 14.76L78 14.76L78 16.14L74.2 16.14L74.2 14.76ZM68.08 11.58L71.72 11.58L71.72 12.94L68.08 12.94L68.08 11.58ZM74.2 11.58L78 11.58L78 12.94L74.2 12.94L74.2 11.58ZM76.64 6.36C76.24 7.36 75.56 8.64 74.9 9.62L70.6 9.62L71.48 9.2C71.08 8.36 70.16 7.16 69.4 6.28L67.32 7.22C67.9 7.92 68.54 8.86 68.96 9.62L65.74 9.62L65.74 18.1L71.72 18.1L71.72 19.42L63.96 19.42L63.96 21.64L71.72 21.64L71.72 24.94L74.2 24.94L74.2 21.64L82.1 21.64L82.1 19.42L74.2 19.42L74.2 18.1L80.48 18.1L80.48 9.62L77.62 9.62C78.16 8.88 78.76 8 79.32 7.14L76.64 6.36Z"></path><path  id="文本 1" style="fill:#000000; opacity:1;" d="M35.9874,7.01336c-0.1056,0.40303 -0.23033,0.83191 -0.3742,1.28664h5.2668v1c0,0.53747 -0.007,0.91357 -0.021,1.1283c-0.13633,4.71533 -0.28493,7.9328 -0.4458,9.6524c-0.1,1.06873 -0.22573,1.9158 -0.3772,2.5412c-0.16887,0.6972 -0.40047,1.23617 -0.6948,1.6169c-0.34087,0.47447 -0.73447,0.8323 -1.1808,1.0735c-0.35933,0.19413 -0.8167,0.3386 -1.3721,0.4334l-0.0189,0.0033l-0.0189,0.0025c-0.64727,0.08513 -1.7554,0.1011 -3.3244,0.0479l-0.9092,-0.0308l-0.0551,-0.9081c-0.01533,-0.25313 -0.0819,-0.5596 -0.1997,-0.9194c-0.12367,-0.37773 -0.2656,-0.69247 -0.4258,-0.9442l-0.8363,-1.3143v2.2374h-5.36v1.48h-4.18v-16.94h2.4935c0.1854,-0.82721 0.30873,-1.60823 0.37,-2.34304l0.0883,-1.06032l4.8202,0.70449l-0.3596,1.12365c-0.18213,0.56921 -0.35813,1.09428 -0.528,1.57522h2.6397c0.28853,-0.79884 0.53663,-1.62443 0.7443,-2.47677l0.2344,-0.96156l4.285,0.99738zM35.2803,9.3h-1.0603c0.1182,-0.33104 0.2334,-0.66519 0.3429,-1c0.063,-0.1923 0.1241,-0.38483 0.1829,-0.5771c0.0986,-0.32239 0.1907,-0.64409 0.2742,-0.9629l-0.9743,-0.22679l-1.3457,-0.31321c-0.4032,1.65447 -0.99,3.32827 -1.7,4.7728c-0.2562,0.5213 -0.5285,1.0128 -0.8139,1.4627c-0.0614,0.0968 -0.1235,0.1917 -0.1861,0.2845v-3.28h-3.1c0.1255,-0.3101 0.2538,-0.64746 0.3817,-1c0.1078,-0.29689 0.2153,-0.60456 0.3208,-0.91577c0.1086,-0.32027 0.2151,-0.64429 0.3175,-0.96423l-1.0032,-0.14663l-0.6055,-0.08849l-0.9913,-0.14488c-0.0253,0.30377 -0.0666,0.64158 -0.1196,0.99315c-0.1143,0.75951 -0.2827,1.58327 -0.4604,2.26685h-2.28v14.94h2.18v-1.48h5.36v-9.4c0.1493,0.094 0.3094,0.2003 0.47,0.3116c0.1039,0.072 0.2081,0.1462 0.3097,0.2205c0.0752,0.055 0.149,0.11 0.2203,0.1644c0.0309,0.0235 0.0613,0.0469 0.0911,0.0701c0.1848,0.1437 0.3483,0.2799 0.4689,0.3934c0.188,-0.2608 0.3743,-0.5438 0.5575,-0.8454c0.0382,-0.0629 0.0763,-0.1266 0.1143,-0.1911c0.38,-0.646 0.7461,-1.3707 1.0882,-2.1435h4.3c-0.0097,0.3428 -0.0195,0.6761 -0.0295,1c-0.0683,2.2134 -0.1448,3.9914 -0.2403,5.3948c-0.0337,0.4955 -0.0698,0.9443 -0.1087,1.3491c-0.168,1.7465 -0.389,2.6736 -0.7015,2.9961c-0.24,0.28 -0.46,0.34 -0.86,0.34c-0.3543,0 -1.0244,0 -1.8203,-0.038c-0.3722,-0.0177 -0.7719,-0.0438 -1.1797,-0.082c0.1888,0.2967 0.3574,0.6661 0.4894,1.0428c0.1617,0.4614 0.2686,0.9339 0.2906,1.2972c1.18,0.04 2.4,0.06 3.16,-0.04c0.82,-0.14 1.38,-0.36 1.92,-1.12c0.84,-1.06 1.06,-4.26 1.32,-13.26c0.0017,-0.0233 0.0032,-0.0502 0.0046,-0.08c0.0154,-0.32768 0.0154,-1 0.0154,-1h-1zM36.2943,18.6494l0.2457,-0.1494c-0.0622,-0.1184 -0.1317,-0.2443 -0.2074,-0.3764c-0.678,-1.1836 -1.851,-2.8621 -2.7326,-4.1036l-0.6452,0.3638l-0.3611,0.2036l-0.8737,0.4926c0.1219,0.1816 0.2478,0.3713 0.376,0.5665c0.0584,0.089 0.1172,0.1791 0.1763,0.2701c0.6267,0.9649 1.2858,2.0337 1.7736,2.9292c0.1772,0.3254 0.3319,0.6279 0.4541,0.8942l0.8598,-0.5226zM31,21.2981l1.7733,0.1663c0.82233,0.07707 1.79123,0.1156 2.9067,0.1156c0.0446,0 0.08167,-0.00097 0.1112,-0.0029l0.0094,-0.011l0.0212,-0.0219c0.1316,-0.13587 0.25113,-0.68767 0.3586,-1.6554l-2.1207,1.2891l-0.4685,-1.0207c-0.46587,-1.01493 -1.3296,-2.46667 -2.5912,-4.3552zM33.8522,12.7298l0.0415,-0.0234l0.5216,0.7346c0.82687,1.16433 1.5001,2.14703 2.0197,2.9481c0.0568,-1.1162 0.1084,-2.41257 0.1548,-3.8891h-2.6275c-0.03653,0.07733 -0.07323,0.15393 -0.1101,0.2298zM80.158,7.68567c-0.21073,0.32359 -0.41693,0.63503 -0.6186,0.93433h1.9406v9.8h1.62v4.22h-7.9v3.3h-4.48v-3.3h-7.76v-4.22h1.78v-9.8h2.4012c-0.18767,-0.2588 -0.38473,-0.51279 -0.5912,-0.76198l-0.8364,-1.00943l3.9551,-1.7874l0.4881,0.56519c1.01993,1.18094 1.7373,2.17881 2.1521,2.99362h2.0498c0.54513,-0.86235 0.99607,-1.73948 1.3528,-2.63139l0.3369,-0.84227l4.8449,1.41008zM78.8506,9.62h-1.2306c0.228,-0.31239 0.4666,-0.64974 0.7084,-1c0.1373,-0.19882 0.2756,-0.4018 0.4136,-0.60674c0.1946,-0.28925 0.3886,-0.5824 0.578,-0.87326l-1.0038,-0.29215l-1.6762,-0.48785c-0.4,1 -1.08,2.28 -1.74,3.26h-4.3l0.88,-0.42l-0.0032,-0.00667c-0.0848,-0.17733 -0.1926,-0.37056 -0.3171,-0.57333c-0.0577,-0.09406 -0.1191,-0.19017 -0.1833,-0.2877c-0.4531,-0.68773 -1.0527,-1.44597 -1.5764,-2.0523l-1.1372,0.51392l-0.9428,0.42608c0.2052,0.24768 0.418,0.5254 0.6258,0.81457c0.1379,0.19192 0.2737,0.38887 0.4037,0.58543c0.2277,0.3443 0.4377,0.68738 0.6105,1h-3.22v8.48h5.98v1.32h-7.76v2.22h7.76v3.3h2.48v-3.3h7.9v-2.22h-7.9v-0.32v-1h6.28v-8.48zM18.04,14.16h1v-2.26h-5.48c-0.0944,-1.0502 -0.1609,-2.13516 -0.1914,-3.23441c-0.0121,-0.4334 -0.0185,-0.86901 -0.0188,-1.30559c0,-0.02653 0,-0.05306 0,-0.0796c0.0003,-0.30651 0.0037,-0.61345 0.0102,-0.9204h-2.5c0.0031,0.28663 0.0072,0.57424 0.0125,0.86243c0.0008,0.04585 0.0017,0.0917 0.0026,0.13757c0.0127,0.64558 0.0316,1.29383 0.0592,1.94051c0.0228,0.53504 0.0516,1.06899 0.0879,1.59949c0.0228,0.3349 0.0487,0.6685 0.0778,1h-3.9v-2.7c0.78787,-0.16024 1.54898,-0.33832 2.27145,-0.52827c0.14667,-0.03857 0.29176,-0.07762 0.43515,-0.11712c0.2081,-0.05733 0.4127,-0.11558 0.6134,-0.17461l-0.64003,-0.79613l-0.0393,-0.04889l-0.96067,-1.19498c-1.79202,0.59734 -4.43286,1.16381 -6.94641,1.53674c-0.34783,0.0516 -0.69322,0.0995 -1.03359,0.14326c0.12559,0.26083 0.26517,0.60565 0.3872,0.95784c0.13061,0.37694 0.2411,0.76231 0.2928,1.06216c0.70606,-0.08306 1.45045,-0.17571 2.2,-0.27794c0.33328,-0.04546 0.66759,-0.09281 1,-0.14206v2.28h-3.78v2.26h3.78v2.72c-1.15045,0.1893 -2.22668,0.368 -3.16692,0.513c-0.35106,0.0541 -0.68315,0.1035 -0.99308,0.147l0.23411,0.9768l0.34589,1.4432l2.58,-0.5045l1,-0.1955v2.9c0,0.32 -0.12,0.42 -0.46,0.42c-0.23818,0.0132 -0.83529,0.0265 -1.53648,0.0165c-0.35864,-0.0051 -0.74452,-0.0162 -1.12352,-0.0365c0.14573,0.2829 0.30248,0.6466 0.44191,1.0219c0.18587,0.5002 0.34095,1.021 0.39809,1.3981c1.64,0 2.84,-0.08 3.64,-0.46c0.57185,-0.2716 0.86778,-0.6863 0.99007,-1.3756c0.04878,-0.275 0.06993,-0.5937 0.06993,-0.9644v-3.42l3.3,-0.7l-0.0857,-1.1575l-0.0743,-1.0025l-0.98966,0.1765l-1.15034,0.2052l-1,0.1783v-2.3h4.12c0.24,1.96 0.58,3.82 1.02,5.4c-1.099,0.9238 -2.3122,1.7335 -3.55876,2.3886c-0.19312,0.1014 -0.38703,0.1992 -0.58145,0.2931c-0.12642,0.0611 -0.25304,0.1205 -0.37979,0.1783c0.11775,0.106 0.23859,0.222 0.35933,0.3444c0.1297,0.1314 0.25929,0.2702 0.38483,0.4119c0.35311,0.3986 0.67424,0.8198 0.87584,1.1637c1.0016,-0.5239 1.9794,-1.1309 2.9061,-1.8119c0.2761,-0.2029 0.5476,-0.4123 0.8139,-0.6281c0.1437,0.3276 0.2953,0.634 0.4549,0.9171c0.7951,1.4105 1.7891,2.2429 3.0051,2.2429c1.82,0 2.58,-0.88 2.96,-4.4c-0.3158,-0.1283 -0.6755,-0.3297 -1.0214,-0.5681c-0.3549,-0.2446 -0.6952,-0.5283 -0.9586,-0.8119c-0.0204,0.4865 -0.0467,0.9137 -0.079,1.2854c-0.1258,1.447 -0.3428,2.0546 -0.661,2.0546c-0.62,0 -1.24,-0.92 -1.78,-2.46c0.5523,-0.5608 1.0721,-1.1505 1.5564,-1.7675c0.2308,-0.2941 0.4535,-0.5944 0.6678,-0.9007c0.2024,-0.2893 0.3973,-0.5841 0.5845,-0.884c0.1775,-0.2846 0.348,-0.5739 0.5113,-0.8678l-0.9203,-0.4032l-0.4036,-0.1768l-0.7761,-0.34c-0.0606,0.1142 -0.123,0.2275 -0.1873,0.34c-0.2751,0.4814 -0.5832,0.9473 -0.9169,1.3952c-0.2578,0.3461 -0.5309,0.6814 -0.8158,1.0048c-0.0863,-0.4002 -0.1696,-0.822 -0.2485,-1.2605c-0.0665,-0.3689 -0.1299,-0.7497 -0.1895,-1.1395c-0.0501,-0.3276 -0.0976,-0.6615 -0.142,-1h1.7181zM19.5681,15.16l0.2397,0.105l-0.5336,0.9606c-0.3867,0.696 -0.8128,1.3684 -1.2749,2.0148l0.3335,0.3592c0.20713,0.22307 0.4677,0.44337 0.7817,0.6609c0.30473,0.21113 0.58537,0.3688 0.8419,0.473l0.6988,0.2839l-0.081,0.7499c-0.20427,1.89233 -0.5765,3.2219 -1.1167,3.9887c-0.61253,0.86933 -1.55837,1.304 -2.8375,1.304c-1.5214,0 -2.79117,-0.8775 -3.8093,-2.6325c-0.91693,0.66493 -1.886,1.26447 -2.9072,1.7986l-0.84432,0.4416l-0.48188,-0.822c-0.17263,-0.29447 -0.38511,-0.5884 -0.63744,-0.8818c-0.01731,0.04593 -0.0355,0.09053 -0.05455,0.1338c-0.2597,0.59027 -0.69845,1.03213 -1.31625,1.3256c-0.47629,0.2262 -1.08401,0.38053 -1.82318,0.463c-0.55969,0.06247 -1.30831,0.0937 -2.24588,0.0937h-0.8599l-0.12882,-0.8502c-0.03899,-0.2574 -0.13382,-0.5999 -0.28447,-1.0275c-0.14821,-0.42073 -0.30014,-0.78217 -0.45578,-1.0843l-0.79837,-1.5498l1.74085,0.0932c0.77347,0.04147 1.4623,0.0546 2.0665,0.0394v-1.1263l-3.32901,0.6509l-1.05999,-4.4227l1.09001,-0.153c0.62958,-0.08833 1.72924,-0.2612 3.29899,-0.5186v-0.8711h-3.78v-4.26h0.71352l-0.11898,-0.6901c-0.09297,-0.53921 -0.29148,-1.12457 -0.59554,-1.75608l-0.60132,-1.24889l1.3748,-0.17676c1.40571,-0.18074 2.80514,-0.41644 4.19828,-0.70709c1.43228,-0.29882 2.62995,-0.60874 3.59301,-0.92976l0.65983,-0.21994l0.63197,0.7861l-0.0065,-0.59748h4.53243l-0.0217,1.02127c-0.00153,0.07238 -0.0029,0.14484 -0.0041,0.21739l1.6203,-1.09823l0.5805,0.50527c1.53353,1.33472 2.59333,2.48712 3.1794,3.45719l0.4865,0.80521l-0.9148,0.6319h0.7324v4.26zM17.7672,10.7486l1.1128,-0.7686c-0.104,-0.17217 -0.2318,-0.35592 -0.3778,-0.54699c-0.066,-0.0864 -0.1357,-0.17429 -0.2087,-0.26329c-0.6648,-0.81153 -1.5948,-1.71454 -2.3935,-2.40972l-0.9512,0.6447l-0.5968,0.40448l-0.252,0.17082c0.0851,0.07876 0.1712,0.16 0.2581,0.2433c0.1567,0.15033 0.3155,0.30738 0.4738,0.46867c0.5695,0.58026 1.1317,1.21543 1.5611,1.79053c0.1071,0.1435 0.2059,0.2833 0.2946,0.4175c0.0973,0.1475 0.1823,0.2882 0.2524,0.42l0.6081,-0.42zM15.4549,10.9c-0.13953,-0.1784 -0.29743,-0.3695 -0.4737,-0.5733c-0.18607,-0.21507 -0.37707,-0.42653 -0.573,-0.63439c0.01967,0.39973 0.04423,0.80229 0.0737,1.20769zM2.79135,10.9h0.98865v-0.1288c-0.31891,0.043 -0.64846,0.08593 -0.98865,0.1288zM16.5579,20.0443c-0.1053,0.1182 -0.2118,0.2354 -0.3197,0.3515c0.0806,0.19573 0.16113,0.3722 0.2416,0.5294c0.02987,-0.2544 0.0559,-0.54803 0.0781,-0.8809zM8.2,10.0093v0.8907h1.8204c-0.02807,-0.42213 -0.0526,-0.86206 -0.0736,-1.31978c-0.57086,0.15373 -1.15313,0.29675 -1.7468,0.42908zM11.208,19.1918c-0.0206,-0.08153 -0.04097,-0.1638 -0.0611,-0.2468l-2.9469,0.6251v1.5549c1.05911,-0.5446 2.06177,-1.189 3.008,-1.9332zM8.2,15.16v0.1059l0.59366,-0.1059zM49.56,11.8h-6.56v-4.52h18.06v4.52h-6.76v8.38h7.88v4.42h-20.28v-4.42h7.66zM49.56,21.18h-6.66v2.42h18.28v-2.42h-7.88v-10.38h1h5.76v-2.52h-16.06v2.52h6.56v10.38zM27.84,11.54v3.26h-1h-1.2h-1v-3.26zM25.64,12.54v1.26h1.2v-1.26zM71.72,11.58v1.36h-1h-1.64h-1v-1.36h1zM78,11.58v1.36h-1h-1.8h-1v-1.36h1zM71.72,14.76v1.38h-3.64v-1.38h1zM78,14.76v1.38h-3.8v-1.38h1zM24.64,16.88h3.2v3.94h-3.2v-1zM25.64,19.82h1.2v-1.94h-1.2z"></path></g><g opacity="1"  transform="translate(7.224578857421875 0)  rotate(0)"><mask id="bg-mask-0" fill="white"><use transform="translate(0 0)  rotate(0)" xlink:href="#path_0"></use></mask><g mask="url(#bg-mask-0)" ><path id="路径 1" fill-rule="evenodd" style="fill:#8686FC" opacity="1" d="M87.7614 35.829L87.7614 19.779C87.7614 15.659 85.1714 12.319 81.9814 12.319L37.5914 12.319C34.4014 12.319 31.8114 15.659 31.8114 19.779L31.8114 35.829C31.8114 39.949 34.4014 43.289 37.5914 43.289L81.9814 43.289C85.1714 43.289 87.7614 39.949 87.7614 35.829Z"></path><path id="路径 2" fill-rule="evenodd" style="fill:#7268F3" opacity="1" d="M79.3271 19.9619L79.3271 35.9819C79.3271 35.9819 79.3271 42.8319 73.7371 42.8319C79.9771 42.8319 83.2571 41.4819 83.2571 36.0419L83.2571 17.0819C83.2571 17.0819 81.7771 11.5319 74.1671 12.3219C74.1671 12.3219 79.3271 13.5719 79.3271 19.9619Z"></path><path id="路径 3" fill-rule="evenodd" style="fill:#010101" opacity="1" d="M78.051,44.7867h-44.38c-3.83,0 -6.94,-4.02 -6.94,-8.96v-16.05c0,-4.94 3.11,-8.95 6.94,-8.95h44.38c3.82,0 6.93,4.01 6.93,8.95v16.05c0,4.94 -3.11,8.96 -6.93,8.96zM29.041,19.7767v16.05c0,3.29 2.08,5.97 4.63,5.97h44.38c2.55,0 4.62,-2.68 4.62,-5.97v-16.05c0,-3.29 -2.07,-5.97 -4.62,-5.97h-44.38c-2.55,0 -4.63,2.68 -4.63,5.97z"></path><path id="路径 4" fill-rule="evenodd" style="fill:#8686FC" opacity="1" d="M95.066 32.5994L95.126 42.3594C95.156 48.5894 91.126 53.6594 86.136 53.6594L35.796 53.6594C30.816 53.6594 26.776 48.5894 26.816 42.3594L26.866 32.5994L17.636 32.5994C14.526 32.5994 12.016 35.7394 12.016 39.6194L12.016 83.6094L109.596 83.6094L109.596 39.6094C109.596 35.7394 107.076 32.5994 103.976 32.5994L95.066 32.5994Z"></path><path id="路径 5" fill-rule="evenodd" style="fill:#7268F3" opacity="1" d="M100.62 37.1794L100.62 74.6694C100.62 74.6694 101.4 79.9594 93.5903 79.9594L104.65 79.9594L104.65 32.5994L98.1203 32.5994C98.1203 32.5994 100.62 33.3794 100.62 37.1794Z"></path><path id="路径 6" fill-rule="evenodd" style="fill:#010101" opacity="1" d="M8.22261 55.2177L8.22261 48.4977C8.22261 47.6777 7.70261 47.0077 7.07261 47.0077C6.43261 47.0077 5.91261 47.6777 5.91261 48.4977L5.91261 55.2177C5.91261 56.0377 6.43261 56.7077 7.07261 56.7077C7.70261 56.7077 8.22261 56.0377 8.22261 55.2177Z"></path><path id="路径 7" fill-rule="evenodd" style="fill:#010101" opacity="1" d="M105.793 80.5068L105.793 35.0568C105.793 30.2368 102.753 26.3168 99.0226 26.3168L90.1126 26.3168C89.8126 26.3168 89.5126 26.4768 89.2926 26.7568C89.0826 27.0368 88.9626 27.4168 88.9626 27.8168L89.0126 37.8968C89.0226 40.6168 88.2126 43.1668 86.7326 45.0868C85.2526 47.0168 83.2826 48.0768 81.1826 48.0768L30.8526 48.0768C28.7526 48.0768 26.7726 47.0168 25.3026 45.0868C23.8226 43.1668 23.0126 40.6168 23.0226 37.8968L23.0726 27.8168C23.0726 27.4168 22.9526 27.0368 22.7326 26.7568C22.5226 26.4768 22.2226 26.3168 21.9126 26.3168L12.6826 26.3168C8.95261 26.3168 5.91261 30.2368 5.91261 35.0568L5.91261 38.9368C5.91261 39.7668 6.43261 40.4368 7.07261 40.4368C7.70261 40.4368 8.22261 39.7668 8.22261 38.9368L8.22261 35.0568C8.22261 31.8868 10.2226 29.2968 12.6826 29.2968L20.7526 29.2968L20.7126 37.8868C20.6826 41.3768 21.7426 44.7268 23.6526 47.1968C25.5726 49.6968 28.1326 51.0668 30.8526 51.0668L81.1826 51.0668C83.8826 51.0768 86.4726 49.6868 88.3726 47.1968C90.2926 44.7068 91.3426 41.3968 91.3226 37.8868L91.2826 29.2968L99.0326 29.2968C101.493 29.2968 103.493 31.8868 103.493 35.0568L103.493 79.0068L8.22261 79.0068L8.22261 63.3868C8.22261 62.5668 7.70261 61.8968 7.07261 61.8968C6.43261 61.8968 5.91261 62.5668 5.91261 63.3868L5.91261 80.5068C5.91261 81.3268 6.43261 81.9968 7.07261 81.9968L104.643 81.9968C105.283 81.9968 105.803 81.3268 105.793 80.5068Z"></path><path id="路径 8" fill-rule="evenodd" style="fill:#FCD272" opacity="1" d="M31.8171 140.52L86.7671 140.52L86.7671 109.55L31.8171 109.55L31.8171 140.52Z"></path><path id="路径 9" fill-rule="evenodd" style="fill:#EFBD5B" opacity="1" d="M79.933 136.44L83.373 136.44L83.373 109.55L79.933 109.55L79.933 136.44Z"></path><path id="路径 10" fill-rule="evenodd" style="fill:#010101" opacity="1" d="M83.883,138.824h-55.94c-0.64,0 -1.16,-0.67 -1.16,-1.49v-30.98c0,-0.82 0.52,-1.49 1.16,-1.49h55.94c0.63,0 1.15,0.67 1.15,1.49v30.98c0,0.82 -0.51,1.49 -1.15,1.49zM82.723,135.834v-27.99h-53.63v27.99z"></path><path id="路径 11" fill-rule="evenodd" style="fill:#8686FC" opacity="1" d="M109.596 114.934L109.596 86.9045L12.016 86.9045L12.016 114.934C12.016 118.944 14.526 122.194 17.636 122.194L26.866 122.194L26.756 100.434L95.176 100.434L95.066 122.194L103.976 122.194C107.076 122.194 109.596 118.944 109.596 114.934Z"></path><path id="路径 12" fill-rule="evenodd" style="fill:#7268F3" opacity="1" d="M99.7878 116.934C99.7878 116.934 100.058 120.604 96.0178 121.514C101.148 121.314 104.998 120.604 104.948 112.554C104.898 104.494 104.948 86.9045 104.948 86.9045L99.7878 86.9045L99.7878 116.934Z"></path><path id="路径 13" fill-rule="evenodd" style="fill:#010101" opacity="1" d="M99.0326,123.341h-8.91c-0.31,0 -0.6,-0.16 -0.82,-0.44c-0.22,-0.28 -0.34,-0.66 -0.34,-1.06l0.1,-20.26h-66.09l0.09,20.26c0,0.39 -0.12,0.77 -0.33,1.06c-0.22,0.28 -0.52,0.44 -0.82,0.44h-9.23c-3.72999,0 -6.76999,-3.93 -6.76999,-8.75v-28.0395c0,-0.82 0.52,-1.49 1.16,-1.49h97.57039c0.64,0 1.16,0.67 1.16,1.49v28.0395c0,4.82 -3.04,8.75 -6.7704,8.75zM99.0326,120.351c2.4604,0 4.4604,-2.58 4.4604,-5.76v-26.5495h-95.27039v26.5495c0,3.17 1.99999,5.76 4.45999,5.76h8.07l-0.1,-20.26c0,-0.3995 0.12,-0.7795 0.33,-1.0595c0.22,-0.29 0.52,-0.44 0.82,-0.44h68.43c0.31,0 0.6,0.15 0.82,0.44c0.22,0.28 0.34,0.66 0.34,1.0595l-0.11,20.26z"></path><path id="路径 14" fill-rule="evenodd" style="fill:#7268F3" opacity="1" d="M101.04 75.1457L101.04 66.1657C101.04 64.6257 100.08 63.3857 98.8901 63.3857L91.1401 63.3857C88.9901 63.3857 87.2501 65.6357 87.2501 68.4057L87.2501 73.0257C87.2501 74.1957 87.9801 75.1457 88.8901 75.1457L101.05 75.1457L101.04 75.1457Z"></path><path id="路径 15" fill-rule="evenodd" style="fill:#5DECFD" opacity="1" d="M88.3713 72.4706L98.8113 72.4706L98.8113 64.8706L88.3713 64.8706L88.3713 72.4706Z"></path><path id="路径 16" fill-rule="evenodd" style="fill:#010101" opacity="1" d="M98.8054,73.9483h-10.43c-0.64,0 -1.16,-0.67 -1.16,-1.49v-7.59c0,-0.82 0.52,-1.49 1.16,-1.49h10.43c0.64,0 1.16,0.67 1.16,1.49v7.6c0,0.82 -0.52,1.48 -1.16,1.48zM97.6554,70.9683v-4.61h-8.13v4.61z"></path><path id="路径 17" fill-rule="evenodd" style="fill:#7268F3" opacity="1" d="M86.1443 72.7757L86.1443 66.4357C86.1443 64.7557 85.0843 63.3857 83.7843 63.3857L78.9543 63.3857C78.0243 63.3857 77.2743 64.3557 77.2743 65.5557L77.2743 72.7757C77.2743 74.0857 78.1043 75.1457 79.1143 75.1457L84.3143 75.1457C85.3243 75.1457 86.1443 74.0857 86.1443 72.7757Z"></path><path id="路径 18" fill-rule="evenodd" style="fill:#5DECFD" opacity="1" d="M78.3956 72.4706L84.1556 72.4706L84.1556 64.8706L78.3956 64.8706L78.3956 72.4706Z"></path><path id="路径 19" fill-rule="evenodd" style="fill:#010101" opacity="1" d="M84.1589,73.9483h-5.76c-0.64,0 -1.16,-0.67 -1.16,-1.49v-7.59c0,-0.82 0.52,-1.49 1.16,-1.49h5.76c0.63,0 1.15,0.67 1.15,1.49v7.6c0,0.82 -0.52,1.48 -1.15,1.48zM82.9989,70.9683v-4.61h-3.45v4.61zM78.3189,117.658h-44.81c-0.64,0 -1.16,-0.68 -1.16,-1.5c0,-0.82 0.52,-1.49 1.16,-1.49h44.81c0.64,0 1.16,0.67 1.16,1.49c0,0.82 -0.52,1.5 -1.16,1.5zM78.3189,129.068h-44.81c-0.64,0 -1.16,-0.67 -1.16,-1.49c0,-0.82 0.52,-1.49 1.16,-1.49h44.81c0.64,0 1.16,0.67 1.16,1.49c0,0.82 -0.52,1.49 -1.16,1.49z"></path><path id="路径 20" fill-rule="evenodd" style="fill:#FFFFFF" opacity="1" d="M49.9956,18.4925h-3.02c-0.63,0 -1.15,-0.67 -1.15,-1.49c0,-0.82 0.52,-1.49 1.15,-1.49h3.02c0.64,0 1.15,0.67 1.15,1.49c0,0.83 -0.51,1.49 -1.15,1.49zM35.1656,23.2125c-0.64,0 -1.16,-0.67 -1.16,-1.49v-1.73c0,-2.47 1.56,-4.48 3.47,-4.48h6.13c0.63,0 1.15,0.67 1.15,1.49c0,0.82 -0.52,1.49 -1.15,1.49h-6.13c-0.64,0 -1.16,0.68 -1.16,1.5v1.73c0,0.82 -0.51,1.49 -1.15,1.49zM14.9156,59.5325c-0.64,0 -1.16,-0.67 -1.16,-1.49v-1.13c0,-0.16 0.02,-0.3 0.05,-0.44l-0.05,-0.02c0,-0.82 0.52,-1.49 1.16,-1.49c0.63,0 1.15,0.67 1.15,1.49v1.59c0,0.82 -0.52,1.49 -1.15,1.49zM14.9156,51.4525c-0.64,0 -1.16,-0.67 -1.16,-1.49v-7.13c0,-2.97 0.62,-5.19 1.84,-6.58c1.49,-1.7 3.25,-1.47 3.44,-1.44c0.64,0.11 1.08,0.85 1.01,1.67c-0.08,0.81 -0.65,1.38 -1.28,1.3c-0.06,-0.01 -0.95,-0.1 -1.65,0.73c-0.68,0.79 -1.04,2.29 -1.04,4.32v7.13c-0.01,0.82 -0.52,1.49 -1.16,1.49zM30.5156,92.9325h-3.26c-0.64,0 -1.16,-0.67 -1.16,-1.49c0,-0.82 0.52,-1.49 1.16,-1.49h3.26c0.64,0 1.16,0.66 1.16,1.49c0,0.82 -0.52,1.49 -1.16,1.49zM14.9156,103.063c-0.64,0 -1.16,-0.67 -1.16,-1.49v-5.6205c0,-3.31 2.08,-6 4.64,-6h4.57c0.63,0 1.15,0.68 1.15,1.5c0,0.82 -0.52,1.49 -1.15,1.49h-4.57c-1.28,0 -2.33,1.35 -2.33,3.01v5.6205c0,0.83 -0.52,1.49 -1.15,1.49z"></path></g></g></g><defs><rect id="path_0" x="0" y="0" width="115.59355926513672" height="149.230712890625" /></defs></svg>