<?xml version="1.0" standalone="no"?><!DOCTYPE svg PUBLIC "-//W3C//DTD SVG 1.1//EN" "http://www.w3.org/Graphics/SVG/1.1/DTD/svg11.dtd"><svg class="icon" width="32px" height="21.83px" viewBox="0 0 1501 1024" version="1.1" xmlns="http://www.w3.org/2000/svg"><path d="M5.870933 952.593067h1421.858134V7.099733H5.870933v945.493334z m1428.343467 5.666133v-6.826667 6.826667zM0 958.464V0h1433.6v957.303467H0v1.160533z" fill="#353636" /><path d="M3.549867 637.405867h1427.729066v317.576533H3.549867z" fill="#CC303C" /><path d="M3.549867 321.058133h1427.729066v317.508267H3.549867z" fill="#0053A3" /><path d="M3.549867 3.549867h1427.729066v317.508266H3.549867z" fill="#FFFFFF" /><path d="M619.793067 231.697067H241.117867c-5.9392 77.6192-14.1312 155.2384-5.9392 234.018133 7.099733 50.517333 22.391467 101.1712 51.746133 144.657067 35.293867 51.746133 88.200533 89.429333 143.496533 116.394666 55.296-27.0336 108.202667-64.648533 143.496534-116.394666 29.354667-43.485867 44.714667-94.071467 50.517333-145.8176 9.4208-77.6192 0-155.2384-4.642133-232.8576z" fill="#FFFFFF" /><path d="M250.538667 243.438933h359.765333c4.778667 74.069333 14.199467 148.138667 4.778667 222.276267-5.870933 49.425067-20.002133 97.621333-48.196267 138.786133a45.602133 45.602133 0 0 0-31.812267-50.5856 46.557867 46.557867 0 0 0-48.196266 11.741867c-7.031467-16.384-20.002133-31.744-37.614934-37.614933v-68.266667h28.194134c22.391467 0 44.714667 4.778667 67.037866 8.260267a77.892267 77.892267 0 0 1 0-56.388267c-21.162667 3.4816-42.325333 8.192-64.648533 8.192h-29.422933v-45.8752c24.712533 0 49.425067 3.549867 74.069333 8.192a96.256 96.256 0 0 1 0-57.5488c-24.644267 4.7104-49.3568 9.4208-74.069333 8.192 0-23.483733 3.549867-48.196267 8.192-71.68a96.256 96.256 0 0 1-57.617067 0c4.778667 23.483733 9.4208 47.035733 8.260267 71.68-24.712533 1.2288-49.3568-3.4816-74.069334-8.192 7.031467 18.773333 5.870933 38.775467 0 57.617067 24.712533-4.778667 49.3568-9.4208 74.069334-8.192v45.806933h-29.354667c-22.391467 0-43.554133-4.7104-64.7168-8.192 5.870933 18.773333 5.870933 38.775467 0 56.388267 30.583467-5.870933 62.327467-10.581333 94.071467-8.192v68.1984a58.299733 58.299733 0 0 0-34.133334 30.583466l-3.4816 8.192a45.738667 45.738667 0 0 0-49.425066-10.581333c-20.002133 7.099733-34.133333 29.422933-30.583467 50.5856-28.194133-41.1648-42.325333-89.361067-48.196267-138.786133-7.031467-76.458667 1.160533-150.528 7.031467-224.597334z" fill="#CC303C" /><path d="M402.2272 261.051733c18.773333 5.9392 38.775467 5.9392 57.617067 0-4.778667 23.552-9.4208 47.104-8.192 71.748267 24.644267 1.2288 49.3568-3.4816 74.069333-8.192a81.1008 81.1008 0 0 0 0 57.617067c-24.712533-4.778667-49.425067-9.4208-74.1376-8.192v45.806933h29.354667c22.391467 0 43.554133-4.7104 64.7168-8.192a92.501333 92.501333 0 0 0 0 56.388267 326.519467 326.519467 0 0 0-67.037867-8.192h-28.194133v68.1984a58.436267 58.436267 0 0 0-40.004267 0v-68.266667c-31.744-2.321067-63.488 2.389333-94.071467 8.260267a77.892267 77.892267 0 0 0 0-56.388267c21.162667 3.4816 42.325333 8.192 64.7168 8.192h29.354667c1.2288-15.291733 0-30.583467 0-45.8752-24.644267-1.160533-49.3568 3.549867-74.069333 8.192a96.256 96.256 0 0 0 0-57.5488c24.712533 4.7104 49.425067 9.4208 74.069333 8.192 0-24.644267-3.4816-48.196267-8.192-71.68z" fill="#FFFFFF" /><path d="M410.4192 526.882133a58.436267 58.436267 0 0 1 40.004267 0c17.6128 5.870933 30.583467 21.162667 37.614933 37.614934a45.943467 45.943467 0 0 1 48.264533-11.741867 46.421333 46.421333 0 0 1 31.744 50.517333c-32.9728 49.425067-83.490133 84.650667-136.465066 110.592-52.906667-25.941333-103.492267-61.166933-136.3968-110.592-3.549867-21.162667 10.581333-43.485867 30.583466-50.517333a48.059733 48.059733 0 0 1 49.3568 10.581333l3.549867-8.192c4.778667-11.810133 17.681067-22.391467 31.744-28.2624z" fill="#0053A3" /></svg>