<svg xmlns="http://www.w3.org/2000/svg" xmlns:xlink="http://www.w3.org/1999/xlink" width="152.75399780273438" height="182.1644287109375" viewBox="0 0 152.75399780273438 182.1644287109375" fill="none"><g opacity="1"  transform="translate(0 0)  rotate(0)"><mask id="bg-mask-0" fill="white"><use transform="translate(0 0)  rotate(0)" xlink:href="#path_0"></use></mask><g mask="url(#bg-mask-0)" ><g opacity="1"  transform="translate(0 0)  rotate(0)"><path id="矩形 3" fill-rule="evenodd" style="fill:#93D2F3" opacity="1" d="M15,182.16c-8.28,0 -15,-6.72 -15,-15v-152.16c0,-8.28 6.72,-15 15,-15h116.56c8.28,0 15,6.72 15,15v152.16c0,8.28 -6.72,15 -15,15z"></path><g opacity="1"  transform="translate(17.545455932617188 43.2254638671875)  rotate(0)"><g opacity="1"  transform="translate(0 0)  rotate(0)"><g opacity="1"  transform="translate(0 0)  rotate(0)"></g><path id="路径 1" fill-rule="evenodd" style="fill:#E6E9ED" opacity="1" d="M97.5295,23.3516c0,1.36 -0.17,2.68 -0.5,3.91c0.15,-0.02 0.33,-0.02 0.5,-0.02c5.7695,0 10.4495,5.23 10.4495,11.67c0,6.44 -4.68,11.68 -10.4495,11.68h-12.21c-2.9,-2.45 -6.51,-3.89 -10.43,-3.89c-3.92,0 -7.52,1.44 -10.43,3.89h-12.21c-1.53,0 -2.98,-0.37 -4.28,-1.03l12.87,-9.3c1.16,-0.84 1.86,-2.28 1.86,-3.82v-0.76c0,-2.51 -1.83,-4.55 -4.08,-4.55c-0.74,0 -1.49,0.23 -2.12,0.68l-14.4,9.89c-0.2,-0.91 -0.3,-1.85 -0.3,-2.79c0,-5.27 3.13,-9.72 7.44,-11.16c-0.3,-1.43 -0.47,-2.88 -0.47,-4.4c0,-10.74 7.8,-19.46 17.41,-19.46c5.52,0 10.42,2.88 13.62,7.34c3.78,-2.16 8.29,-1.97 11.91,0.5c3.62,2.48 5.82,6.88 5.82,11.62z"></path><path id="路径 3" fill-rule="evenodd" style="fill:#B4DD7F" opacity="1" d="M58.6233,31.1326c2.25,0 4.08,2.04 4.08,4.55v0.76c0,1.54 -0.7,2.98 -1.87,3.82l-12.87,9.3l-11.68,8.46c-1.99,1.42 -3.19,3.89 -3.19,6.54v3.64c-0.28,-0.06 -0.58,-0.1 -0.87,-0.1h-28.74001v-5.84c0,-8.6 6.24,-15.56 13.93001,-15.56h13.48c2.58,0 5.11,-0.8 7.3,-2.32l3.9,-2.68l14.41,-9.89c0.62,-0.45 1.37,-0.68 2.12,-0.68z"></path><path id="路径 4" fill-rule="evenodd" style="fill:#F0D0B4" opacity="1" d="M35.3033,69.5226c0.78,0.88 1.27,2.1 1.27,3.44c0,2.69 -1.95,4.86 -4.35,4.87h-21.77c-3.85001,0 -6.97001,-3.48 -6.97001,-7.78v-1.95h28.74001c1.15,0 2.26,0.51 3.08,1.42z"></path><path id="路径 5" fill-rule="evenodd" style="fill:#F0D0B4" opacity="1" d="M22.6415,46.6995c-5.77,0 -10.45,-5.23 -10.45,-11.68c0,-6.44 4.68,-11.67 10.45,-11.67c5.77,0 10.45,5.23 10.45,11.67c0,6.45 -4.68,11.68 -10.45,11.68z"></path><path id="路径 6" fill-rule="evenodd" style="fill:#CCD1D9" opacity="1" d="M49.9356,85.6147h24.96h24.38v5.84l-2.27,11.4203c-0.71,3.56 -3.54,6.09 -6.81,6.09h-30.61c-3.28,0 -6.1,-2.53 -6.81,-6.09l-3.4,-17.1203z"></path><path id="路径 7" fill-rule="evenodd" style="fill:#838F9B" opacity="1" d="M55.7277,120.634c-2.88,0 -5.22,-2.61 -5.22,-5.83c0,-3.22 2.34,-5.84 5.22,-5.84c2.89,0 5.23,2.62 5.23,5.84c0,3.22 -2.34,5.83 -5.23,5.83z"></path><path id="路径 8" fill-rule="evenodd" style="fill:#838F9B" opacity="1" d="M94.0439,120.634c-2.88,0 -5.22,-2.61 -5.22,-5.83c0,-3.22 2.34,-5.84 5.22,-5.84c2.89,0 5.23,2.62 5.23,5.84c0,3.22 -2.34,5.83 -5.23,5.83z"></path><path id="路径 9" fill-rule="evenodd" style="fill:#FCD770" opacity="1" d="M74.8943,46.6989c3.92,0 7.52,1.44 10.43,3.89c4.39,3.67 6.98,9.44 6.98,15.57c0,10.74 -7.8,19.46 -17.41,19.46c-9.62,0 -17.42,-8.72 -17.42,-19.46c0,-6.36 2.75,-12.03 6.98,-15.57c2.91,-2.45 6.52,-3.89 10.44,-3.89z"></path><path id="路径 10" fill-rule="evenodd" style="fill:#000000" opacity="1" d="M109.722,38.9157c0,7.51 -5.47,13.62 -12.1904,13.62h-7.87c2.84,3.83 4.39,8.65 4.39,13.62c0,7.24 -3.24,13.64 -8.18,17.51h15.1404l-0.04,8.21l-2.2704,11.4203c-0.31,1.6 -0.99,3.09 -1.96,4.33c2.59,1.21 4.2704,4.04 4.2704,7.18c0,4.29 -3.1204,7.78 -6.9604,7.78c-3.84,0 -6.97,-3.49 -6.97,-7.78c0.01,-1.37 0.34,-2.72 0.97,-3.9h-26.32c0.6,1.15 0.97,2.47 0.97,3.9c0,4.29 -3.13,7.78 -6.97,7.78c-3.84,0 -6.97,-3.49 -6.97,-7.78c0.01,-3.14 1.69,-5.97 4.28,-7.18c-0.94,-1.2 -1.63,-2.67 -1.96,-4.33l-5.15,-25.8903c-0.18,-0.89 -0.88,-1.52 -1.7,-1.52h-6.53c-0.6,1.4 -1.61,2.54 -2.87,3.21v35.7103c0,4.29 -3.12,7.78 -6.97,7.78c-2.09,0 -3.94,-1.06 -5.22,-2.69c-1.28,1.63 -3.14,2.69 -5.23,2.69c-3.84,0 -6.96,-3.49 -6.96,-7.78v-35.0303c-4.79997,0 -8.70997,-4.36 -8.70997,-9.73v-7.78c0,-8.52 5.48,-15.63 12.69997,-17.19c-2.44,-2.49 -3.99,-6.07 -3.99,-10.05c0,-7.51 5.47,-13.62 12.19,-13.62c6.72,0 12.19,6.11 12.19,13.62c0,3.65 -1.32,7.15 -3.65,9.71c2.15,-0.06 4.26,-0.75 6.1,-2l2.89,-1.99c-0.07,-0.61 -0.11,-1.22 -0.11,-1.83c0,-5.36 2.88,-10.24 7.18,-12.42c-0.14,-1.06 -0.22,-2.11 -0.22,-3.15c0,-11.8 8.6,-21.39996 19.16,-21.39996c5.36,-0.01 10.47,2.5 14.09,6.91c1.61,-0.71 3.33,-1.08 5.07,-1.07c7.68,0 13.93,6.97996 13.93,15.55996c0,0.7 -0.05,1.4 -0.13,2.08c5.9604,0.89 10.5804,6.59 10.5804,13.49zM55.5816,30.1457c0.92,-0.63 1.97,-0.96 3.05,-0.96c3.2,0.01 5.81,2.91 5.81,6.5v0.75c0,2.21 -1,4.26 -2.66,5.46l-9.34,6.75h11.47c3.11,-2.44 6.89,-3.89 10.98,-3.89c4.08,0 7.87,1.45 10.98,3.89h11.66c4.8004,0 8.7104,-4.37 8.7104,-9.73c0,-5.1 -3.62,-9.3 -8.0404,-9.69c-1.3,3.53 -3.71,6.51 -6.89,8.19l-1.49,-3.51c3.64,-1.95 5.96,-6.05 5.97,-10.56c0,-6.43 -4.69,-11.67 -10.45,-11.67c-1.65,0 -3.28,0.44 -4.75,1.29l-1.27,0.72l-0.89,-1.24c-2.96,-4.17996 -7.48,-6.61996 -12.25,-6.60996c-8.64,0 -15.67,7.85996 -15.67,17.50996c0,1.34 0.14,2.66 0.41,3.96l0.37,1.77l-1.56,0.53c-3.5,1.18 -5.96,4.75 -6.15,8.8zM31.3516,35.0257c0,-5.37 -3.91,-9.73 -8.71,-9.73c-4.8,0 -8.71,4.36 -8.71,9.73c0,5.36 3.91,9.73 8.71,9.73c4.8,0 8.71,-4.37 8.71,-9.73zM31.3516,79.7757h-17.42v35.0303c0,2.14 1.56,3.89 3.48,3.89c1.93,0 3.49,-1.75 3.49,-3.89v-31.1403h3.48v31.1403c0,2.14 1.56,3.89 3.48,3.89c1.93,0 3.49,-1.75 3.49,-3.89zM32.2216,70.0457h-21.77v-3.89h20.9v-1.6c-0.01,-3.3 1.49,-6.38 3.98,-8.17l24.56,-17.76c0.67,-0.48 1.07,-1.3 1.07,-2.19v-0.75c0,-0.95 -0.46,-1.82 -1.2,-2.28c-0.73,-0.46 -1.64,-0.44 -2.36,0.06l-18.3,12.58c-2.47,1.7 -5.31,2.6 -8.21,2.6h-13.48c-6.72,0 -12.18997,6.11 -12.18997,13.62v7.78c0,3.22 2.35,5.84 5.22997,5.84h21.77c1.44,0 2.61,-1.31 2.61,-2.92c0,-1.61 -1.17,-2.92 -2.61,-2.92zM55.7316,66.1557c0,-4.97 1.55,-9.79 4.39,-13.62h-7.87c-1.41,0 -2.78,-0.28 -4.08,-0.8l-10.95,7.92c-1.5,1.08 -2.39,2.91 -2.39,4.9v2.26c1.85,0.98 3.13,2.92 3.42,5.18h5.98c2.45,-0.01 4.58,1.89 5.1,4.57l1.41,7.1h13.17c-4.94,-3.87 -8.18,-10.27 -8.18,-17.51zM55.7316,110.906c-1.92,0 -3.48,1.75 -3.48,3.9c0,2.14 1.56,3.89 3.48,3.89c1.92,0 3.48,-1.75 3.48,-3.89c0,-2.15 -1.56,-3.9 -3.48,-3.9zM94.0516,110.906c-1.92,0 -3.49,1.75 -3.49,3.9c0,2.14 1.57,3.89 3.49,3.89c1.92,0 3.48,-1.75 3.48,-3.89c0,-2.15 -1.56,-3.9 -3.48,-3.9zM54.4816,102.446c0.52,2.68 2.64,4.59 5.1,4.57h30.62c2.45,0.02 4.58,-1.89 5.1,-4.57l2.23,-11.2103v-3.68h-46.01zM74.8916,48.6457c-8.64,0 -15.68,7.85 -15.68,17.51c0,9.66 7.04,17.51 15.68,17.51c8.64,0 15.67,-7.85 15.67,-17.51c0,-9.66 -7.03,-17.51 -15.67,-17.51z"></path><path id="路径 11" fill-rule="evenodd" style="fill:#000000" opacity="1" d="M62.701,91.4489h3.48v11.6801h-3.48zM73.151,91.4489h3.48v11.6801h-3.48zM83.601,91.4489h3.48v11.6801h-3.48zM74.891,60.3189h-1.74v1.95c0,1.07 0.78,1.94 1.74,1.94c2.88,0 5.22,2.62 5.22,5.84v5.84h-3.48v3.89h-3.48v-4.25c-2.02,-0.81 -3.49,-2.95 -3.49,-5.48h3.49c0,1.07 0.78,1.95 1.74,1.95h1.74v-1.95c0,-1.07 -0.78,-1.95 -1.74,-1.95c-2.88,0 -5.23,-2.62 -5.23,-5.83v-5.84h3.49v-3.89h3.48v4.25c2.08,0.82 3.48,3.01 3.48,5.48h-3.48c0,-1.08 -0.78,-1.95 -1.74,-1.95zM66.181,13.6189c-4.8,0 -8.71,4.37 -8.71,9.73h-3.48c0,-7.51 5.47,-13.61996 12.19,-13.61996zM88.821,23.3489c0,-2.15 -1.56,-3.89 -3.48,-3.89v-3.89c3.84,0 6.97,3.49 6.97,7.78zM67.921,29.1889h3.49v3.89h-3.49zM74.891,29.1889h3.48v3.89h-3.48zM81.861,29.1889h3.48v3.89h-3.48z"></path></g></g><g opacity="1" transform="translate(46 6)  rotate(0)"><path id="文本 1"  style="fill:#FFFFFF" opacity="1" d="M8.06 6.72C8.38 7.18 8.7 7.74 8.96 8.28L2.04 8.28L2.04 10.56L6.64 10.56L4.92 11.3C5.44 12.04 6.02 13 6.34 13.76L2.22 13.76L2.22 16.54C2.22 18.58 2.06 21.46 0.48 23.52C1.02 23.82 2.1 24.76 2.5 25.24C4.36 22.86 4.74 19.1 4.74 16.58L4.74 16.1L18.72 16.1L18.72 13.76L14.48 13.76L16.14 11.42L13.44 10.58C13.12 11.54 12.52 12.84 11.98 13.76L7.34 13.76L8.72 13.14C8.42 12.4 7.76 11.36 7.14 10.56L18.3 10.56L18.3 8.28L11.8 8.28C11.54 7.64 11.04 6.76 10.54 6.12L8.06 6.72ZM26.48 9.3L33.52 9.3L33.52 11.98L26.48 11.98L26.48 9.3ZM24.16 7L24.16 14.26L35.96 14.26L35.96 7L24.16 7ZM21.4 15.94L21.4 25L23.68 25L23.68 23.98L26.66 23.98L26.66 24.88L29.06 24.88L29.06 15.94L21.4 15.94ZM23.68 21.68L23.68 18.24L26.66 18.24L26.66 21.68L23.68 21.68ZM30.74 15.94L30.74 25L33.04 25L33.04 23.98L36.26 23.98L36.26 24.9L38.66 24.9L38.66 15.94L30.74 15.94ZM33.04 21.68L33.04 18.24L36.26 18.24L36.26 21.68L33.04 21.68ZM50.18 6.12C48.06 9.24 44.26 11.7 40.56 13.14C41.24 13.76 41.94 14.66 42.32 15.34C43.22 14.92 44.14 14.44 45.02 13.9L45.02 14.88L55.04 14.88L55.04 13.54C56 14.12 56.98 14.6 57.96 15.06C58.28 14.3 58.98 13.4 59.6 12.84C56.88 11.86 54.22 10.5 51.64 8.12L52.32 7.2L50.18 6.12ZM46.88 12.66C48.06 11.8 49.18 10.86 50.18 9.82C51.36 10.96 52.52 11.88 53.66 12.66L46.88 12.66ZM43.7 16.6L43.7 24.96L46.16 24.96L46.16 24.08L54.1 24.08L54.1 24.88L56.68 24.88L56.68 16.6L43.7 16.6ZM46.16 21.86L46.16 18.7L54.1 18.7L54.1 21.86L46.16 21.86ZM69.28 7.1L69.28 17.76L71.56 17.76L71.56 9.18L76.18 9.18L76.18 17.76L78.56 17.76L78.56 7.1L69.28 7.1ZM63.68 6.4L63.68 9.28L61.1 9.28L61.1 11.5L63.68 11.5L63.68 12.78L63.66 13.92L60.7 13.92L60.7 16.2L63.52 16.2C63.26 18.68 62.52 21.34 60.5 23.14C61.06 23.52 61.86 24.32 62.2 24.8C63.86 23.2 64.8 21.14 65.32 19.04C66.08 20.04 66.9 21.2 67.36 21.98L69 20.26C68.5 19.68 66.54 17.32 65.76 16.56L65.8 16.2L68.62 16.2L68.62 13.92L65.94 13.92L65.96 12.78L65.96 11.5L68.38 11.5L68.38 9.28L65.96 9.28L65.96 6.4L63.68 6.4ZM72.78 10.42L72.78 13.56C72.78 16.64 72.2 20.6 67.08 23.26C67.54 23.6 68.32 24.5 68.6 24.96C70.86 23.76 72.36 22.2 73.32 20.52L73.32 22.32C73.32 24.06 73.96 24.54 75.54 24.54L76.92 24.54C78.9 24.54 79.26 23.64 79.46 20.58C78.92 20.46 78.12 20.12 77.6 19.72C77.52 22.18 77.4 22.72 76.9 22.72L75.98 22.72C75.6 22.72 75.42 22.56 75.42 22.06L75.42 17.14L74.62 17.14C74.9 15.9 75 14.68 75 13.6L75 10.42L72.78 10.42Z"></path><path  id="文本 1" style="fill:#000000; opacity:1;" d="M52.9885,7.97797c0.96513,0.81805 1.9904,1.5378 3.0758,2.15923c1.14993,0.65833 2.4415,1.24567 3.8747,1.762l0.161,0.058v-3.6772h2.58v-2.88h4.28v2.88h1.32v-2.18h11.28v12.66h-1.5679l0.2176,0.1674c0.18753,0.1442 0.42887,0.2829 0.724,0.4161c0.27727,0.12507 0.525,0.21183 0.7432,0.2603l0.8369,0.186l-0.0559,0.8554c-0.05613,0.85853 -0.12833,1.53253 -0.2166,2.022c-0.11593,0.6428 -0.29097,1.16037 -0.5251,1.5527c-0.29093,0.48767 -0.69277,0.83897 -1.2055,1.0539c-0.42333,0.17747 -0.95357,0.2662 -1.5907,0.2662h-1.38c-1.07687,0 -1.8732,-0.24343 -2.389,-0.7303c-0.3662,-0.34573 -0.61137,-0.82553 -0.7355,-1.4394c-0.933,0.9594 -2.0485,1.7837 -3.3465,2.4729l-0.8329,0.4422l-0.4903,-0.8055c-0.11507,-0.18907 -0.31083,-0.43983 -0.5873,-0.7523c-0.28287,-0.3198 -0.50717,-0.54093 -0.6729,-0.6634l-1.2889,-0.9527l1.278,-0.6639c-0.2114,-0.35547 -0.47633,-0.76233 -0.7948,-1.2206c-0.66347,1.71133 -1.5921,3.14233 -2.7859,4.293l-0.8376,0.8073l-0.6724,-0.9493c-0.1408,-0.19873 -0.35843,-0.44297 -0.6529,-0.7327c-0.30547,-0.3006 -0.56967,-0.52653 -0.7926,-0.6778l-1.0617,-0.7205l0.9579,-0.8536c1.2944,-1.15347 2.14073,-2.8846 2.539,-5.1934h-2.6737v-3.0195c-0.07813,0.09387 -0.15563,0.19203 -0.2325,0.2945c-0.26773,0.357 -0.46303,0.68137 -0.5859,0.9731l-0.404,0.9595l-0.7976,-0.3743v9.8467h-4.58v-0.8h-5.94v0.88h-4.46v-9.6938l-0.7995,0.3731l-0.4534,-0.8115c-0.1694,-0.30307 -0.39537,-0.63263 -0.6779,-0.9887c-0.29687,-0.37407 -0.5912,-0.6941 -0.883,-0.9601l-1.1912,-1.0862l1.5023,-0.5847c1.89173,-0.73627 3.62113,-1.65789 5.1882,-2.76486c1.70173,-1.20212 3.0242,-2.49721 3.9674,-3.88526l0.4936,-0.72643l3.9822,2.0097zM50.18,6.12c-1.9277,2.83695 -5.2444,5.1282 -8.6119,6.6032c-0.3359,0.1471 -0.6724,0.2862 -1.0081,0.4168c0.252,0.2298 0.5067,0.498 0.7469,0.7792c0.408,0.4776 0.7739,0.9928 1.0131,1.4208c0.5637,-0.2631 1.1353,-0.5497 1.7,-0.8598c0.3368,-0.1851 0.6712,-0.3784 1,-0.5802v0.98h10.02v-1.34c0.067,0.0405 0.1341,0.0805 0.2013,0.12c0.265,0.1559 0.5313,0.3047 0.7987,0.4479c0.3378,0.181 0.6771,0.3532 1.0172,0.5201c0.3005,0.1474 0.6017,0.2906 0.9028,0.432c0.0386,-0.0916 0.0826,-0.1852 0.1314,-0.28c0.1964,-0.3815 0.4691,-0.7824 0.7656,-1.1478c0.2413,-0.2974 0.4984,-0.5712 0.743,-0.7922c-0.3448,-0.1242 -0.6886,-0.2545 -1.0314,-0.3923c-2.3617,-0.9489 -4.6756,-2.2494 -6.9286,-4.3277l0.077,-0.10418l0.603,-0.81582l-0.9057,-0.45707zM56.04,15.6h0.7321c-0.25593,-0.12513 -0.49997,-0.24727 -0.7321,-0.3664zM61.4683,12.5l-0.465,0.42h1.6742l0.0025,-0.14v-0.28zM63.68,12.5v0.28l-0.02,1.14h-2.96v2.28h2.82c-0.0347,0.331 -0.0779,0.6651 -0.1316,1c-0.2977,1.8565 -0.9165,3.7355 -2.1802,5.2161c-0.2166,0.2537 -0.4521,0.4957 -0.7082,0.7239c0.2345,0.1591 0.5111,0.3919 0.7783,0.644c0.0902,0.085 0.1793,0.1722 0.2653,0.2595c0.2681,0.2721 0.5068,0.5453 0.6564,0.7565c0.2468,-0.2379 0.4777,-0.4859 0.6936,-0.7428c0.9577,-1.1389 1.6218,-2.4507 2.0783,-3.815c0.1329,-0.3973 0.2483,-0.799 0.3481,-1.2022c0.2509,0.3302 0.5084,0.6778 0.7573,1.0234c0.2581,0.3585 0.5071,0.7148 0.7299,1.0473c0.2084,0.311 0.3941,0.6012 0.5431,0.8528c0.0032,0.0055 0.0065,0.011 0.0097,0.0165l0.0506,-0.0531l0.6648,-0.6972l0.9246,-0.9697c-0.3975,-0.4611 -1.7178,-2.0472 -2.6343,-3.06c-0.2171,-0.2399 -0.4115,-0.4477 -0.5657,-0.6007c-0.0137,-0.0135 -0.027,-0.0266 -0.04,-0.0393l0.04,-0.36h2.82v-2.28h-2.68l0.0175,-1l0.0025,-0.14v-1.28h2.42v-2.22h-2.42v-2.88h-2.28v2.88h-2.58v1v1.22h2.58zM68.28,12.5h-1.3201l-0.0001,0.2975l-0.0021,0.1225h1.3223zM69.28,12.92v4.84h2.28v-8.58h4.62v8.58h2.38v-10.66h-9.28zM76.6307,18.76h-0.2107v2.96h0.049c0.05607,-0.38313 0.0999,-1.06063 0.1315,-2.0325zM75.42,18.76v-1.62h-0.8c0.0758,-0.3356 0.1384,-0.6697 0.1894,-1c0.1374,-0.8901 0.1906,-1.7523 0.1906,-2.54v-3.18h-2.22v3.14c0,0.857 -0.0449,1.7821 -0.22,2.7283c-0.1514,0.8182 -0.4001,1.6522 -0.8014,2.4717c-0.6913,1.4121 -1.8355,2.7811 -3.7145,3.9517c-0.0119,0.0073 -0.0237,0.0147 -0.0356,0.0221c-0.2916,0.1803 -0.6008,0.3559 -0.9285,0.5262c0.0746,0.0551 0.1576,0.125 0.2455,0.2053c0.1618,0.1478 0.3403,0.3311 0.5137,0.5232c0.3133,0.3472 0.6098,0.7234 0.7608,0.9715c1.5911,-0.8448 2.8055,-1.8681 3.72,-2.9861c0.3844,-0.47 0.7159,-0.9567 1,-1.4539v1.8039c0.0009,1.7368 0.6412,2.2161 2.22,2.2161h1.38c1.98,0 2.34,-0.9 2.54,-3.96c-0.2545,-0.0566 -0.5668,-0.162 -0.8804,-0.2996c-0.3516,-0.1543 -0.7047,-0.3489 -0.9796,-0.5604c-0.0146,0.4484 -0.0305,0.833 -0.0498,1.1622c-0.0866,1.4767 -0.2413,1.8378 -0.6502,1.8378h-0.92c-0.38,0 -0.56,-0.16 -0.56,-0.66zM69.9161,19.7911c0.2672,-0.3284 0.504,-0.6721 0.7104,-1.0311h-1.5878c0.08153,0.09607 0.164,0.1934 0.2474,0.292c0.24687,0.29193 0.40397,0.47697 0.4713,0.5551zM68.28,17.8712v-0.6712h-0.5815c0.17827,0.20393 0.3721,0.42767 0.5815,0.6712zM54.1,24.88h2.58v-8.28h-12.98v8.36h2.46v-0.88h7.94zM11.328,5.50436c0.44193,0.56569 0.81487,1.15757 1.1188,1.77564h6.8532v4.28h-2.0332l-0.8513,1.2h3.3045v4.34h-13.98494c-0.02794,1.4574 -0.1743,2.8137 -0.43909,4.0689c-0.40788,1.93353 -1.07723,3.49583 -2.00805,4.6869l-0.76295,0.9762l-0.79319,-0.9518c-0.17078,-0.20493 -0.45094,-0.47453 -0.84048,-0.8088c-0.39437,-0.3384 -0.69335,-0.56413 -0.89695,-0.6772l-1.01332,-0.563l0.70548,-0.9198c0.60625,-0.7904 1.03093,-1.81643 1.27405,-3.0781c0.17296,-0.89753 0.25943,-1.9953 0.25943,-3.2933v-3.78h3.46715c-0.17439,-0.28287 -0.3695,-0.5779 -0.58534,-0.8851l-0.22132,-0.3149h-2.84049v-4.28h6.1914l-0.8267,-1.18837l4.5266,-1.09514zM11.8,8.28c-0.26,-0.64 -0.76,-1.52 -1.26,-2.16l-1.44459,0.3495l-1.03541,0.2505c0.12137,0.17447 0.24273,0.36331 0.36083,0.56c0.06575,0.10952 0.13049,0.22146 0.19365,0.3347c0.12249,0.21963 0.23904,0.44414 0.34552,0.6653h-6.92v2.28h4.6l-0.57383,0.2469l-0.2086,0.0897l-0.93757,0.4034c0.05905,0.084 0.11888,0.1709 0.17901,0.26c0.12689,0.188 0.25515,0.3859 0.38036,0.588c0.12508,0.2018 0.24712,0.4077 0.36174,0.612c0.19502,0.3476 0.36853,0.6904 0.49889,1h-4.12v2.78c0,1.7753 -0.12117,4.1867 -1.19391,6.1403c-0.15995,0.2913 -0.34107,0.5724 -0.54609,0.8397c0.2122,0.1179 0.50778,0.3346 0.81272,0.5834c0.1658,0.1353 0.33436,0.28 0.49379,0.4235c0.29355,0.2643 0.55614,0.5243 0.71349,0.7131c0.21044,-0.2693 0.40194,-0.5562 0.57609,-0.857c1.36503,-2.358 1.66391,-5.5681 1.66391,-7.803v-0.48h13.98v-2.34h-4.24l0.7094,-1l0.342,-0.4821l0.5093,-0.7179l0.0993,-0.14l-1.0044,-0.3125l-1.6956,-0.5275c-0.1002,0.3007 -0.2279,0.6347 -0.3726,0.98c-0.3174,0.7571 -0.7165,1.5682 -1.0874,2.2h-4.64l0.0715,-0.0321l1.3085,-0.5879c-0.0448,-0.1105 -0.09763,-0.2277 -0.15715,-0.3498c-0.0049,-0.01 -0.00983,-0.0201 -0.01482,-0.0302c-0.0812,-0.1646 -0.17423,-0.3378 -0.27588,-0.5151c-0.12869,-0.2245 -0.2712,-0.4557 -0.42103,-0.6849c-0.22775,-0.3484 -0.4724,-0.692 -0.71112,-1h11.16v-2.28zM11.9888,11.56h-2.94822c0.24851,0.4198 0.44998,0.8198 0.60442,1.2h1.7519c0.21733,-0.39907 0.41463,-0.79907 0.5919,-1.2zM36.96,14.94h2.7v10.96h-4.4v-0.92h-1.22v1.02h-4.3v-0.12h-4.08v-0.9h-0.98v1.02h-4.28v-11.06h2.76v-8.94h13.8zM36.26,24.9h2.4v-8.96h-1h-5.92h-1v9.06h2.3v-1.02h3.22zM26.66,24.88h2.4v-8.94h-1h-5.66h-1v9.06h2.28v-1.02h2.98zM24.16,14.26h11.8v-7.26h-11.8v1zM33.52,9.3v2.68h-1h-5.04h-1v-2.68h1zM27.48,10.3v0.68h5.04v-0.68zM46.88,12.66c0.4415,-0.3218 0.8746,-0.6548 1.2962,-1c0.6804,-0.5572 1.3307,-1.1462 1.9377,-1.77157l0.0661,-0.06843c0.0318,0.03068 0.0635,0.0612 0.0952,0.09156c0.6793,0.65004 1.3519,1.22774 2.0178,1.74844c0.4588,0.3587 0.9145,0.6904 1.367,1h-5.1306zM49.712,11.66h1.0043c-0.17327,-0.14853 -0.3448,-0.2993 -0.5146,-0.4523c-0.15933,0.1514 -0.32257,0.30217 -0.4897,0.4523zM23.68,18.24h2.98v3.44h-2.98v-1zM25.66,20.68v-1.44h-0.98v1.44zM33.04,18.24h3.22v3.44h-3.22v-1zM35.26,20.68v-1.44h-1.22v1.44zM46.16,18.7h7.94v3.16h-7.94v-1zM47.16,20.86h5.94v-1.16h-5.94z"></path></g></g></g></g><defs><rect id="path_0" x="0" y="0" width="152.75399780273438" height="182.1644287109375" /></defs></svg>