<?xml version="1.0" standalone="no"?><!DOCTYPE svg PUBLIC "-//W3C//DTD SVG 1.1//EN" "http://www.w3.org/Graphics/SVG/1.1/DTD/svg11.dtd"><svg class="icon" width="64px" height="64.00px" viewBox="0 0 1024 1024" version="1.1" xmlns="http://www.w3.org/2000/svg"><path d="M716.8 0H307.2C137.5488 0 0 137.5488 0 307.2v409.6c0 169.6512 137.5488 307.2 307.2 307.2h409.6c169.6512 0 307.2-137.5488 307.2-307.2V307.2c0-169.6512-137.5488-307.2-307.2-307.2z" fill="#E3F0FF" /><path d="M170.752 425.2928A51.2 51.2 0 0 1 221.184 365.568h499.7888a51.2 51.2 0 0 1 50.4832 59.6992l-50.5344 300.032A51.2 51.2 0 0 1 670.464 768H271.872a51.2 51.2 0 0 1-50.5088-42.6752L170.752 425.2928z" fill="#0B77FF" /><path d="M588.8 486.4m25.6 0l0 0q25.6 0 25.6 25.6l0 0q0 25.6-25.6 25.6l0 0q-25.6 0-25.6-25.6l0 0q0-25.6 25.6-25.6Z" fill="#FFFFFF" /><path d="M588.8 640a25.6 25.6 0 1 1 51.2 0 25.6 25.6 0 1 1-51.2 0z" fill="#FFFFFF" /><path d="M307.2 486.4m23.8848 0l202.9312 0q23.8848 0 23.8848 23.8848l0 0.0256q0 23.8848-23.8848 23.8848l-202.9312 0q-23.8848 0-23.8848-23.8848l0-0.0256q0-23.8848 23.8848-23.8848Z" fill="#FFFFFF" /><path d="M307.2 614.4m23.8848 0l202.9312 0q23.8848 0 23.8848 23.8848l0 0.0256q0 23.8848-23.8848 23.8848l-202.9312 0q-23.8848 0-23.8848-23.8848l0-0.0256q0-23.8848 23.8848-23.8848Z" fill="#FFFFFF" /><path d="M251.6992 256a25.6 25.6 0 0 0-25.6 25.6v62.8224a50.8672 50.8672 0 0 1 26.8544-7.5776h499.7632a51.2 51.2 0 0 1 50.5088 59.6992l-50.5344 300.032a51.2 51.2 0 0 1-5.2224 15.4112 51.2 51.2 0 0 0 44.6464-42.112l51.968-300.032a51.2 51.2 0 0 0-50.432-59.9552H382.1056l-35.584-44.3136a25.6 25.6 0 0 0-19.968-9.5744H251.6992z" fill="#6CB0FF" /></svg>