<svg xmlns="http://www.w3.org/2000/svg" xmlns:xlink="http://www.w3.org/1999/xlink" width="152.75399780273438" height="182.1644287109375" viewBox="0 0 152.75399780273438 182.1644287109375" fill="none"><g opacity="1"  transform="translate(0 0)  rotate(0)"><path id="矩形 3" fill-rule="evenodd" style="fill:#93D2F3" opacity="1" d="M15 182.16L131.56 182.16C139.84 182.16 146.56 175.44 146.56 167.16L146.56 15C146.56 6.72 139.84 0 131.56 0L15 0C6.72 0 0 6.72 0 15L0 167.16C0 175.44 6.72 182.16 15 182.16Z"></path><g opacity="1"  transform="translate(17.545455932617188 43.2254638671875)  rotate(0)"><mask id="bg-mask-0" fill="white"><use transform="translate(0 0)  rotate(0)" xlink:href="#path_0"></use></mask><g mask="url(#bg-mask-0)" ><path id="路径 1" fill-rule="evenodd" style="fill:#E6E9ED" opacity="1" d="M97.5295 23.3516C97.5295 18.6116 95.3295 14.2116 91.7095 11.7316C88.0895 9.26159 83.5795 9.07159 79.7995 11.2316C76.5995 6.77159 71.6995 3.89159 66.1795 3.89159C56.5695 3.89159 48.7695 12.6116 48.7695 23.3516C48.7695 24.8716 48.9395 26.3216 49.2395 27.7516C44.9295 29.1916 41.7995 33.6416 41.7995 38.9116C41.7995 39.8516 41.8995 40.7916 42.0995 41.7016L56.4995 31.8116C57.1295 31.3616 57.8795 31.1316 58.6195 31.1316C60.8695 31.1316 62.6995 33.1716 62.6995 35.6816L62.6995 36.4416C62.6995 37.9816 61.9995 39.4216 60.8395 40.2616L47.9695 49.5616C49.2695 50.2216 50.7195 50.5916 52.2495 50.5916L64.4595 50.5916C67.3695 48.1416 70.9695 46.7016 74.8895 46.7016C78.8095 46.7016 82.4195 48.1416 85.3195 50.5916L97.5295 50.5916C103.299 50.5916 107.979 45.3516 107.979 38.9116C107.979 32.4716 103.299 27.2416 97.5295 27.2416C97.3595 27.2416 97.1795 27.2416 97.0295 27.2616C97.3595 26.0316 97.5295 24.7116 97.5295 23.3516Z"></path><path id="路径 2" fill-rule="evenodd" style="fill:#838F9B" opacity="1" d="M12.1915,77.8343h20.03c0.29,0 0.59,-0.04 0.87,-0.1v37.0697c0,1.61 -0.59,3.07 -1.53,4.12c-0.94,1.05 -2.25,1.71 -3.7,1.71c-2.88,0 -5.21,-2.6 -5.22,-5.82v-0.01v0.01c0,2.36 -1.27,4.48 -3.22,5.39c-1.96,0.9 -4.21,0.4 -5.7,-1.28c-0.94,-1.05 -1.53,-2.51 -1.53,-4.12zM22.6415,114.804v0.01z"></path><path id="路径 3" fill-rule="evenodd" style="fill:#B4DD7F" opacity="1" d="M58.6233 31.1326C57.8733 31.1326 57.1233 31.3626 56.5033 31.8126L42.0933 41.7026L38.1933 44.3826C36.0033 45.9026 33.4733 46.7026 30.8933 46.7026L17.4133 46.7026C9.72329 46.7026 3.48329 53.6626 3.48329 62.2626L3.48329 68.1026L32.2233 68.1026C32.5133 68.1026 32.8133 68.1426 33.0933 68.2026L33.0933 64.5626C33.0933 61.9126 34.2933 59.4426 36.2833 58.0226L47.9633 49.5626L60.8333 40.2626C62.0033 39.4226 62.7033 37.9826 62.7033 36.4426L62.7033 35.6826C62.7033 33.1726 60.8733 31.1326 58.6233 31.1326Z"></path><path id="路径 4" fill-rule="evenodd" style="fill:#F0D0B4" opacity="1" d="M35.3033 69.5226C34.4833 68.6126 33.3733 68.1026 32.2233 68.1026L3.48329 68.1026L3.48329 70.0526C3.48329 74.3526 6.60329 77.8326 10.4533 77.8326L32.2233 77.8326C34.6233 77.8226 36.5733 75.6526 36.5733 72.9626C36.5733 71.6226 36.0833 70.4026 35.3033 69.5226Z"></path><path id="路径 5" fill-rule="evenodd" style="fill:#F0D0B4" opacity="1" d="M22.6415 46.6995C28.4115 46.6995 33.0915 41.4695 33.0915 35.0195C33.0915 28.5795 28.4115 23.3495 22.6415 23.3495C16.8715 23.3495 12.1915 28.5795 12.1915 35.0195C12.1915 41.4695 16.8715 46.6995 22.6415 46.6995Z"></path><path id="路径 6" fill-rule="evenodd" style="fill:#CCD1D9" opacity="1" d="M49.9356 85.6147L49.3756 85.7547L52.7756 102.875C53.4856 106.435 56.3056 108.965 59.5856 108.965L90.1956 108.965C93.4656 108.965 96.2956 106.435 97.0056 102.875L99.2756 91.4547L99.2756 85.6147L74.8956 85.6147L49.9356 85.6147Z"></path><path id="路径 7" fill-rule="evenodd" style="fill:#838F9B" opacity="1" d="M55.7277 120.634C58.6177 120.634 60.9577 118.024 60.9577 114.804C60.9577 111.584 58.6177 108.964 55.7277 108.964C52.8477 108.964 50.5077 111.584 50.5077 114.804C50.5077 118.024 52.8477 120.634 55.7277 120.634Z"></path><path id="路径 8" fill-rule="evenodd" style="fill:#838F9B" opacity="1" d="M94.0439 120.634C96.9339 120.634 99.2739 118.024 99.2739 114.804C99.2739 111.584 96.9339 108.964 94.0439 108.964C91.1639 108.964 88.8239 111.584 88.8239 114.804C88.8239 118.024 91.1639 120.634 94.0439 120.634Z"></path><path id="路径 9" fill-rule="evenodd" style="fill:#FCD770" opacity="1" d="M74.8943 46.6989C70.9743 46.6989 67.3643 48.1389 64.4543 50.5889C60.2243 54.1289 57.4743 59.7989 57.4743 66.1589C57.4743 76.8989 65.2743 85.6189 74.8943 85.6189C84.5043 85.6189 92.3043 76.8989 92.3043 66.1589C92.3043 60.0289 89.7143 54.2589 85.3243 50.5889C82.4143 48.1389 78.8143 46.6989 74.8943 46.6989Z"></path><path id="路径 10" fill-rule="evenodd" style="fill:#000000" opacity="1" d="M109.722,38.9158c0,7.51 -5.47,13.6199 -12.1904,13.6199h-7.87c2.84,3.83 4.39,8.65 4.39,13.62c0,7.24 -3.24,13.64 -8.18,17.51h15.1404l-0.04,8.21l-2.2704,11.4203c-0.31,1.6 -0.99,3.09 -1.96,4.33c2.59,1.21 4.2704,4.04 4.2704,7.18c0,4.29 -3.1204,7.78 -6.9604,7.78c-3.84,0 -6.97,-3.49 -6.97,-7.78c0.01,-1.37 0.34,-2.72 0.97,-3.9h-26.32c0.6,1.15 0.97,2.47 0.97,3.9c0,4.29 -3.13,7.78 -6.97,7.78c-3.84,0 -6.97,-3.49 -6.97,-7.78c0.01,-3.14 1.69,-5.97 4.28,-7.18c-0.94,-1.2 -1.63,-2.67 -1.96,-4.33l-5.15,-25.8903c-0.18,-0.89 -0.88,-1.52 -1.7,-1.52h-6.53c-0.6,1.4 -1.61,2.5401 -2.87,3.21v35.7103c0,4.29 -3.12,7.78 -6.97,7.78c-2.09,0 -3.94,-1.06 -5.22,-2.69c-1.28,1.63 -3.14,2.69 -5.23,2.69c-3.84,0 -6.96,-3.49 -6.96,-7.78v-35.0303c-4.79996,0 -8.70996,-4.36 -8.70996,-9.73v-7.78c0,-8.52 5.48,-15.63 12.69996,-17.1899c-2.44,-2.49 -3.99,-6.07 -3.99,-10.05c0,-7.51 5.47,-13.62 12.19,-13.62c6.72,0 12.19,6.11 12.19,13.62c0,3.65 -1.32,7.15 -3.65,9.71c2.15,-0.06 4.26,-0.75 6.1,-2l2.89,-1.99c-0.07,-0.6101 -0.11,-1.22 -0.11,-1.83c0,-5.36 2.88,-10.24 7.18,-12.42c-0.14,-1.06 -0.22,-2.11 -0.22,-3.15c0,-11.8 8.6,-21.40004 19.16,-21.40004c5.36,-0.01 10.47,2.5 14.09,6.90999c1.61,-0.71 3.33,-1.08 5.07,-1.07c7.68,0 13.93,6.98005 13.93,15.56005c0,0.7 -0.05,1.4 -0.13,2.08c5.9604,0.89 10.5804,6.59 10.5804,13.49zM43.5816,38.4058l12,-8.26c0.92,-0.63 1.97,-0.96 3.05,-0.96c3.2,0.01 5.81,2.9099 5.81,6.5v0.75c0,2.21 -1,4.26 -2.66,5.46l-9.34,6.75h11.47c3.11,-2.4401 6.89,-3.89 10.98,-3.89c4.08,0 7.87,1.4499 10.98,3.89h11.66c4.8004,0 8.7104,-4.37 8.7104,-9.73c0,-5.1 -3.62,-9.3 -8.0404,-9.69c-1.3,3.53 -3.71,6.51 -6.89,8.19l-1.49,-3.51c3.64,-1.95 5.96,-6.05 5.97,-10.56c0,-6.43 -4.69,-11.67 -10.45,-11.67c-1.65,0 -3.28,0.44 -4.75,1.29l-1.27,0.72l-0.89,-1.24c-2.96,-4.18005 -7.48,-6.62005 -12.25,-6.61005c-8.64,0 -15.67,7.86005 -15.67,17.51005c0,1.34 0.14,2.66 0.41,3.96l0.37,1.77l-1.56,0.53c-3.5,1.18 -5.96,4.75 -6.15,8.8zM22.6416,44.7558c4.8,0 8.71,-4.3701 8.71,-9.73c0,-5.37 -3.91,-9.73 -8.71,-9.73c-4.8,0 -8.71,4.36 -8.71,9.73c0,5.3599 3.91,9.73 8.71,9.73zM31.3516,114.806v-35.0303h-17.42v35.0303c0,2.14 1.56,3.89 3.48,3.89c1.93,0 3.49,-1.75 3.49,-3.89v-31.1403h3.48v31.1403c0,2.14 1.56,3.89 3.48,3.89c1.93,0 3.49,-1.75 3.49,-3.89zM34.8316,72.9657c0,-1.6099 -1.17,-2.92 -2.61,-2.92h-21.77v-3.89h20.9v-1.6c-0.01,-3.3 1.49,-6.38 3.98,-8.17l24.56,-17.7599c0.67,-0.48 1.07,-1.3 1.07,-2.19v-0.75c0,-0.95 -0.46,-1.82 -1.2,-2.28c-0.73,-0.46 -1.64,-0.44 -2.36,0.06l-18.3,12.5799c-2.47,1.7001 -5.31,2.6001 -8.21,2.6001h-13.48c-6.72,0 -12.18996,6.1099 -12.18996,13.6199v7.78c0,3.22 2.35,5.84 5.22996,5.84h21.77c1.44,0 2.61,-1.31 2.61,-2.92zM63.9116,83.6657c-4.94,-3.87 -8.18,-10.27 -8.18,-17.51c0,-4.97 1.55,-9.79 4.39,-13.62h-7.87c-1.41,0 -2.78,-0.28 -4.08,-0.8l-10.95,7.92c-1.5,1.08 -2.39,2.91 -2.39,4.9v2.2601c1.85,0.9799 3.13,2.9199 3.42,5.18h5.98c2.45,-0.0101 4.58,1.8899 5.1,4.57l1.41,7.0999zM59.2116,114.806c0,-2.15 -1.56,-3.9 -3.48,-3.9c-1.92,0 -3.48,1.75 -3.48,3.9c0,2.14 1.56,3.89 3.48,3.89c1.92,0 3.48,-1.75 3.48,-3.89zM97.5316,114.806c0,-2.15 -1.56,-3.9 -3.48,-3.9c-1.92,0 -3.49,1.75 -3.49,3.9c0,2.14 1.57,3.89 3.49,3.89c1.92,0 3.48,-1.75 3.48,-3.89zM51.5216,87.5557l2.96,14.8903c0.52,2.68 2.64,4.59 5.1,4.57h30.62c2.45,0.02 4.58,-1.89 5.1,-4.57l2.23,-11.2103v-3.68zM90.5616,66.1557c0,-9.66 -7.03,-17.5099 -15.67,-17.5099c-8.64,0 -15.68,7.8499 -15.68,17.5099c0,9.6601 7.04,17.51 15.68,17.51c8.64,0 15.67,-7.8499 15.67,-17.51z"></path><path id="路径 11" fill-rule="evenodd" style="fill:#000000" opacity="1" d="M62.701,91.4489h3.48v11.6801h-3.48zM73.151,91.4489h3.48v11.6801h-3.48zM83.601,91.4489h3.48v11.6801h-3.48zM74.891,60.3189h-1.74v1.95c0,1.07 0.78,1.94 1.74,1.94c2.88,0 5.22,2.62 5.22,5.84v5.84h-3.48v3.89h-3.48v-4.25c-2.02,-0.81 -3.49,-2.95 -3.49,-5.48h3.49c0,1.07 0.78,1.95 1.74,1.95h1.74v-1.95c0,-1.07 -0.78,-1.95 -1.74,-1.95c-2.88,0 -5.23,-2.62 -5.23,-5.83v-5.84h3.49v-3.89h3.48v4.25c2.08,0.82 3.48,3.01 3.48,5.48h-3.48c0,-1.08 -0.78,-1.95 -1.74,-1.95zM66.181,13.6189c-4.8,0 -8.71,4.37 -8.71,9.73h-3.48c0,-7.51 5.47,-13.61996 12.19,-13.61996zM88.821,23.3489c0,-2.15 -1.56,-3.89 -3.48,-3.89v-3.89c3.84,0 6.97,3.49 6.97,7.78zM67.921,29.1889h3.49v3.89h-3.49zM74.891,29.1889h3.48v3.89h-3.48zM81.861,29.1889h3.48v3.89h-3.48z"></path></g></g><g opacity="1" transform="translate(32 8.1644287109375)  rotate(0)"><path id="文本 1"  style="fill:#FFFFFF" opacity="1" d="M16.82 6.66C16.42 7.88 15.64 9.48 15.06 10.5L17.14 11.28C17.76 10.32 18.5 8.9 19.14 7.5L16.82 6.66ZM6.86 7.7C7.64 8.86 8.42 10.42 8.68 11.42L10.86 10.4C10.54 9.38 9.7 7.9 8.9 6.8L6.86 7.7ZM1.5 8.06C2.74 8.72 4.28 9.76 5 10.52L6.48 8.66C5.7 7.92 4.12 6.96 2.9 6.38L1.5 8.06ZM0.56 13.36C1.84 14.02 3.44 15.08 4.16 15.84L5.62 13.96C4.8 13.22 3.18 12.26 1.92 11.66L0.56 13.36ZM1.12 23.36L3.24 24.9C4.3 22.88 5.42 20.54 6.34 18.4L4.58 16.94C3.48 19.3 2.1 21.82 1.12 23.36ZM9.84 17.52L15.94 17.52L15.94 19.02L9.84 19.02L9.84 17.52ZM9.84 15.5L9.84 14.02L15.94 14.02L15.94 15.5L9.84 15.5ZM11.74 6.2L11.74 11.8L7.5 11.8L7.5 24.96L9.84 24.96L9.84 21.04L15.94 21.04L15.94 22.36C15.94 22.62 15.84 22.72 15.52 22.74C15.22 22.74 14.16 22.74 13.24 22.68C13.56 23.3 13.88 24.3 13.96 24.94C15.48 24.94 16.54 24.92 17.3 24.54C18.06 24.18 18.28 23.54 18.28 22.4L18.28 11.8L14.16 11.8L14.16 6.2L11.74 6.2ZM30.1 18.88C29.42 21.12 27.98 22.3 21.6 22.92C22 23.42 22.46 24.4 22.62 24.96C29.7 24.04 31.66 22.16 32.48 18.88L30.1 18.88ZM31.34 22.48C33.84 23.12 37.3 24.24 39 25L40.34 23.2C38.48 22.44 34.98 21.44 32.58 20.9L31.34 22.48ZM27.74 11.34C27.72 11.64 27.66 11.92 27.58 12.2L25.42 12.2L25.54 11.34L27.74 11.34ZM29.9 11.34L32.14 11.34L32.14 12.2L29.82 12.2C29.86 11.92 29.88 11.64 29.9 11.34ZM23.62 9.78C23.48 11.1 23.22 12.68 23 13.76L26.48 13.76C25.62 14.46 24.2 15.02 21.9 15.42C22.32 15.84 22.88 16.74 23.08 17.24C23.56 17.14 24 17.06 24.42 16.94L24.42 21.78L26.74 21.78L26.74 18.22L35.22 18.22L35.22 21.56L37.66 21.56L37.66 16.26L26.44 16.26C27.94 15.6 28.82 14.74 29.32 13.76L32.14 13.76L32.14 15.86L34.4 15.86L34.4 13.76L37.52 13.76C37.48 14.06 37.42 14.22 37.36 14.3C37.26 14.44 37.12 14.44 36.94 14.44C36.72 14.46 36.32 14.44 35.84 14.38C36.04 14.8 36.22 15.46 36.24 15.88C37.02 15.92 37.74 15.92 38.14 15.9C38.56 15.86 39 15.72 39.3 15.4C39.64 14.98 39.76 14.24 39.86 12.84C39.86 12.6 39.88 12.2 39.88 12.2L34.4 12.2L34.4 11.34L38.62 11.34L38.62 7.24L34.4 7.24L34.4 6.2L32.14 6.2L32.14 7.24L29.92 7.24L29.92 6.2L27.78 6.2L27.78 7.24L23.1 7.24L23.1 8.84L27.78 8.84L27.78 9.76L24.54 9.78L23.62 9.78ZM29.92 8.84L32.14 8.84L32.14 9.76L29.92 9.76L29.92 8.84ZM34.4 8.84L36.46 8.84L36.46 9.76L34.4 9.76L34.4 8.84ZM58.24 6.78C57.62 7.68 56.92 8.54 56.16 9.34L56.16 8.36L51.82 8.36L51.82 6.2L49.44 6.2L49.44 8.36L44.72 8.36L44.72 10.44L49.44 10.44L49.44 12.28L43 12.28L43 14.38L49.82 14.38C47.52 15.76 44.98 16.88 42.36 17.72C42.82 18.2 43.52 19.18 43.82 19.7C44.86 19.32 45.88 18.9 46.9 18.42L46.9 25L49.3 25L49.3 24.42L56.2 24.42L56.2 24.92L58.7 24.92L58.7 15.98L51.42 15.98C52.24 15.48 53.02 14.94 53.78 14.38L61 14.38L61 12.28L56.32 12.28C57.8 10.94 59.14 9.46 60.3 7.86L58.24 6.78ZM51.82 12.28L51.82 10.44L55.08 10.44C54.4 11.08 53.68 11.7 52.92 12.28L51.82 12.28ZM49.3 21.06L56.2 21.06L56.2 22.4L49.3 22.4L49.3 21.06ZM49.3 19.24L49.3 17.96L56.2 17.96L56.2 19.24L49.3 19.24ZM73.24 15.12L78.74 15.12L78.74 16L73.24 16L73.24 15.12ZM73.24 12.7L78.74 12.7L78.74 13.56L73.24 13.56L73.24 12.7ZM77.4 6.2L77.4 7.58L75.08 7.58L75.08 6.2L72.8 6.2L72.8 7.58L70.46 7.58L70.46 9.54L72.8 9.54L72.8 10.68L75.08 10.68L75.08 9.54L77.4 9.54L77.4 10.68L79.72 10.68L79.72 9.54L81.98 9.54L81.98 7.58L79.72 7.58L79.72 6.2L77.4 6.2ZM71.02 11.04L71.02 17.66L74.86 17.66C74.82 18.06 74.76 18.46 74.7 18.82L70.1 18.82L70.1 20.8L73.92 20.8C73.18 21.84 71.84 22.58 69.34 23.08C69.8 23.54 70.36 24.42 70.56 25C73.86 24.2 75.5 22.96 76.34 21.22C77.34 23.06 78.86 24.34 81.12 24.96C81.44 24.36 82.1 23.44 82.6 22.98C80.8 22.62 79.46 21.88 78.56 20.8L82.06 20.8L82.06 18.82L77.06 18.82L77.2 17.66L81.06 17.66L81.06 11.04L71.02 11.04ZM66.02 6.2L66.02 9.94L63.84 9.94L63.84 12.16L66.02 12.16L66.02 12.66C65.46 14.94 64.48 17.52 63.36 18.96C63.76 19.6 64.28 20.7 64.52 21.38C65.06 20.54 65.58 19.4 66.02 18.12L66.02 24.98L68.28 24.98L68.28 15.9C68.7 16.74 69.08 17.6 69.3 18.2L70.72 16.52C70.38 15.94 68.86 13.62 68.28 12.86L68.28 12.16L70.1 12.16L70.1 9.94L68.28 9.94L68.28 6.2L66.02 6.2ZM99.52 15.2L97.24 15.2C97.26 14.64 97.28 14.08 97.28 13.52L97.28 11.62L99.52 11.62L99.52 15.2ZM94.98 6.42L94.98 9.38L92.02 9.38L92.02 11.62L94.98 11.62L94.98 13.52C94.98 14.08 94.96 14.64 94.92 15.2L91.52 15.2L91.52 17.48L94.56 17.48C93.96 19.72 92.58 21.76 89.38 23.22C89.9 23.62 90.7 24.5 91.02 25.04C94.4 23.42 95.98 21.14 96.7 18.64C97.72 21.52 99.28 23.74 101.72 25.04C102.1 24.38 102.86 23.38 103.4 22.9C101.04 21.9 99.46 19.94 98.54 17.48L103.02 17.48L103.02 15.2L101.76 15.2L101.76 9.38L97.28 9.38L97.28 6.42L94.98 6.42ZM84.52 19.42L85.48 21.82C87.28 21 89.52 19.94 91.6 18.9L91.06 16.78L89.26 17.54L89.26 13.12L91.22 13.12L91.22 10.84L89.26 10.84L89.26 6.48L87.02 6.48L87.02 10.84L84.88 10.84L84.88 13.12L87.02 13.12L87.02 18.46C86.08 18.84 85.22 19.18 84.52 19.42Z"></path><path  id="文本 1" style="fill:#000000; opacity:1;" d="M3.32936,5.47687c0.68031,0.32343 1.36611,0.70217 2.05741,1.13624c0.20885,0.13114 0.4049,0.25926 0.58815,0.38437l3.2594,-1.43797l0.47442,0.65232c0.36591,0.50314 0.70966,1.03272 1.03126,1.58873v-2.60056h4.42v2.93212c0.2876,-0.62318 0.5242,-1.21774 0.7098,-1.78367l0.3212,-0.97972l4.3095,1.56035l-0.451,0.98668c-0.50473,1.10406 -0.98907,2.06547 -1.453,2.88424h0.6835v11.6c0,0.72947 -0.09563,1.31573 -0.2869,1.7588c-0.248,0.57467 -0.6633,0.99987 -1.2459,1.2756c-0.45767,0.22887 -1.03673,0.37673 -1.7372,0.4436c-0.4332,0.04133 -1.11653,0.062 -2.05,0.062h-0.8828l-0.1095,-0.876c-0.0322,-0.25793 -0.109,-0.57713 -0.2304,-0.9576c-0.12253,-0.38413 -0.25117,-0.70673 -0.3859,-0.9678l-0.5671,-1.0986h-0.9443v3.92h-4.34v-5.4487c-0.73955,1.6282 -1.53105,3.246 -2.37451,4.8534l-0.53743,1.0241l-3.05578,-2.2197l-0.76077,-0.5527l0.50483,-0.7933c1.11388,-1.7504 2.21885,-3.79353 3.31491,-6.1294l-0.1572,-0.166c-0.29759,-0.31407 -0.77318,-0.6936 -1.42679,-1.1386c-0.63695,-0.4336 -1.27214,-0.8137 -1.90555,-1.1403l-1.08558,-0.5597l2.61816,-3.2727l0.71565,0.3407c0.70164,0.33413 1.40416,0.71673 2.10755,1.1478c0.78471,0.4808 1.39553,0.91837 1.83247,1.3127l0.21004,0.1896v-2.6072h0.90661c-0.09553,-0.22753 -0.20845,-0.4736 -0.33874,-0.7382c-0.05432,-0.11033 -0.10941,-0.21929 -0.16526,-0.32686l-1.83686,2.30846l-0.7917,-0.8357c-0.29915,-0.31573 -0.76564,-0.69367 -1.39945,-1.1338c-0.6141,-0.42648 -1.22892,-0.80353 -1.84445,-1.13115l-1.08585,-0.57796l2.68425,-3.2211zM7.57997,8.88367c0.29546,0.53398 0.56401,1.08407 0.77097,1.58623c0.04644,0.1127 0.08978,0.223 0.12962,0.3301c0.08269,0.2223 0.15034,0.4312 0.19944,0.62l0.91857,-0.4298l0.40653,-0.1902l0.7349,-0.3439l0.12,-0.0561c-0.0343,-0.1092 -0.0745,-0.2237 -0.12,-0.3425c-0.3794,-0.99011 -1.12567,-2.27529 -1.84,-3.2575l-1.11158,0.4904l-0.89765,0.39602l-0.03077,0.01358c0.18038,0.26826 0.36077,0.55792 0.53472,0.85709c0.06268,0.10781 0.12453,0.21686 0.18525,0.32658zM10.2275,11.8h-1.7275h-0.75445h-0.24555v13.16h2.34v-3.92h6.1v1.32c0,0.26 -0.1,0.36 -0.42,0.38c-0.179,0 -0.6286,0 -1.1576,-0.0127c-0.3575,-0.0087 -0.7514,-0.0231 -1.1224,-0.0473c0.1471,0.285 0.2942,0.6504 0.418,1.0241c0.1455,0.4393 0.2588,0.8901 0.302,1.2359c1.52,0 2.58,-0.02 3.34,-0.4c0.76,-0.36 0.98,-1 0.98,-2.14v-10.6h-1h-1.6013h-0.5187h-1v-0.5695v-5.0305h-2.42v5.6zM16.0078,10.8554l1.1322,0.4246c0.0965,-0.1495 0.196,-0.3101 0.2975,-0.48c0.4091,-0.685 0.852,-1.52168 1.2744,-2.39148c0.1459,-0.30052 0.2893,-0.60499 0.4281,-0.90852l-0.9434,-0.34159l-0.4359,-0.15782l-0.9407,-0.34059c-0.0731,0.22301 -0.1589,0.45871 -0.2539,0.70125c-0.2906,0.7421 -0.6669,1.54818 -1.0274,2.25027c-0.1298,0.25292 -0.2577,0.49238 -0.3787,0.71038c-0.0339,0.0611 -0.0673,0.1205 -0.1,0.1781l0.1,0.0375l0.7,0.2625zM6.5,17.2334v-2.7762l-1.31126,1.6885zM4.13591,17.8709c-1.00977,2.071 -2.16398,4.1504 -3.01591,5.4891l1.30226,0.946l0.81774,0.594c0.15389,-0.2933 0.30905,-0.5933 0.46468,-0.8984c0.91631,-1.7968 1.84889,-3.7723 2.63532,-5.6016l-0.9647,-0.8003l-0.7953,-0.6597c-0.14375,0.3084 -0.29229,0.6196 -0.44409,0.9309zM4.77914,15.0427l0.84086,-1.0827c-0.82,-0.74 -2.44,-1.7 -3.7,-2.3l-0.72347,0.9043l-0.63653,0.7957c0.2844,0.1466 0.5846,0.313 0.88743,0.4915c0.6932,0.4085 1.40021,0.8802 1.96316,1.3231c0.242,0.1904 0.45738,0.3755 0.6336,0.5479c0.04075,0.0399 0.0794,0.0791 0.11581,0.1175l0.25869,-0.3331zM6.05515,8.29529c-0.84523,-0.66904 -2.12783,-1.42689 -3.15515,-1.91529l-0.7468,0.89616l-0.6532,0.78384c0.28292,0.15059 0.58146,0.32096 0.88232,0.50327c0.65942,0.3996 1.32996,0.85658 1.87154,1.28838c0.29428,0.23465 0.55049,0.46185 0.74614,0.66835l0.62769,-0.78886l0.74563,-0.93707l0.10668,-0.13407c-0.12319,-0.11687 -0.26633,-0.23922 -0.42485,-0.36471zM22.6077,9.84h-0.5077v-3.6h4.68v-1.04h4.14v1.04h0.22v-1.04h4.26v1.04h4.22v4.96h1.3112l-0.0524,1.0499h-0.0001c-0.01247,0.2504 -0.0187,0.4471 -0.0187,0.5901v0.0357l-0.0025,0.0356c-0.05607,0.78407 -0.12543,1.37673 -0.2081,1.778c-0.11667,0.5662 -0.3074,1.01283 -0.5722,1.3399l-0.0228,0.0282l-0.0249,0.0265c-0.3538,0.3774 -0.8103,0.6263 -1.3695,0.7467v4.7048c0.8096,0.26273 1.49567,0.50903 2.0582,0.7389l1.1943,0.488l-2.589,3.4777l-0.7316,-0.3271c-0.8008,-0.358 -1.94513,-0.7805 -3.433,-1.2675c-1.45307,-0.47567 -2.8087,-0.87453 -4.0669,-1.1966l-0.2775,-0.0711c-0.1158,0.08827 -0.23527,0.17387 -0.3584,0.2568c-1.61393,1.0868 -4.183,1.8592 -7.7072,2.3172l-0.8539,0.1109l-0.2365,-0.8279c-0.06847,-0.23953 -0.1873,-0.5319 -0.3565,-0.8771c-0.1764,-0.36007 -0.33737,-0.63103 -0.4829,-0.8129l-1.1531,-1.4415l1.8373,-0.1785c0.68927,-0.067 1.32817,-0.14267 1.9167,-0.227v-3.5068c-0.055,0.01127 -0.10033,0.02063 -0.136,0.0281l-0.821,0.171l-0.3115,-0.7786c-0.08093,-0.2024 -0.2214,-0.4599 -0.4214,-0.7725c-0.2066,-0.323 -0.38567,-0.56027 -0.5372,-0.7118l-1.3622,-1.3622l1.898,-0.3301c0.0394,-0.00687 0.07857,-0.01377 0.1175,-0.0207l0.1739,-0.8537c0.2572,-1.2626 0.45307,-2.50273 0.5876,-3.7204zM23.6136,9.84c-0.1015,0.9386 -0.2618,2.0015 -0.4243,2.92c-0.0639,0.3611 -0.1282,0.6998 -0.1893,1h3.48c-0.46,0.3744 -1.0802,0.7088 -1.9095,1c-0.4512,0.1584 -0.9643,0.3041 -1.5472,0.4365c-0.3488,0.0793 -0.7227,0.1538 -1.1233,0.2235c0.2123,0.2123 0.4604,0.5473 0.6797,0.8913c0.2145,0.3364 0.4014,0.6815 0.5003,0.9287c0.1156,-0.0241 0.2288,-0.047 0.34,-0.0696c0.3507,-0.0712 0.6811,-0.1393 1,-0.2304v4.84h2.32v-3.56h8.48v3.34h2.44v-5.3h-11.22c0.6718,-0.2956 1.2193,-0.6313 1.6639,-1c0.5482,-0.4544 0.94,-0.9589 1.2161,-1.5h2.82v2.1h2.26v-2.1h3.12c-0.04,0.3 -0.1,0.46 -0.16,0.54c-0.0997,0.1395 -0.2391,0.14 -0.4182,0.14h-0.0018c-0.22,0.02 -0.62,0 -1.1,-0.06c0.0536,0.1125 0.1057,0.2423 0.1537,0.38c0.0561,0.1607 0.1064,0.3322 0.147,0.5c0.0131,0.0544 0.0252,0.1083 0.0361,0.1614c0.0342,0.1668 0.0568,0.3249 0.0632,0.4586c0.78,0.04 1.5,0.04 1.9,0.02c0.1737,-0.0165 0.3508,-0.0502 0.52,-0.1066c0.24,-0.08 0.4641,-0.2057 0.64,-0.3934c0.3096,-0.3824 0.4368,-1.0302 0.5326,-2.2c0.0094,-0.1149 0.0185,-0.2348 0.0274,-0.36c0,-0.24 0.02,-0.64 0.02,-0.64h-5.48v-0.86h4.22v-4.1h-1h-2.22h-1v-1.04h-2.26v1.04h-1.22h-1v-0.04v-1h-2.14v1.04h-3.68h-1v1.6h4.68v0.92l-3.24,0.02h-0.92c-0.0021,0.01994 -0.0043,0.03994 -0.0064,0.06zM31.14,15.26v-0.5h-1.2482c-0.11473,0.17267 -0.2395,0.33933 -0.3743,0.5zM34.22,20.2635v-1.0435h-0.7947c-0.07153,0.27613 -0.1508,0.54053 -0.2378,0.7932c0.3376,0.07853 0.68177,0.16197 1.0325,0.2503zM32.8032,20.9508c-0.0754,-0.0173 -0.1498,-0.0343 -0.2232,-0.0508l-0.5666,0.722l-0.6734,0.858c0.1185,0.0303 0.2391,0.0617 0.3616,0.0941c0.224,0.0593 0.4542,0.1218 0.6889,0.1871c2.3454,0.6526 5.1374,1.5807 6.6095,2.2388l0.7222,-0.9701l0.6178,-0.8299c-0.2882,-0.1178 -0.6159,-0.2413 -0.9727,-0.368c-0.2518,-0.0894 -0.518,-0.1804 -0.7953,-0.272c-1.3304,-0.4397 -2.9131,-0.8946 -4.352,-1.2634c-0.4946,-0.1268 -0.9722,-0.2434 -1.4168,-0.3458zM30.1,18.88c-0.0353,0.1162 -0.0726,0.2295 -0.1125,0.34c-0.3697,1.0234 -0.9647,1.8084 -2.2475,2.4103c-0.975,0.4575 -2.3472,0.8093 -4.32,1.0796c-0.2226,0.0305 -0.4529,0.0599 -0.691,0.0884c-0.3581,0.0428 -0.7341,0.0833 -1.129,0.1217c0.191,0.2387 0.3957,0.5869 0.5748,0.9466c0.1961,0.3935 0.3616,0.8008 0.4452,1.0934c3.4056,-0.4425 5.6265,-1.1072 7.1058,-2.0429c1.2688,-0.8027 1.9919,-1.8047 2.4489,-3.0371c0.011,-0.0295 0.0218,-0.0591 0.0324,-0.0889c0.0662,-0.1852 0.1266,-0.3755 0.1822,-0.5711c0.0318,-0.1116 0.0619,-0.2249 0.0907,-0.34h-1.0341zM28.9065,19.22h-1.1665v1.2799c0.35347,-0.21307 0.63533,-0.45817 0.8456,-0.7353c0.11727,-0.1546 0.22423,-0.33613 0.3209,-0.5446zM61.1096,8.44697c-0.7205,0.99383 -1.5048,1.93903 -2.3443,2.83303h3.2347v4.1h-2.3v10.54h-4.5v-0.5h-4.9v0.58h-4.4v-6.0413c-0.5652,0.23713 -1.14413,0.464 -1.7368,0.6806l-0.7894,0.2884l-0.42,-0.728c-0.14167,-0.24553 -0.34553,-0.5506 -0.6116,-0.9152c-0.28093,-0.385 -0.51567,-0.67587 -0.7042,-0.8726l-1.1074,-1.1555l1.5241,-0.4887c1.27153,-0.40767 2.49187,-0.87023 3.661,-1.3877h-3.7157v-4.1h1.72v-3.92h4.72v-2.16h4.38v2.16h3.743c0.2994,-0.37348 0.5839,-0.75591 0.8535,-1.1473l0.5028,-0.72992l3.8688,2.02831zM57.7818,12.28h-1.4618c0.3592,-0.3252 0.7101,-0.6586 1.0522,-1c0.8268,-0.8251 1.6021,-1.69667 2.3178,-2.6107c0.2085,-0.2662 0.4119,-0.536 0.61,-0.8093l-0.8953,-0.4694l-1.1647,-0.6106c-0.3374,0.48975 -0.6985,0.96766 -1.08,1.4305c-0.3196,0.3877 -0.6536,0.76484 -1,1.1295v-0.98h-4.34v-1v-1.16h-2.38v2.16h-4.72v2.08h4.72v1.84h-6.44v2.1h6.82c-0.5836,0.3502 -1.1827,0.6836 -1.7947,1c-1.4821,0.7663 -3.0396,1.4324 -4.6353,1.9938c-0.3417,0.1202 -0.6852,0.2356 -1.03,0.3462c0.1997,0.2084 0.4446,0.511 0.6825,0.8293c0.3099,0.4149 0.6077,0.8565 0.7775,1.1507c0.7004,-0.2559 1.3917,-0.5299 2.08,-0.8282c0.3338,-0.1447 0.6669,-0.295 1,-0.4518v6.58h2.4v-0.58h6.9v0.5h2.5v-8.94h-1h-4.4437h-1.8363c0.5228,-0.3188 1.0294,-0.6539 1.5249,-1c0.2816,-0.1967 0.5597,-0.3971 0.8351,-0.6h7.22v-2.1zM69.28,8.94h0.18v-2.36h2.34v-1.38h4.28v1.38h0.32v-1.38h4.32v1.38h2.26v3.96h-0.92v7.28h1v3.98h-1.0708c0.25593,0.07653 0.5249,0.143 0.8069,0.1994l1.8246,0.3649l-1.0292,-2.5729l-0.3905,-0.9763l0.9947,-0.341c0.4264,-0.1462 1.0345,-0.37633 1.8243,-0.6904v-3.6637h-2.14v-4.28h2.14v-4.36h4.24v4.36h0.76v-1.46h2.96v-2.96h4.3v2.96h4.48v5.82h1.26v4.28h-3.937c0.88933,1.66247 2.125,2.82887 3.707,3.4992l1.457,0.6172l-1.183,1.051c-0.21467,0.19107 -0.47267,0.48063 -0.774,0.8687c-0.294,0.3778 -0.52833,0.71877 -0.703,1.0229l-0.483,0.8386l-0.854,-0.455c-1.88907,-1.0064 -3.39847,-2.58157 -4.5282,-4.7255c-1.11667,2.01453 -2.8732,3.5961 -5.2696,4.7447l-0.8257,0.3957l-0.4668,-0.7877c-0.1244,-0.20993 -0.33327,-0.4772 -0.6266,-0.8018c-0.29367,-0.325 -0.54793,-0.57013 -0.7628,-0.7354l-1.3167,-1.0128l1.5113,-0.6896c1.37153,-0.62573 2.4434,-1.3965 3.2156,-2.3123c0.11953,-0.1418 0.23293,-0.28853 0.3402,-0.4402l-0.4735,0.2367c-1.99093,0.99547 -4.0418,1.974 -6.1526,2.9356l-0.9538,0.4345l-0.2863,-0.7158l-1.3774,1.2672c-0.19313,0.17767 -0.4198,0.4428 -0.68,0.7954c-0.2512,0.3404 -0.44947,0.64683 -0.5948,0.9193l-0.3761,0.7052l-0.7708,-0.2114c-1.8814,-0.5162 -3.38503,-1.4793 -4.5109,-2.8893c-0.39907,0.4704 -0.8696,0.88897 -1.4116,1.2557c-1.0414,0.70453 -2.4205,1.2649 -4.1373,1.6811l-0.8843,0.2143l-0.2967,-0.8602c-0.0644,-0.18687 -0.17593,-0.41077 -0.3346,-0.6717v1.3257h-4.26v-3.5285l-0.7633,1.1873l-0.6797,-1.926c-0.1106,-0.31333 -0.27043,-0.68903 -0.4795,-1.1271c-0.21393,-0.4482 -0.4091,-0.81343 -0.5855,-1.0957l-0.3703,-0.5925l0.4289,-0.5514c0.47667,-0.61287 0.9447,-1.47967 1.4041,-2.6004c0.3374,-0.82313 0.6311,-1.68503 0.8811,-2.5857h-2.0158v-4.22h2.18v-3.74h4.26zM68.28,8.94v-2.74h-2.26v3.74h-2.18v1v1.22h2.18v0.5c-0.0406,0.1653 -0.0834,0.3321 -0.1283,0.5c-0.5745,2.1481 -1.4929,4.4644 -2.5317,5.8c0.2116,0.3386 0.4568,0.8059 0.6764,1.2717c0.1954,0.4146 0.3706,0.828 0.4836,1.1483c0.1692,-0.2633 0.3365,-0.556 0.5,-0.8733c0.0423,-0.0822 0.0844,-0.166 0.1262,-0.2514c0.3117,-0.6368 0.6074,-1.3604 0.8738,-2.1353v6.86h2.26v-9.08c0.213,0.4259 0.4157,0.857 0.5924,1.2568c0.1036,0.2343 0.1983,0.4578 0.281,0.6632c0.0461,0.1147 0.0885,0.2238 0.1266,0.3259c0.0068,0.0183 0.0135,0.0363 0.02,0.0541l0.3212,-0.38l0.3988,-0.4718l0.0151,-0.018l0.6849,-0.8102c-0.119,-0.2031 -0.3827,-0.6194 -0.7,-1.1073c-0.4902,-0.7539 -1.1085,-1.6789 -1.5195,-2.2527c-0.0828,-0.1157 -0.1573,-0.2171 -0.2205,-0.3v-0.7h1.82v-2.22h-1.82zM71.1,11.04h-0.08v6.62h3.84c-0.0342,0.3416 -0.0829,0.6833 -0.1338,1c-0.0087,0.0541 -0.0175,0.1075 -0.0262,0.16h-4.6v1.98h3.82c-0.2636,0.3705 -0.6034,0.7029 -1.0447,1c-0.6008,0.4045 -1.3897,0.7434 -2.4308,1.0237c-0.3404,0.0916 -0.7079,0.177 -1.1045,0.2563c0.2217,0.2217 0.4665,0.5408 0.6832,0.877c0.2329,0.3614 0.4332,0.7425 0.5368,1.043c2.6522,-0.643 4.2322,-1.5702 5.1864,-2.8127c0.233,-0.3035 0.4287,-0.6258 0.5936,-0.9673c0.1858,0.342 0.3897,0.6646 0.6129,0.9673c0.9777,1.3257 2.3271,2.2679 4.1671,2.7727c0.172,-0.3225 0.4422,-0.7373 0.7329,-1.1236c0.2503,-0.3324 0.5158,-0.6436 0.7471,-0.8564c-0.3912,-0.0782 -0.7606,-0.1744 -1.1086,-0.2881c-0.6974,-0.228 -1.3083,-0.5264 -1.8344,-0.8919c-0.4192,-0.2913 -0.7846,-0.6251 -1.097,-1h3.5v-1.98h-5l0.1207,-1l0.0193,-0.16h3.86v-6.62zM72.8,10.04v0.64h2.28v-1.14h2.32v1.14h2.32v-1.14h2.26v-1.96h-2.26v-1.38h-2.32v1.38h-2.32v-0.38v-1h-2.28v1.38h-2.34v1.96h2.34zM70.3804,21.8h-1.1004v0.2717c0.3946,-0.08213 0.7614,-0.1727 1.1004,-0.2717zM70.02,13.6003v-0.4403h-0.2989c0.093,0.13567 0.19263,0.28243 0.2989,0.4403zM87.02,18.46c-0.5532,0.2236 -1.0787,0.4334 -1.5601,0.6171c-0.3367,0.1284 -0.6518,0.2441 -0.9399,0.3429l0.3718,0.9296l0.2164,0.5409l0.3718,0.9295c0.2926,-0.1333 0.5967,-0.2729 0.9099,-0.4177c1.614,-0.7463 3.4682,-1.6313 5.2101,-2.5023l-0.107,-0.42l-0.1834,-0.7199l-0.2496,-0.9801l-0.54,0.228l-0.26,0.1098l-0.1317,0.0556l-0.8683,0.3666v-4.42h0.96h1v-2.28h-1.96v-4.36h-1h-0.24h-1v4.36h-2.14v2.28h2.14zM92.22,12.62v1.5h-1.96v1.9123l0.26,-0.1098v-1.7225h3.4497c0.00687,-0.2266 0.0103,-0.45327 0.0103,-0.68v-0.9zM94.98,12.62v0.9c0,0.56 -0.02,1.12 -0.06,1.68h-2.4h-1v2.28h3.04c-0.0906,0.3383 -0.199,0.6721 -0.3288,1c-0.6373,1.6099 -1.7899,3.0783 -3.882,4.2501c-0.303,0.1697 -0.6256,0.3331 -0.9692,0.4899c0.2285,0.1758 0.5111,0.4442 0.7832,0.7358c0.3472,0.3719 0.6774,0.7815 0.8568,1.0842c2.728,-1.3075 4.2835,-3.045 5.1606,-4.981c0.2096,-0.4627 0.3805,-0.9368 0.5194,-1.419c0.1735,0.49 0.3627,0.9608 0.5691,1.4113c0.8588,1.8738 2.017,3.3949 3.5949,4.4712c0.107,0.0733 0.217,0.1444 0.328,0.2135c0.171,0.1063 0.347,0.2077 0.528,0.304c0.227,-0.3949 0.591,-0.9114 0.962,-1.3655c0.249,-0.3049 0.501,-0.5817 0.718,-0.7745c-0.331,-0.1402 -0.647,-0.2994 -0.947,-0.4761c-1.544,-0.9075 -2.6917,-2.2794 -3.4887,-3.9439c-0.1545,-0.3227 -0.2958,-0.6565 -0.4243,-1h4.48v-2.28h-1.26v-5.82h-4.48v-2.96h-2.3v2.96h-2.96v2.24h2.96zM93.142,18.48h-0.617l0.1974,0.7752c0.15467,-0.24633 0.29453,-0.50473 0.4196,-0.7752zM30.92,8.84h1.22v0.92h-2.22v-0.92zM36.46,8.84v0.92h-2.06v-0.92h1zM51.82,12.28v-1.84h3.26c-0.3612,0.34 -0.7337,0.6743 -1.1175,1c-0.3387,0.2874 -0.6862,0.5681 -1.0425,0.84h-1.1zM27.74,11.34c-0.02,0.3 -0.08,0.58 -0.16,0.86h-2.16l0.12,-0.86h1.1967zM29.82,12.2c0.04,-0.28 0.06,-0.56 0.08,-0.86h2.24v0.86h-1.3116zM97.24,15.2c0.0119,-0.3333 0.0238,-0.6667 0.0315,-1c0.0052,-0.2267 0.0085,-0.4533 0.0085,-0.68v-1.9h2.24v3.58h-1zM98.52,14.2v-1.58h-0.24v0.9c0,0.1842 -0.0031,0.41087 -0.0093,0.68zM78.74,12.7v0.86h-1h-3.5h-1v-0.86h1zM9.84,14.02h6.1v1.48h-1h-4.1h-1v-0.48zM74.24,15.12h4.5v0.88h-5.5v-0.88zM15.94,17.52v1.5h-1h-4.1h-1v-1.5h1zM49.3,17.96h6.9v1.28h-1h-4.9h-1v-0.28zM56.2,21.06v1.34h-6.9v-1.34h5.9z"></path></g></g><defs><rect id="path_0" x="0" y="0" width="111.46522331237793" height="124.530517578125" /></defs></svg>